<?xml version="1.0" encoding="utf-8"?>
<svg width="1920" height="10002" viewBox="0 0 1920 10002" fill="none" xmlns="http://www.w3.org/2000/svg">
<g opacity="0.05">
<mask id="mask0" mask-type="alpha" maskUnits="userSpaceOnUse" x="0" y="0" width="1920" height="9927">
<rect width="1920" height="9927" fill="#C4C4C4"/>
</mask>
<g mask="url(#mask0)">
<line x1="-0.340528" y1="-330.821" x2="-1509.41" y2="10728.7" stroke="white"/>
<line x1="294.249" y1="-290.624" x2="-1214.82" y2="10768.9" stroke="white"/>
<line x1="588.966" y1="-250.41" x2="-920.102" y2="10809.1" stroke="white"/>
<line x1="883.685" y1="-210.196" x2="-625.383" y2="10849.3" stroke="white"/>
<line x1="1178.41" y1="-169.981" x2="-330.663" y2="10889.5" stroke="white"/>
<line x1="1473.12" y1="-129.767" x2="-35.9438" y2="10929.8" stroke="white"/>
<line x1="1767.84" y1="-89.5526" x2="258.773" y2="10970" stroke="white"/>
<line x1="2062.56" y1="-49.3383" x2="553.494" y2="11010.2" stroke="white"/>
<line x1="2355.23" y1="-9.4039" x2="846.162" y2="11050.1" stroke="white"/>
<line x1="2649.95" y1="30.8102" x2="1140.88" y2="11090.3" stroke="white"/>
<line x1="2944.66" y1="71.0242" x2="1435.6" y2="11130.5" stroke="white"/>
<line x1="3239.38" y1="111.238" x2="1730.31" y2="11170.8" stroke="white"/>
<line x1="6077.13" y1="114.442" x2="-5059" y2="-644.945" stroke="white"/>
<line x1="6061.95" y1="337.088" x2="-5074.19" y2="-422.299" stroke="white"/>
<line x1="6046.77" y1="559.733" x2="-5089.37" y2="-199.653" stroke="white"/>
<line x1="6031.59" y1="782.379" x2="-5104.55" y2="22.9922" stroke="white"/>
<line x1="6016.41" y1="1005.02" x2="-5119.73" y2="245.638" stroke="white"/>
<line x1="6001.22" y1="1227.67" x2="-5134.92" y2="468.283" stroke="white"/>
<line x1="5986.04" y1="1450.32" x2="-5150.1" y2="690.929" stroke="white"/>
<line x1="5970.86" y1="1672.96" x2="-5165.28" y2="913.574" stroke="white"/>
<line x1="5955.67" y1="1895.61" x2="-5180.47" y2="1136.22" stroke="white"/>
<line x1="5940.49" y1="2118.25" x2="-5195.65" y2="1358.87" stroke="white"/>
<line x1="5925.31" y1="2340.9" x2="-5210.83" y2="1581.51" stroke="white"/>
<line x1="5910.13" y1="2563.54" x2="-5226.01" y2="1804.16" stroke="white"/>
<line x1="5894.94" y1="2786.19" x2="-5241.2" y2="2026.8" stroke="white"/>
<line x1="5879.76" y1="3008.83" x2="-5256.38" y2="2249.45" stroke="white"/>
<line x1="5864.58" y1="3231.48" x2="-5271.56" y2="2472.09" stroke="white"/>
<line x1="5849.4" y1="3454.13" x2="-5286.74" y2="2694.74" stroke="white"/>
<line x1="5834.22" y1="3676.77" x2="-5301.92" y2="2917.39" stroke="white"/>
<line x1="5819.03" y1="3899.42" x2="-5317.11" y2="3140.03" stroke="white"/>
<line x1="5803.85" y1="4122.06" x2="-5332.29" y2="3362.68" stroke="white"/>
<line x1="5788.67" y1="4344.71" x2="-5347.47" y2="3585.32" stroke="white"/>
<line x1="5773.49" y1="4567.35" x2="-5362.65" y2="3807.97" stroke="white"/>
<line x1="5758.31" y1="4790" x2="-5377.83" y2="4030.61" stroke="white"/>
<line x1="5743.12" y1="5012.65" x2="-5393.02" y2="4253.26" stroke="white"/>
<line x1="5727.94" y1="5235.29" x2="-5408.2" y2="4475.9" stroke="white"/>
<line x1="5712.76" y1="5457.94" x2="-5423.38" y2="4698.55" stroke="white"/>
<line x1="5697.58" y1="5680.58" x2="-5438.56" y2="4921.2" stroke="white"/>
<line x1="5682.39" y1="5903.23" x2="-5453.75" y2="5143.84" stroke="white"/>
<line x1="5667.21" y1="6125.87" x2="-5468.93" y2="5366.49" stroke="white"/>
<line x1="5652.03" y1="6348.52" x2="-5484.11" y2="5589.13" stroke="white"/>
<line x1="5636.84" y1="6571.16" x2="-5499.3" y2="5811.78" stroke="white"/>
<line x1="5621.66" y1="6793.81" x2="-5514.48" y2="6034.42" stroke="white"/>
<line x1="5606.48" y1="7016.46" x2="-5529.66" y2="6257.07" stroke="white"/>
<line x1="5591.3" y1="7239.1" x2="-5544.84" y2="6479.71" stroke="white"/>
<line x1="5576.11" y1="7461.75" x2="-5560.03" y2="6702.36" stroke="white"/>
<line x1="5560.93" y1="7684.39" x2="-5575.21" y2="6925.01" stroke="white"/>
<line x1="5545.75" y1="7907.04" x2="-5590.39" y2="7147.65" stroke="white"/>
<line x1="5530.56" y1="8129.68" x2="-5605.57" y2="7370.3" stroke="white"/>
<line x1="5515.38" y1="8352.33" x2="-5620.75" y2="7592.94" stroke="white"/>
<line x1="5500.2" y1="8574.97" x2="-5635.94" y2="7815.59" stroke="white"/>
<line x1="5485.02" y1="8797.62" x2="-5651.12" y2="8038.23" stroke="white"/>
<line x1="5469.83" y1="9020.27" x2="-5666.31" y2="8260.88" stroke="white"/>
<line x1="5454.65" y1="9242.91" x2="-5681.48" y2="8483.53" stroke="white"/>
<line x1="5439.47" y1="9465.56" x2="-5696.66" y2="8706.17" stroke="white"/>
<line x1="5424.29" y1="9688.2" x2="-5711.85" y2="8928.82" stroke="white"/>
<line x1="5409.11" y1="9910.85" x2="-5727.03" y2="9151.46" stroke="white"/>
<line x1="5393.92" y1="10133.5" x2="-5742.22" y2="9374.11" stroke="white"/>
<line x1="5378.74" y1="10356.1" x2="-5757.4" y2="9596.75" stroke="white"/>
<line x1="5363.56" y1="10578.8" x2="-5772.58" y2="9819.4" stroke="white"/>
</g>
</g>
</svg>
