<?xml version="1.0" ?><svg viewBox="0 0 64 64" xmlns="http://www.w3.org/2000/svg"><g id="virus-covid19-corona-roll-hygiene"><path d="M21,29a28.992,28.992,0,0,1-10-1.686C6.177,25.52,3,22.467,3,19V51c0,3.467,3.177,6.52,8,8.314A28.992,28.992,0,0,0,21,61c9.941,0,18-4.477,18-10V19C39,24.523,30.941,29,21,29Z" style="fill:#c9e2ff"/><path d="M39,19c0,5.52-8.06,10-18,10a28.849,28.849,0,0,1-10-1.69C6.18,25.52,3,22.47,3,19,3,13.48,11.06,9,21,9S39,13.48,39,19Z" style="fill:#76b5ff"/><ellipse cx="21" cy="19" rx="7" ry="3" style="fill:#a7a9ac"/><path d="M21,18c3.047,0,5.631.836,6.593,2A1.573,1.573,0,0,0,28,19c0-1.657-3.134-3-7-3s-7,1.343-7,3a1.573,1.573,0,0,0,.407,1C15.369,18.836,17.953,18,21,18Z" style="fill:#86878a"/><path d="M39.413,19.3,39,19V51l.413.3a18,18,0,0,0,21.174,0L61,51V19l-.413.3A18,18,0,0,1,39.413,19.3Z" style="fill:#a4ceff"/><path d="M32,26.9V32A20,20,0,0,1,12,52H3.1c.546,3.049,3.549,5.7,7.9,7.314A28.992,28.992,0,0,0,21,61c9.941,0,18-4.477,18-10V19C39,22.219,36.252,25.074,32,26.9Z" style="fill:#bddbff"/><path d="M3,19V51c0,3.467,3.177,6.52,8,8.314v-32C6.177,25.52,3,22.467,3,19Z" style="fill:#a4ceff"/><path d="M3.1,52c.546,3.049,3.549,5.7,7.9,7.314V52Z" style="fill:#9bc9ff"/><path d="M60.587,19.3A17.957,17.957,0,0,1,58,20.863V38a18.988,18.988,0,0,1-9.831,16.638A17.973,17.973,0,0,0,60.587,51.3L61,51V19Z" style="fill:#9bc9ff"/><path d="M11,44.31a1,1,0,0,0-1,1v2a1,1,0,0,0,2,0v-2A1,1,0,0,0,11,44.31Z" style="fill:#94c5ff"/><path d="M11,50.31a1,1,0,0,0-1,1v2a1,1,0,0,0,2,0v-2A1,1,0,0,0,11,50.31Z" style="fill:#94c5ff"/><path d="M11,56.31a1,1,0,0,0-1,1v1a1,1,0,0,0,2,0v-1A1,1,0,0,0,11,56.31Z" style="fill:#94c5ff"/><path d="M11,32.31a1,1,0,0,0-1,1v2a1,1,0,0,0,2,0v-2A1,1,0,0,0,11,32.31Z" style="fill:#94c5ff"/><path d="M11,27.31a1,1,0,0,0-1,1v1a1,1,0,1,0,2,0v-1A1,1,0,0,0,11,27.31Z" style="fill:#94c5ff"/><path d="M11,38.31a1,1,0,0,0-1,1v2a1,1,0,0,0,2,0v-2A1,1,0,0,0,11,38.31Z" style="fill:#94c5ff"/></g></svg>