<?xml version="1.0" encoding="utf-8"?>
<svg width="148" height="97" viewBox="0 0 148 97" fill="none" xmlns="http://www.w3.org/2000/svg">
<path d="M18.1313 45.5097L9.32144 49.6589L10.3445 51.8756L11.4813 51.364L13.0728 54.8312L7.27527 57.5594L5.68381 54.0923L6.87741 53.5239L2.72823 44.8845L1.53463 45.4529L0 42.0426L13.3569 35.8472C15.5168 34.8242 17.1083 35.3925 18.1313 37.5524L19.8933 41.3037C20.6891 43.1794 20.1207 44.6003 18.1313 45.5097ZM14.8347 40.2806C14.6074 39.7691 14.039 39.7122 13.2433 40.0533L6.30902 43.293L7.78681 46.476L14.7779 43.1794C15.5168 42.8383 15.801 42.3836 15.5168 41.8152L14.8347 40.2806ZM37.1153 38.5186L37.5131 38.405C39.9003 37.6092 40.8097 36.302 40.1845 34.3695L38.9341 30.4476C38.1952 28.1741 36.6605 27.4352 34.4439 28.1741L20.4617 32.7212L21.5985 36.2451L22.8489 35.8472L25.8045 44.8845L24.554 45.2824L25.7476 48.92L31.8293 46.9307L30.6357 43.293L29.499 43.6909L28.7601 41.4174L32.5682 40.1669L35.7511 41.7584L34.5575 42.1563L35.6943 45.6802L43.0264 43.293L41.8896 39.8259L40.5824 40.2806L37.1153 38.5186ZM35.2964 32.7212L35.808 34.3126C35.9785 34.881 35.6943 35.3357 34.8986 35.5631L27.5665 37.9503L26.4865 34.6536L33.7618 32.3233C34.6144 32.0391 35.1259 32.1528 35.2964 32.7212ZM58.3158 29.7656L57.9748 27.2647L49.0512 28.5151L49.5059 31.7549L56.8949 30.7318L57.4064 34.4263L50.0175 35.4494L50.3585 37.8366L59.2253 36.5861L58.8842 34.3126L62.9197 33.7442L63.7723 39.7122L45.7546 42.2699L45.2431 38.5755L46.4935 38.405L45.1863 28.9698L43.9358 29.1404L43.4243 25.4459L61.4988 22.8882L62.3513 29.1404L58.3158 29.7656ZM82.2447 39.5417L82.3583 35.7904L83.4951 35.8472L83.7225 29.3677L78.266 39.3712L75.9357 39.3144L71.0476 28.6288L70.8202 35.6767L72.0707 35.7336L71.957 39.2007L65.648 38.9733L65.7616 35.5631L66.8416 35.6199L67.1826 26.2416H66.3869L66.5574 21.9788L72.4117 22.2061L77.3566 33.1759L83.0972 22.5471L88.8947 22.7745L88.7242 27.0373L87.5875 26.9805L87.3033 35.9609L88.44 36.0178L88.3263 39.8259L82.2447 39.5417ZM91.1114 40.4511L91.6229 36.6998L93.0439 36.9272L94.3512 27.4921L92.9302 27.3215L93.4418 23.6271L100.035 24.5365L99.5234 28.3446L98.2162 28.1741L96.9089 37.4955L98.273 37.7229L97.7615 41.4742L91.1114 40.4511ZM120.383 33.6306L117.882 43.0657C117.314 45.2824 116.063 46.1349 114.244 45.6234L104.753 43.0657C102.934 42.5541 102.309 41.2469 102.877 39.0302L105.435 29.4245L104.184 29.0835L105.15 25.5027L111.516 27.2079L110.55 30.9023L109.186 30.5613L107.026 38.746C106.856 39.3712 107.083 39.7691 107.708 39.9396L113.165 41.4174C113.847 41.5879 114.244 41.4174 114.415 40.9058L116.632 32.6075L115.211 32.2096L116.177 28.5151L122.77 30.2771L121.747 34.0284L120.383 33.6306ZM135.218 54.1491L140.731 56.7068L142.322 53.2397L141.299 52.785L145.108 44.6003L146.131 45.055L147.949 41.19L142.664 38.746L133.228 46.3054L133.001 34.3126L127.658 31.8117L125.839 35.6767L126.578 36.0178L122.6 44.5435L121.633 44.0888L120.212 47.158L125.896 49.8294L127.374 46.6465L126.237 46.1349L129.193 39.7691L129.534 51.5345L131.637 52.5008L140.561 45.396L137.832 51.3072L136.809 50.7957L135.218 54.1491Z" fill="#B8B8B6"/>
<path d="M35.1841 58.8672H34.2747V58.0715C34.161 58.2988 33.9337 58.4694 33.6495 58.6399C33.2516 58.8672 32.7401 58.9809 32.1149 58.9809C31.0349 58.9809 30.2392 58.7535 29.7845 58.2988C29.273 57.7873 28.9888 56.9916 28.9888 55.8548C28.9888 53.7518 30.0687 52.6719 32.1717 52.6719C33.0243 52.6719 33.7063 52.7856 34.2179 53.0697C34.8431 53.3539 35.1841 53.8655 35.1841 54.4907H33.8768C33.8768 54.036 33.7063 53.7518 33.3085 53.5244C33.0243 53.3539 32.6832 53.2971 32.2285 53.2971C31.4328 53.2971 30.9213 53.5244 30.5802 53.9792C30.3529 54.3202 30.2392 54.9454 30.2392 55.7411C30.2392 56.7074 30.4097 57.3894 30.6939 57.7873C30.9781 58.1852 31.4896 58.3557 32.1717 58.3557C32.7969 58.3557 33.2516 58.1852 33.5927 57.8441C33.8768 57.5031 34.0474 56.9916 34.0474 56.2527H32.058V55.6843H35.1841V58.8672ZM44.9034 56.9347C44.9034 58.2988 43.8803 58.9241 41.891 58.9241C39.9585 58.9241 38.9923 58.242 38.9923 56.8779V52.7287H40.2427V56.8779C40.2427 57.4463 40.4132 57.7873 40.6974 58.0147C40.9816 58.1852 41.3795 58.2988 42.0047 58.2988C42.5731 58.2988 43.0278 58.1852 43.2551 58.0147C43.5393 57.7873 43.7098 57.4463 43.7098 56.8779V52.6719H44.9034V56.9347ZM55.1911 58.8672H53.8838L53.1449 57.2189H49.9052L49.1663 58.8672H47.859L50.7577 52.7856H52.4061L55.1911 58.8672ZM52.9176 56.5937L51.6103 53.695L50.1894 56.5937H52.9176ZM64.6262 58.8672H63.1484C62.9211 58.6967 62.8074 58.242 62.8074 57.5031C62.8074 56.9347 62.6937 56.5937 62.4096 56.3663C62.1822 56.1958 61.7275 56.139 61.1023 56.139H59.5676V58.8672H58.3172V52.7856H61.557C63.319 52.7856 64.1715 53.2971 64.1715 54.377C64.1715 54.718 64.001 55.0591 63.7168 55.3433C63.4326 55.6275 63.0348 55.798 62.5801 55.8548C63.1484 55.9116 63.5463 56.0253 63.7737 56.2527C64.001 56.48 64.1715 56.9347 64.1715 57.56C64.1147 58.242 64.2852 58.6967 64.6262 58.8672ZM62.8643 54.4907C62.8643 53.7518 62.239 53.4108 60.9886 53.4108H59.5676V55.5706H60.9886C62.239 55.5138 62.8643 55.1728 62.8643 54.4907ZM74.4024 58.8672H73.0951L72.3562 57.2189H69.1164L68.3776 58.8672H67.0703L69.969 52.7856H71.6173L74.4024 58.8672ZM72.1289 56.5937L70.8216 53.695L69.4006 56.5937H72.1289ZM83.7238 58.8672H82.0187L78.7789 53.9792V58.8672H77.5285V52.7856H79.1199L82.4734 57.8441H82.5302V52.7856H83.7807V58.8672H83.7238ZM93.3863 53.4676H90.8286V58.8672H89.5782V53.4676H87.0204V52.7856H93.3295V53.4676H93.3863ZM102.083 58.8672H96.6829V52.7856H101.912V53.4676H97.9333V55.3433H101.685V56.0253H97.9333V58.1852H102.083V58.8672ZM111.006 58.8672H105.663V52.7856H110.892V53.4676H106.914V55.3433H110.665V56.0253H106.857V58.1852H111.006V58.8672ZM120.953 55.7411C120.953 56.8211 120.669 57.6168 120.1 58.1283C119.532 58.583 118.622 58.8672 117.315 58.8672H114.701V52.7856H117.429C118.509 52.7856 119.304 52.9561 119.816 53.2971C120.555 53.7518 120.953 54.5475 120.953 55.7411ZM119.645 55.798C119.645 54.8317 119.418 54.2065 119.02 53.8655C118.679 53.5813 118.054 53.4108 117.145 53.4108H115.951V58.242H117.031C117.883 58.242 118.509 58.0715 118.907 57.7873C119.418 57.3894 119.645 56.7642 119.645 55.798Z" fill="#B8B8B6"/>
<path d="M14.0957 69.4389L19.8363 63.4709L21.0299 64.6645L18.7564 66.9948L21.0868 69.2684L23.3603 66.938L24.5539 68.1316L18.8133 74.0996L17.6197 72.9628L20.1205 70.3483L17.7333 68.0748L15.2325 70.6893L14.0957 69.4389ZM22.2804 76.8847L23.5877 77.9077L28.7031 71.3714L27.3958 70.3483L22.2804 76.8847ZM31.886 80.1244L32.6249 78.9308L35.6373 80.9202L33.8185 83.7052C33.3638 83.8189 32.7386 83.7621 32.0565 83.6484C31.3745 83.4779 30.6924 83.2505 30.124 82.8527C29.3851 82.398 28.8736 81.8296 28.5326 81.1475C28.1915 80.4655 28.0779 79.7834 28.1347 79.0445C28.2484 78.3056 28.4757 77.6236 28.9304 76.9415C29.3851 76.2026 29.9535 75.6911 30.6356 75.2932C31.3176 74.9522 31.9997 74.7816 32.7954 74.8385C33.3638 74.8953 34.0459 75.1227 34.6711 75.5774C35.5237 76.1458 36.092 76.771 36.3194 77.453C36.5467 78.1351 36.5467 78.8172 36.2625 79.556L34.6711 78.9308C34.7848 78.533 34.7848 78.1351 34.6142 77.7372C34.5006 77.3962 34.2164 77.0552 33.7617 76.771C33.1365 76.3731 32.5112 76.2594 31.9429 76.43C31.3176 76.6005 30.7493 77.0552 30.2945 77.7941C29.783 78.6466 29.5557 79.3855 29.6125 80.0108C29.7262 80.6928 30.0672 81.2044 30.6356 81.5454C30.9198 81.7159 31.2608 81.8864 31.6587 81.9432C31.9997 82.0001 32.3976 82.0569 32.6817 82.0001L33.2501 81.0907L31.886 80.1244ZM37.0583 86.604L40.5822 79.1013L42.1169 79.7834L40.7528 82.739L43.7083 84.1031L45.0724 81.1475L46.6071 81.8296L43.0831 89.3322L41.5485 88.6501L43.0831 85.3535L40.1275 83.9894L38.5929 87.286L37.0583 86.604ZM47.2323 90.9237L49.9605 83.08L55.758 85.0693L55.3033 86.3766L51.0973 84.8988L50.4721 86.6608L54.3939 88.0249L53.9392 89.3322L50.0174 87.9681L49.2785 90.1279L53.655 91.6626L53.2003 92.9698L47.2323 90.9237ZM57.2926 91.0942L58.9409 91.2647C58.9409 91.8331 59.0546 92.2309 59.282 92.572C59.5093 92.8562 59.9072 93.0835 60.4187 93.1972C60.9303 93.3109 61.385 93.254 61.6692 93.0835C62.0102 92.913 62.1807 92.6856 62.2375 92.4015C62.2944 92.2309 62.2375 92.0604 62.1807 91.8899C62.067 91.7194 61.8965 91.5489 61.6692 91.4352C61.4986 91.3215 61.1008 91.151 60.4187 90.81C59.5662 90.4121 58.9978 90.0143 58.7136 89.6732C58.3157 89.1048 58.1452 88.5365 58.2589 87.9112C58.3157 87.5134 58.5431 87.1155 58.8273 86.8313C59.1114 86.4903 59.5093 86.3198 60.0209 86.2061C60.4756 86.0924 61.0439 86.0924 61.6692 86.2061C62.6922 86.4335 63.4311 86.7745 63.829 87.3429C64.2837 87.9112 64.3974 88.5365 64.2837 89.2754L62.6354 89.048C62.6354 88.5933 62.5786 88.3091 62.3512 88.0818C62.1807 87.8544 61.8397 87.6839 61.385 87.6271C60.9303 87.5134 60.5324 87.5702 60.1914 87.6839C60.0209 87.7976 59.8503 87.9112 59.8503 88.1386C59.7935 88.3091 59.8503 88.5365 60.0209 88.707C60.1914 88.9343 60.6461 89.2185 61.4418 89.5596C62.1807 89.9006 62.7491 90.1848 63.0901 90.469C63.4311 90.7531 63.6585 91.0942 63.829 91.492C63.9995 91.8899 63.9995 92.3446 63.8858 92.8562C63.7722 93.3109 63.6017 93.7087 63.2606 94.1066C62.9196 94.4476 62.5217 94.675 62.0102 94.7887C61.4986 94.9023 60.8734 94.9023 60.1914 94.7318C59.1683 94.5045 58.4294 94.1634 57.9747 93.5382C57.4063 92.7993 57.2358 92.0604 57.2926 91.0942ZM69.2855 95.6412L69.9107 88.7638L67.4666 88.5365L67.5803 87.1155L74.1735 87.6839L74.0599 89.1048L71.6158 88.8775L70.9906 95.7549L69.2855 95.6412ZM86.3369 94.2771C86.7916 94.5613 87.2463 94.7318 87.7578 94.8455L87.2463 96.0959C86.9621 96.0391 86.7347 95.9822 86.5074 95.8686C86.4505 95.8686 86.0527 95.6412 85.3138 95.2434C84.8023 95.5275 84.177 95.6981 83.5518 95.7549C82.3014 95.8686 81.2783 95.5844 80.4826 94.9023C79.6868 94.2203 79.2321 93.1972 79.1184 91.8331C79.0048 90.469 79.289 89.389 79.9142 88.5933C80.5962 87.7976 81.5056 87.3429 82.7561 87.2292C84.0065 87.1155 84.9728 87.3997 85.7685 88.0818C86.5642 88.7638 87.0189 89.7869 87.1326 91.151C87.1894 91.8899 87.1326 92.5151 87.0189 93.0835C86.8484 93.4245 86.6211 93.8792 86.3369 94.2771ZM84.9159 93.4814C85.0864 93.1972 85.257 92.913 85.3138 92.5151C85.3706 92.1741 85.4275 91.7194 85.3706 91.2647C85.3138 90.2984 85.0296 89.6164 84.5749 89.1617C84.1202 88.707 83.5518 88.5365 82.8698 88.5933C82.1877 88.6501 81.6762 88.9343 81.2783 89.4459C80.8804 89.9574 80.7667 90.6963 80.8236 91.6626C80.9373 92.6288 81.1646 93.3109 81.6762 93.7656C82.1309 94.2203 82.6992 94.3908 83.3245 94.3339C83.5518 94.3339 83.7792 94.2771 84.0065 94.1634C83.6655 93.9929 83.2676 93.8224 82.9266 93.7087L83.3245 92.7425C83.836 92.913 84.4044 93.1403 84.9159 93.4814ZM89.5766 86.4335L91.2249 86.0356L92.248 90.4121C92.4185 91.0942 92.5322 91.5489 92.5891 91.7194C92.7596 92.0604 92.9869 92.2878 93.2711 92.4015C93.5553 92.5151 93.9532 92.572 94.4079 92.4583C94.8626 92.3446 95.2036 92.1741 95.3741 91.9467C95.5446 91.7194 95.6583 91.4352 95.6583 91.151C95.6583 90.8668 95.5446 90.4121 95.431 89.7869L94.4079 85.2967L96.0562 84.8988L97.0224 89.1617C97.2498 90.1279 97.3635 90.81 97.3635 91.2647C97.3635 91.6626 97.3066 92.0604 97.1361 92.4015C96.9656 92.7425 96.6814 93.0267 96.3404 93.3109C95.9993 93.5382 95.4878 93.7656 94.8626 93.9361C94.0668 94.1066 93.4985 94.1634 93.0438 94.0498C92.5891 93.9929 92.248 93.8224 91.9638 93.595C91.6797 93.3677 91.4523 93.0835 91.2818 92.7993C91.0544 92.3446 90.8839 91.6626 90.6566 90.81L89.5766 86.4335ZM109.186 89.1617L107.481 89.8437L106.117 88.3659L103.047 89.6164L103.104 91.6057L101.456 92.2878L101.342 83.3642L102.99 82.6821L109.186 89.1617ZM105.093 87.286L102.877 84.842L102.99 88.1386L105.093 87.286ZM112.539 87.6839L117.768 85.0125L117.143 83.7621L113.449 85.6377L110.323 79.556L108.845 80.2949L112.539 87.6839ZM120.951 83.0232L116.461 76.0889L117.882 75.1795L122.429 82.1706L120.951 83.0232ZM127.488 78.533L128.795 77.453L124.475 72.1103L126.408 70.5756L125.555 69.4957L120.44 73.6449L121.292 74.7248L123.225 73.1902L127.488 78.533ZM134.99 71.9966L132.546 69.4957L127.033 68.1316L128.454 66.7675L132.148 67.7906L131.239 64.0961L132.603 62.7888L133.74 68.359L136.127 70.8598L134.99 71.9966Z" fill="#B8B8B6"/>
<path d="M75.1976 4.98439C75.1976 5.04123 75.1976 5.04123 75.1408 5.09807L75.1976 4.98439ZM80.9383 3.22241C80.8814 3.10874 80.9383 2.99506 80.9383 2.99506C80.7677 2.5972 80.5972 2.25617 80.4267 2.08565C80.3699 2.02882 80.313 2.02882 80.313 2.02882C80.2562 2.02882 80.2562 2.02882 80.1994 1.97198C79.8015 1.8583 79.5741 1.80146 79.4036 1.80146H79.0058C79.0058 1.8583 78.8921 1.91514 78.6079 1.91514V1.80146C78.1532 1.91514 77.7553 1.97198 77.528 1.97198C77.4711 2.02882 77.4143 2.08565 77.3575 2.14249C77.3575 2.19933 77.3006 2.19933 77.2438 2.25617V2.36984C77.3006 2.36984 77.4143 2.42668 77.6417 2.54036H77.6985C77.7553 2.5972 77.7553 2.5972 77.8122 2.5972C77.869 2.76771 77.9827 2.82455 78.0395 2.71087V2.54036C77.9827 2.48352 77.9258 2.48352 77.869 2.48352L78.0395 2.36984C78.0964 2.36984 78.21 2.36984 78.2669 2.42668C78.3805 2.48352 78.4374 2.48352 78.4942 2.48352V2.54036C78.7784 2.71087 79.0058 2.88139 79.1194 3.0519V3.44977L78.8353 4.13182C78.6647 4.18866 78.6079 4.2455 78.5511 4.30234C78.3237 4.58653 78.0395 4.7002 77.6985 4.7002L77.528 4.81388V4.92756H77.1301C76.9596 5.04123 76.8459 5.04123 76.7322 5.04123V5.15491C76.2775 5.15491 75.9933 5.15491 75.8797 5.21175V4.98439C75.8228 5.04123 75.766 5.04123 75.766 5.04123C75.766 5.04123 75.766 5.09807 75.7092 5.09807H75.5955V5.04123C75.5386 5.04123 75.4818 5.04123 75.4818 5.09807C75.425 5.09807 75.425 5.09807 75.3681 5.04123L75.425 4.98439H75.3681C75.3113 4.98439 75.3113 4.98439 75.3113 5.04123C75.1408 4.98439 75.0271 4.98439 74.9703 4.98439C75.0271 5.04123 75.0271 5.04123 75.0839 5.04123V5.09807H74.9134V5.04123C74.8566 5.04123 74.8566 5.04123 74.7998 4.98439C74.7429 4.98439 74.7429 4.92756 74.6861 4.92756V4.98439L74.1745 4.87072V4.81388C73.9472 4.75704 73.663 4.7002 73.4356 4.52969H73.2651L73.0378 4.41601C73.0378 4.35918 73.0946 4.18866 73.2083 3.90447H73.2651L73.4356 3.44977L73.7198 3.10874C73.7767 2.88139 73.8903 2.76771 74.0609 2.71087C74.0609 2.5972 74.2314 2.31301 74.6292 1.97198C74.6861 1.97198 74.6861 1.97198 74.7429 2.02882C74.9134 1.74462 75.0271 1.63095 75.1408 1.63095C75.2545 1.51727 75.425 1.46043 75.6523 1.46043V1.4036C75.9365 1.34676 76.1639 1.23308 76.4481 1.11941V0.948892L76.5617 0.892054C76.6186 0.948892 76.6186 1.00573 76.6186 1.06257H76.7322C76.7322 1.00573 76.7891 0.948892 76.9028 0.948892H76.7322V0.892054L76.7891 0.835216V0.948892L77.0164 0.835216C77.2438 0.778378 77.4143 0.72154 77.4143 0.664702C76.6186 0.664702 76.2207 0.778378 76.2207 0.835216C76.1639 0.892054 76.107 0.892054 76.0502 0.892054C75.9934 0.892054 75.9365 0.892054 75.9365 0.948892C75.8797 0.892054 75.8228 0.892054 75.7092 0.892054L75.5955 0.664702C75.5386 0.607863 75.4818 0.607863 75.425 0.607863V0.551025L74.5724 0.72154L74.5156 0.778378C74.4587 0.835216 74.4019 0.835216 74.345 0.835216C74.2882 0.835216 74.2882 0.835216 74.2314 0.892054C73.8335 0.948892 73.6061 1.00573 73.5493 1.06257C73.322 1.11941 73.2083 1.17624 73.2651 1.17624C73.0946 1.23308 72.9809 1.28992 72.9241 1.34676C72.7536 1.4036 72.6399 1.51727 72.5262 1.57411L72.1852 1.68779C72.1284 1.80146 72.0147 1.80146 71.8442 1.80146C71.7873 1.8583 71.7873 1.8583 71.7873 1.97198C71.6168 2.02882 71.5031 2.08565 71.5031 2.14249C71.219 2.31301 70.9916 2.54036 70.8779 2.71087C70.7074 2.76771 70.6506 2.88139 70.5937 2.99506L70.1959 2.82455C70.0822 2.71087 70.0254 2.65403 69.9685 2.65403C69.9117 2.54036 69.7412 2.36984 69.2865 2.14249C69.1728 2.08565 69.0591 2.02882 68.9454 1.97198C68.8318 1.91514 68.7749 1.91514 68.7749 1.97198C68.7181 1.91514 68.6612 1.8583 68.6612 1.8583L68.2634 1.68779C67.9223 1.63095 67.8087 1.57411 67.8087 1.51727C67.695 1.46043 67.5813 1.46043 67.5245 1.46043C67.4676 1.46043 67.354 1.46043 67.2971 1.46043C66.7856 1.34676 66.5014 1.28992 66.4446 1.28992L64.6257 1.11941V1.17624L63.7163 1.28992L63.5458 1.4036C63.0343 1.46043 62.6932 1.51727 62.5796 1.57411L61.6702 1.80146C61.6133 1.8583 61.5565 1.8583 61.4996 1.8583V1.91514H61.2723C61.1018 2.02882 60.9881 2.08565 60.8744 2.08565V2.14249C60.5902 2.19933 60.306 2.36984 59.9082 2.71087C59.7377 2.76771 59.624 2.82455 59.624 2.88139C59.3398 2.93822 59.1124 3.10874 59.1124 3.33609H58.9988C58.9988 3.39293 58.9988 3.44977 58.9419 3.44977C58.7146 3.56344 58.5441 3.67712 58.5441 3.84763C58.4872 3.90447 58.4872 3.90447 58.4304 3.90447C58.3167 3.90447 58.2599 3.90447 58.2599 3.84763V4.18866C57.9188 4.35918 57.8052 4.47285 57.9188 4.47285L57.9757 4.7002L57.7483 4.98439C57.6915 5.38226 57.6347 5.55278 57.5778 5.55278L57.7483 4.7002C57.6915 4.81388 57.6347 4.92756 57.6347 4.92756C57.4073 5.04123 57.4073 5.21175 57.4073 5.4391C57.3505 5.49594 57.3505 5.49594 57.2936 5.49594V5.8938H57.4073C57.4073 5.78013 57.4073 5.72329 57.4641 5.60961C57.4641 5.55277 57.4641 5.55278 57.521 5.55278V5.8938C57.4641 6.06432 57.4073 6.23483 57.4073 6.29167H57.3505C57.2936 6.23483 57.2936 6.17799 57.2936 6.12116H57.2368L57.3505 6.6327L57.4641 7.76946L57.6915 8.05365L57.7483 7.99681C57.7483 7.99681 57.7483 8.05365 57.8052 8.11049H57.862L57.9188 8.39468H57.9757C57.9757 8.50835 58.0325 8.56519 58.0894 8.56519C58.203 8.79255 58.3167 8.96306 58.4872 9.0199L58.8283 9.53144C58.9988 9.58828 59.1693 9.70195 59.3398 9.81563C59.3966 9.92931 59.5103 9.98614 59.7377 9.98614V10.043C59.7377 10.0998 59.965 10.1567 60.4197 10.2703V10.2135C60.5902 10.2703 60.7039 10.2703 60.8176 10.2703C60.9313 10.2703 61.0449 10.2703 61.1586 10.2703C61.1586 10.2135 61.2723 10.2135 61.5565 10.2135L61.6133 10.3272L61.727 10.2135H61.9543C61.9543 10.1567 62.0112 10.1567 62.0112 10.0998C62.1817 10.0998 62.2954 10.043 62.3522 10.043C62.409 10.043 62.409 10.043 62.3522 10.043V9.98614C62.409 9.92931 62.5227 9.92931 62.5796 9.92931V9.81563C62.6364 9.81563 62.6932 9.75879 62.7501 9.70195L63.1479 9.58828C63.2616 9.4746 63.3185 9.41776 63.3753 9.41776V9.30409C63.5458 9.19041 63.7163 9.0199 63.83 8.84938C64.0005 8.73571 64.0574 8.62203 64.1142 8.50835L64.2279 8.33784H64.3415V8.281L64.4552 8.16733V8.11049H64.5121C64.5121 8.16733 64.5121 8.16733 64.5121 8.11049C64.5121 8.05365 64.5121 7.93997 64.5689 7.8263C64.6257 7.8263 64.6257 7.8263 64.6826 7.88314C64.7394 7.76946 64.7394 7.65578 64.7394 7.54211H64.7962C64.7962 7.59895 64.7962 7.65578 64.8531 7.65578V7.37159C64.9668 7.31475 65.0236 7.20108 65.0236 7.03056L64.9668 6.97373C64.9099 6.80321 64.9099 6.6327 64.9668 6.57586L64.7962 5.83697C64.7394 5.72329 64.6826 5.66645 64.6257 5.66645V5.78013L64.0005 5.4391C63.7163 5.4391 63.4321 5.4391 63.2048 5.4391C62.9774 5.4391 62.7501 5.4391 62.5796 5.49594C62.5796 5.55277 62.5227 5.55277 62.5227 5.60961C62.5796 5.60961 62.6364 5.66645 62.8069 5.66645C62.8638 5.60961 62.9774 5.60961 63.0911 5.60961C63.2048 5.72329 62.9774 5.95064 62.4659 6.23483C62.4091 6.34851 62.3522 6.46218 62.3522 6.51902C62.3522 6.57586 62.3522 6.6327 62.4091 6.6327C62.4659 7.31475 62.4659 7.65578 62.4091 7.76946C62.2954 7.93997 62.2385 8.05365 62.1249 8.22416C62.068 8.39468 61.9543 8.45152 61.8975 8.50835L61.727 8.62203L61.6133 8.79255C61.4996 8.84938 61.386 8.90622 61.3291 9.0199C61.1586 9.07673 61.0449 9.07674 60.9881 9.13357C60.7039 9.13357 60.5334 9.13357 60.5334 9.19041H60.1355C60.0787 9.19041 60.0787 9.19041 60.0787 9.13357C59.5103 9.07674 59.1693 8.96306 59.1124 8.79255C58.9419 8.67887 58.7714 8.45152 58.6009 8.22416C58.5441 8.22416 58.5441 8.22416 58.5441 8.16733C58.4872 7.99681 58.4304 7.8263 58.4304 7.76946L58.1462 7.0874L58.2599 6.23483C58.3167 6.12116 58.3167 6.00748 58.3167 5.83697C58.3167 5.72329 58.3735 5.60961 58.4304 5.4391H58.6009V5.60961L58.6577 5.55278C58.5441 5.55278 58.5441 5.49594 58.5441 5.38226L58.6577 5.49594V5.26858C58.8283 5.09807 58.9988 4.98439 59.1124 4.92756C59.1124 4.87072 59.2261 4.75704 59.3966 4.58653L59.624 4.41601V4.35918C60.0787 4.18866 60.306 4.07499 60.1924 4.07499V4.01815C60.5334 3.90447 60.7039 3.7908 60.7607 3.62028C61.727 3.33609 62.2954 3.16558 62.5227 3.16558C62.5796 3.16558 62.5796 3.16558 62.6364 3.22241H63.1479C63.1479 3.27925 63.1479 3.27925 63.2048 3.27925H63.6027C63.83 3.33609 64.0005 3.39293 64.0005 3.39293C64.2279 3.5066 64.3984 3.56344 64.5689 3.56344C64.5689 3.56344 64.5689 3.62028 64.6257 3.62028C64.6826 3.62028 64.7962 3.67712 64.9099 3.7908C65.0804 3.84763 65.3078 3.96131 65.6488 4.07499C65.8762 4.2455 65.9898 4.35918 66.0467 4.35918C66.0467 4.52969 66.0467 4.64337 66.1035 4.7002V4.58653L66.1604 4.52969C66.2172 4.58653 66.274 4.58653 66.3309 4.58653C66.3877 4.58653 66.4446 4.58653 66.4446 4.64337C66.5582 4.75704 66.6719 4.81388 66.7856 4.81388C66.8424 4.98439 66.9561 5.09807 67.1266 5.15491L67.1834 5.21175V5.26858H67.2971L67.9223 5.78013L68.0929 5.95064C68.0929 6.06432 68.036 6.12116 67.9792 6.17799C67.9223 6.51902 67.8655 6.6327 67.8087 6.6327C67.7518 6.68954 67.7518 6.74637 67.7518 6.80321C67.7518 6.86005 67.7518 6.86005 67.695 6.91689C67.4676 7.42843 67.1834 7.93997 66.8424 8.33784L66.5582 9.13357L65.8193 10.2135C65.8193 10.4977 65.7057 10.7819 65.592 10.8956C65.3078 11.2934 65.1373 11.5776 65.1373 11.6913L64.5689 12.6575V12.828C64.5689 12.8849 64.5121 12.8849 64.4552 12.8849C64.3984 12.9417 64.3984 12.9986 64.3984 13.0554C64.3984 13.1122 64.3984 13.1691 64.3415 13.1691C64.3415 13.2828 64.2847 13.3964 64.171 13.5669C64.1142 13.7375 64.0005 13.908 63.83 14.1353L63.7163 14.3627C63.5458 14.59 63.4321 14.7605 63.4321 14.8742C63.2616 15.0447 63.1479 15.2152 63.0911 15.4426L62.4091 16.1247C62.4091 16.2383 62.2954 16.352 62.1249 16.5225C61.9543 16.693 61.8407 16.8636 61.8975 16.9772C61.727 17.0341 61.6702 17.0909 61.6133 17.1477C61.2723 17.3183 61.1586 17.4888 61.1586 17.6024L60.6471 18.0571C60.5334 18.114 60.4197 18.1708 60.4197 18.2845C60.0787 18.455 59.7945 18.6824 59.5671 18.9666C59.0556 19.0234 58.8283 19.1371 58.8283 19.3644C58.7714 19.3076 58.7714 19.3076 58.7146 19.3076C58.6577 19.3076 58.6577 19.3076 58.5441 19.4213C58.3735 19.4781 58.203 19.4781 57.9757 19.4781L57.5778 19.3076H57.4073C57.1799 19.0802 57.0663 18.9097 56.9526 18.796C56.8389 18.6824 56.7252 18.5119 56.6684 18.2845C56.5547 18.1708 56.4411 18.0571 56.4411 17.9435H56.4979V18.0003C56.6116 18.0003 56.6684 18.0003 56.6684 17.9435H56.6116C56.6116 17.773 56.6116 17.6593 56.6684 17.6024L56.5547 17.4888C56.6116 17.4319 56.6684 17.3183 56.7252 17.1477C56.8389 16.9204 56.8958 16.8067 56.9526 16.693C57.3505 16.1815 57.7483 15.9541 58.203 15.9541L58.2599 16.011H58.6009L58.7714 15.7836C58.7714 15.7836 58.7146 15.7268 58.6577 15.7268C58.6009 15.7268 58.5441 15.67 58.5441 15.67C58.2599 15.6131 58.0894 15.5563 58.1462 15.5563V15.4994L57.862 15.3289C57.8052 15.3289 57.6915 15.2721 57.4641 15.2721C57.2368 15.2152 57.0663 15.2152 57.0094 15.3858C56.6116 15.6131 56.3842 15.7836 56.3274 15.8405L55.9295 16.2383C55.8158 16.5225 55.7022 16.693 55.5885 16.8067V17.0341L55.418 17.0909C55.418 17.0909 55.418 17.2614 55.4748 17.4319C55.5316 17.6593 55.5316 17.8866 55.5885 18.2277C55.6453 18.455 55.7022 18.6255 55.7022 18.6255H55.759C55.8158 18.7392 55.8158 18.8529 55.8158 18.9666C55.8727 18.9666 55.8727 18.9666 55.9295 18.9097L55.9863 18.9666L56.6684 19.6486C56.8958 19.6486 57.0094 19.7055 57.0663 19.7623H57.1799V19.876L58.1462 20.2738C58.5441 20.4443 59.0556 20.6149 59.624 20.6717C59.624 20.7854 59.624 20.8991 59.6808 20.8991H59.7377C59.7377 20.8422 59.6808 20.7854 59.6808 20.7285C59.7377 20.6717 59.7945 20.6717 59.8513 20.6717C59.8513 20.7285 59.965 20.7854 60.1355 20.7854L60.0219 20.8991H60.306L60.2492 20.8422L60.1355 20.7854V20.6717C60.306 20.6717 60.4197 20.6717 60.4766 20.6149C60.8176 20.558 61.0449 20.5012 61.1586 20.4443L61.2154 20.5012L61.9543 20.2738V20.217C62.0112 20.217 62.068 20.1602 62.1249 20.1602V20.1033C62.1817 20.1033 62.2385 20.0465 62.2954 19.9896C62.2954 19.9896 62.3522 19.9328 62.4091 19.876C62.8069 19.7623 62.9774 19.7055 62.9774 19.5918H63.0911V19.5349L63.6027 19.1939L63.8868 19.0234H63.9437L63.7732 19.3076H63.6595C63.6026 19.3644 63.6027 19.4213 63.6027 19.4213C63.6027 19.4781 63.6027 19.4781 63.5458 19.5349H63.7163C63.7732 19.4213 63.83 19.3076 63.9437 19.2507V18.9097C63.9437 18.9666 64.0005 18.9666 64.0574 18.9666C64.0005 19.0234 64.0005 19.0234 64.0574 19.0234C64.0574 19.0234 64.0574 18.9666 64.0574 18.9097H64.1142C64.1142 18.796 64.2279 18.7392 64.4552 18.7392C64.4552 18.6824 64.4552 18.6255 64.5121 18.6255H64.6257C64.6257 18.5687 64.6826 18.5687 64.7962 18.455C64.9668 18.2845 65.0804 18.114 65.1373 18.0571H65.251C65.251 17.8866 65.3078 17.773 65.3646 17.7161C65.3646 17.6593 65.3646 17.6024 65.4215 17.5456C65.7625 17.3183 65.8762 17.1477 65.8762 16.9772H65.933V16.8067C65.9898 16.8067 65.9898 16.8067 66.0467 16.7499L66.1035 16.5794C66.1604 16.5794 66.1604 16.5794 66.2172 16.5225V16.4088L66.3877 16.2952V16.1815L66.6151 16.011L66.5582 15.8973H66.6151C66.6151 15.8405 66.6151 15.7836 66.6719 15.7836L66.7287 15.8405L66.8424 15.6131V15.4994C66.9561 15.4426 66.9561 15.3858 66.9561 15.3289H67.0129C67.0129 15.1584 67.0698 15.0447 67.1834 14.9879C67.2971 14.7605 67.354 14.6469 67.4108 14.59H67.4676L67.6382 14.1922H67.695L67.9223 13.7943H67.9792C67.9223 13.7375 67.9223 13.7375 67.9223 13.6806C67.9223 13.6238 67.9223 13.6238 67.8655 13.5669H67.9223V13.6806C68.036 13.7375 68.0929 13.6238 68.2065 13.3396C68.3202 13.0554 68.3202 12.8849 68.3202 12.7712H68.377C68.377 12.828 68.377 12.828 68.4339 12.8849C68.4907 12.828 68.5476 12.7712 68.5476 12.6575C68.7181 12.487 68.8318 12.3165 68.9454 12.0892H69.0023C69.0023 11.9755 69.0023 11.8618 69.0591 11.8618C69.457 11.3503 69.6843 10.9524 69.7412 10.6682H69.798C69.8548 10.5545 69.8548 10.4977 69.9117 10.4977V10.384C69.9685 10.3272 70.0253 10.2135 70.0253 10.0998H70.139C70.139 9.92931 70.1959 9.81563 70.3095 9.75879L70.4801 9.36093C70.5369 9.30409 70.5937 9.24725 70.5937 9.24725V9.19041C70.7642 8.67887 70.8779 8.45152 70.9916 8.39468L71.3326 7.76946H71.5031V7.8263C71.5031 7.88314 71.6168 7.93997 71.901 7.93997C71.9578 7.99681 71.9578 8.05365 72.0147 8.05365C72.0715 8.05365 72.0715 8.05365 72.0715 8.11049V8.05365C72.242 8.05365 72.2989 8.05365 72.3557 8.11049V8.05365C72.4694 8.11049 72.7536 8.11049 73.2083 8.05365V7.99681C73.5493 7.99681 73.7767 7.99681 73.8903 8.05365H74.6861V8.11049H74.8566V8.05365C75.0839 7.99681 75.1976 7.93997 75.1976 7.93997H75.3113L75.8797 7.88314L76.5049 7.65578V7.59895L77.2438 7.20108H77.4143V7.14424L78.2669 6.6327V6.57586C78.3237 6.51902 78.3805 6.51902 78.3805 6.51902C78.3805 6.51902 78.4374 6.46218 78.5511 6.46218C78.7784 6.17799 78.9489 6.00748 79.1763 6.00748V5.8938C79.2331 5.8938 79.2331 5.83697 79.3468 5.83697C79.7447 5.4391 79.972 5.21175 80.0289 5.15491C80.1425 4.75704 80.3699 4.47285 80.6541 4.30234V4.13182C80.7677 4.01815 80.7677 3.90447 80.7677 3.84763H80.8246C80.7677 3.73396 80.8246 3.56344 80.9383 3.22241ZM63.4321 19.5918C63.3753 19.6486 63.3185 19.7055 63.2048 19.7623V19.876L63.0343 19.9896C63.0343 19.9328 63.0343 19.876 62.9774 19.876H62.9206C62.9206 19.8191 62.9774 19.7623 63.1479 19.7055V19.7623C63.2048 19.6486 63.2616 19.5349 63.3753 19.5349L63.4321 19.5918ZM79.8583 4.2455L79.6878 4.35918L79.631 4.52969C79.5173 4.52969 79.4036 4.64337 79.4036 4.81388H79.2331C79.2331 4.98439 79.2331 5.04123 79.1763 5.09807C79.1763 5.04123 79.1763 4.98439 79.1194 4.92756L79.0626 4.87072L79.0058 5.04123L79.1763 4.52969C79.2331 4.58653 79.2331 4.58653 79.29 4.58653C79.29 4.47285 79.4036 4.41601 79.5173 4.41601C79.5173 4.2455 79.631 4.2455 79.8583 4.2455ZM78.9489 5.04123C78.9489 5.09807 78.9489 5.15491 78.8921 5.15491L78.7784 5.04123C78.8921 5.04123 78.9489 5.04123 78.9489 5.04123ZM74.8566 1.23308H74.7429L74.5724 1.11941V1.06257H74.7998C74.8566 1.11941 74.8566 1.17624 74.8566 1.23308ZM79.0626 5.21175C79.0058 5.26858 79.0058 5.32542 78.9489 5.38226C78.8921 5.4391 78.8921 5.4391 78.7784 5.49594C78.7216 5.49594 78.7216 5.38226 78.7216 5.26858C78.8353 5.21175 78.9489 5.21175 79.0626 5.21175ZM74.5724 1.34676C74.7429 1.4036 74.6292 1.46043 74.2314 1.51727C74.1745 1.46043 74.1745 1.4036 74.0609 1.17624C74.1745 1.17624 74.2314 1.17624 74.345 1.11941H74.4587C74.4587 1.23308 74.4587 1.28992 74.5156 1.28992L74.5724 1.34676ZM77.6417 5.15491H77.528V5.04123H77.6417V5.15491ZM73.4925 1.57411H73.322L73.4356 1.46043H73.4925V1.57411ZM77.5848 6.12116C77.4143 6.23483 77.3006 6.29167 77.2438 6.40535H76.8459C76.8459 6.34851 76.8459 6.29167 76.9028 6.23483L77.5848 6.12116ZM73.1514 1.63095H73.322C73.2651 1.74462 73.2083 1.80146 73.0946 1.80146V1.97198H72.9241V2.08565L72.6399 2.19933L72.4694 2.31301C72.2989 2.42668 72.242 2.48352 72.1852 2.48352V2.5972C72.242 2.5972 72.242 2.5972 72.2989 2.65403C72.242 2.71087 72.242 2.71087 72.242 2.76771H72.0147V2.93822C72.0715 2.93822 71.901 2.99506 71.6168 3.10874C71.56 3.0519 71.56 3.0519 71.56 2.93822L72.1284 2.5972C72.0715 2.54036 72.0715 2.48352 72.0715 2.31301L72.1852 2.42668C72.242 2.25617 72.2989 2.14249 72.2989 2.14249C72.3557 2.14249 72.4126 2.14249 72.4126 2.19933C72.4126 2.14249 72.4125 2.08565 72.4694 2.02882L72.6399 2.19933L73.0946 1.80146L73.1514 1.63095ZM75.8797 5.60961L75.7092 5.78013L75.5955 5.55278C75.766 5.55278 75.8228 5.55277 75.8797 5.60961ZM72.5262 2.42668L72.4126 2.54036V2.36984C72.4694 2.42668 72.4694 2.42668 72.5262 2.42668ZM76.107 6.34851L75.9933 6.29167C76.0502 6.29167 76.0502 6.29167 76.107 6.23483V6.34851ZM76.107 6.86005C76.107 6.80321 76.107 6.80321 76.107 6.86005V6.86005ZM76.1639 7.0874H76.3344C76.2775 7.14424 76.2775 7.14424 76.2775 7.25792H76.107C76.0502 7.25792 76.107 7.20108 76.1639 7.0874ZM72.7536 3.7908C72.6967 3.73396 72.6967 3.67712 72.7536 3.62028V3.7908ZM75.766 6.86005H75.5955C75.5386 6.80321 75.5386 6.80321 75.5386 6.74637L75.5955 6.80321L75.766 6.86005ZM72.4126 3.16558V3.39293C72.3557 3.39293 72.3557 3.44977 72.242 3.5066C72.1852 3.56344 72.0715 3.67712 71.9578 3.84763C71.9578 3.5066 72.0715 3.33609 72.2989 3.33609L72.4126 3.16558ZM72.5831 3.84763V4.01815C72.5262 4.01815 72.5262 4.01815 72.4694 4.07499V4.13182H72.4126V3.96131C72.5262 3.90447 72.5262 3.84763 72.5831 3.84763ZM74.7429 6.17799C74.7429 6.17799 74.6292 6.23483 74.4019 6.29167C74.2882 6.17799 74.2314 6.06432 74.2882 6.00748C74.2882 6.06432 74.4019 6.06432 74.6292 6.12116C74.6861 6.12116 74.7429 6.12116 74.7429 6.17799ZM75.9933 7.31475L75.3113 7.48527H75.2544C75.3113 7.48527 75.425 7.42843 75.5955 7.25792L75.6523 7.20108C75.7092 7.14424 75.8228 7.20108 75.9933 7.31475ZM69.1728 2.65403L69.0591 2.76771C68.8318 2.76771 68.4907 2.65403 68.1497 2.36984L67.9792 2.25617H67.8655L67.7518 2.08565H67.9223C68.1497 2.25617 68.4907 2.36984 68.8318 2.48352C68.8886 2.5972 69.0023 2.65403 69.1728 2.65403ZM75.1408 7.37159V7.54211C73.9472 7.59895 73.3788 7.65578 73.3788 7.65578C73.1514 7.65578 72.8673 7.65578 72.4126 7.59895C72.0147 7.54211 71.6737 7.54211 71.5031 7.54211C71.4463 7.54211 71.4463 7.48527 71.3895 7.31475C71.3326 7.37159 71.5031 7.37159 71.8442 7.42843C72.1852 7.48527 72.5262 7.48527 72.7536 7.54211H73.1514C73.322 7.48527 73.4356 7.48527 73.5493 7.48527C73.663 7.48527 73.7767 7.48527 73.8903 7.48527H75.1408V7.37159ZM71.5031 5.66645C71.56 5.78013 71.56 5.83697 71.5031 5.83697V5.66645ZM68.6612 2.88139H68.7749C68.7181 2.93822 68.6612 2.93822 68.6612 2.88139ZM71.1621 5.60961C71.1053 5.55277 71.0484 5.55278 70.9916 5.55278V5.66645H70.8779C70.8211 5.60961 70.8211 5.55277 70.8211 5.49594H70.9348C70.9916 5.49594 70.9916 5.49594 70.9916 5.55278C71.0484 5.55278 71.0484 5.55277 71.1053 5.49594C71.1053 5.55277 71.1621 5.60961 71.1621 5.60961ZM69.5706 3.96131C69.6275 4.07499 69.5706 4.13182 69.457 4.13182V3.96131L69.2865 3.7908L68.5476 3.5066V3.44977C68.2634 3.44977 68.1497 3.33609 68.1497 3.0519H68.2634V3.10874C68.8886 3.33609 69.3433 3.62028 69.6275 3.7908L69.5706 3.96131ZM69.3433 4.2455V4.41601C69.2865 4.41601 69.2865 4.41601 69.2865 4.47285C69.2296 4.41601 69.1728 4.35918 69.1728 4.30234H69.3433V4.2455ZM69.1728 4.64337H69.0023L68.5476 4.41601V4.35918C68.4339 4.30234 68.3202 4.2455 68.2065 4.18866C68.0929 4.13182 67.9223 4.07499 67.695 4.01815C67.5245 3.7908 67.2971 3.67712 67.1266 3.67712V3.56344C67.1834 3.56344 67.2971 3.56344 67.354 3.62028V3.67712C67.695 3.67712 68.036 3.7908 68.3202 4.01815L68.8318 4.2455L69.1159 4.52969C69.1728 4.58653 69.1728 4.64337 69.1728 4.64337ZM70.8211 6.91689H70.9348C70.9916 6.97373 70.9348 7.03056 70.8779 7.25792H70.8211L70.7074 7.0874C70.7642 6.97373 70.8211 6.91689 70.8211 6.91689ZM70.9348 7.93997L70.8779 7.8263C70.8779 7.88314 70.9348 7.88314 70.9348 7.93997ZM66.6151 1.63095V1.74462C66.5582 1.80146 66.5582 1.80146 66.5014 1.80146V2.02882C66.4446 2.08565 66.3877 2.02882 66.3309 1.97198C66.274 1.97198 66.1035 1.91514 65.7625 1.8583C65.7057 1.80146 65.7057 1.80146 65.592 1.80146C65.5351 1.80146 65.4783 1.80146 65.4783 1.8583C65.1373 1.8583 64.9099 1.8583 64.7962 1.91514C64.8531 1.8583 64.7963 1.80146 64.7394 1.68779C64.6826 1.74462 64.6826 1.80146 64.6826 1.91514H64.5121V1.80146H64.3984V1.91514H64.2847C64.2279 1.97198 64.1142 1.91514 63.9437 1.8583C63.8868 1.91514 63.7163 1.91514 63.4321 1.91514L63.2616 2.08565L63.1479 1.97198C63.0911 2.02882 63.0343 2.08565 63.0343 2.08565V2.02882C62.9774 2.02882 62.9206 2.02882 62.8638 2.08565V2.14249C62.6932 2.08565 62.5796 2.08565 62.4659 2.14249L62.2954 1.97198V1.91514C62.5227 1.91514 62.7501 1.8583 63.0343 1.74462L63.489 1.63095V1.74462C63.489 1.63095 63.7163 1.57411 64.1142 1.57411C64.171 1.57411 64.2279 1.57411 64.2279 1.63095C64.2847 1.57411 64.3984 1.51727 64.6257 1.51727C64.8531 1.51727 65.0236 1.51727 65.0236 1.57411H66.0467C66.2172 1.63095 66.3309 1.63095 66.6151 1.63095ZM66.5582 2.88139H66.3309C66.274 2.82455 66.2172 2.82455 66.1604 2.82455C65.933 2.65403 65.8193 2.5972 65.7625 2.65403V2.5972C65.7057 2.5972 65.7057 2.65403 65.7057 2.76771C65.6488 2.76771 65.592 2.76771 65.592 2.71087V2.48352C65.4783 2.48352 65.4215 2.48352 65.4215 2.54036C65.3646 2.48352 65.3078 2.48352 65.1941 2.48352V2.65403H65.1373C65.0804 2.5972 65.0804 2.5972 65.0804 2.54036H64.7962C64.7962 2.48352 64.7962 2.42668 64.8531 2.42668C64.4552 2.36984 64.2279 2.36984 64.0574 2.42668C64.0005 2.36984 63.9437 2.31301 63.8868 2.31301C63.8868 2.19933 63.9437 2.14249 64.0574 2.14249C64.171 2.19933 64.2847 2.19933 64.3415 2.14249C64.3984 2.14249 64.3984 2.14249 64.4552 2.19933C64.7963 2.19933 64.9099 2.25617 64.9099 2.31301L65.3646 2.19933L66.2172 2.54036V2.65403L66.5582 2.88139ZM69.0591 6.74637C69.1159 6.86005 69.0591 6.91689 69.0023 6.97373L68.9454 6.91689L69.0591 6.74637ZM69.5138 7.03056C69.457 7.0874 69.4001 7.14424 69.3433 7.37159C69.3433 7.37159 69.2865 7.42843 69.2296 7.48527H69.1728C69.1728 7.48527 69.2296 7.37159 69.2865 7.20108C69.2865 7.14424 69.2865 7.14424 69.3433 7.14424V7.03056H69.5138ZM70.4801 7.54211L70.6506 7.71262C70.5937 7.8263 70.4801 8.05365 70.2527 8.33784V8.45152H70.1959C70.2527 8.50835 70.2527 8.56519 70.1959 8.62203C70.139 8.73571 70.0822 8.79255 70.0822 8.79255H69.9685L70.0253 8.96306H69.9117C69.9117 8.67887 70.0822 8.22416 70.4232 7.65578V7.54211H70.4801ZM69.2296 7.8263C69.2296 7.76946 69.2296 7.71262 69.2296 7.65578V7.8263ZM64.9099 3.22241H64.6826L64.5121 3.0519C64.4552 3.0519 64.4552 3.0519 64.4552 3.10874H64.2279V3.0519H64.0574C64.0574 2.99506 64.0005 2.99506 63.83 2.88139L63.7732 2.82455H63.6595H63.7732V2.88139C63.8868 2.88139 64.0574 2.88139 64.171 2.93822C64.2279 2.99506 64.3984 3.0519 64.7394 3.10874C64.7963 3.10874 64.7962 3.10874 64.8531 3.16558V3.22241H64.9099ZM68.6612 7.59895C68.6044 7.65578 68.5476 7.71262 68.4907 7.76946C68.4339 7.8263 68.4339 7.88314 68.377 7.88314C68.377 7.71262 68.377 7.65578 68.4339 7.59895H68.4907V7.48527C68.5476 7.54211 68.6044 7.59895 68.6612 7.59895ZM69.7412 8.84938V9.0199C69.6843 9.07673 69.6275 9.19041 69.6275 9.30409H69.5138C69.5706 9.07673 69.6275 8.90622 69.7412 8.84938ZM69.4001 8.67887V8.90622C69.3433 8.90622 69.2865 8.96306 69.2865 9.07674C69.2296 9.0199 69.2296 8.96306 69.2296 8.90622L69.4001 8.67887ZM69.6843 9.36093V9.53144C69.6275 9.53144 69.6275 9.53144 69.5706 9.58828C69.6275 9.4746 69.6275 9.41776 69.6843 9.36093ZM62.2954 2.08565C62.2385 2.02882 62.2385 2.02882 62.2954 2.08565V2.08565ZM68.3202 8.11049C68.2065 8.11049 68.2065 8.22416 68.2065 8.39468C68.1497 8.45152 68.1497 8.45152 68.0929 8.45152C68.0929 8.39468 68.0929 8.33784 68.036 8.281C68.1497 7.93997 68.2065 7.8263 68.2065 7.8263C68.2634 7.88314 68.2634 7.88314 68.2634 7.93997C68.3202 7.93997 68.3202 7.99681 68.3202 8.11049ZM67.8087 8.11049H67.695C67.6382 8.05365 67.5813 7.99681 67.5813 7.93997C67.5813 7.88314 67.6382 7.76946 67.695 7.59895C67.7518 7.65578 67.7518 7.71262 67.7518 7.8263H67.695V7.93997H67.7518V8.11049H67.8087ZM68.036 8.67887C67.9792 8.56519 67.9792 8.45152 68.036 8.45152V8.67887ZM67.5813 8.05365L67.4108 8.22416V8.16733C67.4676 8.11049 67.5245 8.05365 67.5813 8.05365ZM67.8087 8.67887H67.9223C67.8655 8.73571 67.8087 8.90622 67.7518 9.07674C67.695 9.13357 67.6382 9.24725 67.5813 9.4746C67.5245 9.4746 67.4676 9.4746 67.4108 9.53144C67.4108 9.41776 67.5245 9.19041 67.7518 8.84938C67.8087 8.84938 67.8087 8.73571 67.8087 8.67887ZM61.8407 2.08565C61.8975 2.25617 61.7838 2.36984 61.5565 2.36984V2.48352H61.1586V2.5972C61.1018 2.5972 60.9881 2.65403 60.8744 2.65403V2.71087C60.7039 2.71087 60.5902 2.76771 60.4766 2.88139C60.4766 2.88139 60.3629 2.93822 60.1924 2.99506C60.1924 2.93822 60.1355 2.88139 60.1355 2.82455L60.4197 2.65403H60.5902L60.7039 2.54036H60.8176L61.4996 2.25617C61.4996 2.19933 61.6133 2.14249 61.8407 2.08565ZM67.5245 8.45152V8.56519C67.4676 8.62203 67.4108 8.67887 67.4108 8.79255H67.354C67.354 8.90622 67.2403 9.07674 67.0129 9.41776C66.9561 9.4746 66.9561 9.4746 66.9561 9.58828H66.8424C66.7856 9.53144 66.7856 9.53144 66.7856 9.41776C66.7287 9.4746 66.7287 9.4746 66.7287 9.58828H66.6719V9.41776H66.7287V9.24725C66.7856 9.0199 66.9561 8.79254 67.1266 8.62203C67.1834 8.45152 67.2403 8.39468 67.2971 8.39468L67.5245 8.45152ZM68.9454 10.4408C69.0023 10.4408 69.0023 10.4977 69.0023 10.5545C69.0023 10.6682 68.9454 10.7819 68.7749 10.9524C68.7749 11.0661 68.7181 11.1797 68.6612 11.3503C68.5476 11.5208 68.4907 11.6344 68.4907 11.7481H68.4339C68.377 11.805 68.377 11.8618 68.3202 12.0892L68.1497 12.2597H67.9792V12.146H68.0929C68.1497 12.0892 68.1497 12.0892 68.1497 11.9755H68.0929V12.0892H68.036L67.9792 11.9186H68.0929V11.9755C68.2065 11.8618 68.2634 11.805 68.3202 11.805C68.377 11.7481 68.377 11.6913 68.3202 11.5208L68.377 11.5776L68.4907 11.4639C68.4907 11.4071 68.4907 11.3503 68.4339 11.2934H68.4907V11.3503C68.5476 11.2366 68.6612 11.1229 68.7181 11.0661C68.7749 10.725 68.8886 10.5545 68.9454 10.4408ZM64.3415 6.51902C64.3415 6.6327 64.3415 6.74637 64.3415 6.86005C64.3415 6.97373 64.2847 7.0874 64.2847 7.25792C64.2279 7.25792 64.2279 7.31476 64.2279 7.42843C64.2279 7.54211 64.171 7.65578 64.0574 7.65578V7.76946L63.8868 7.93997C63.8868 7.88314 63.9437 7.76946 64.0574 7.54211C64.1142 7.54211 64.171 7.37159 64.2279 6.97373C64.2279 6.91689 64.2279 6.80321 64.2847 6.57586C64.2847 6.46218 64.2847 6.40535 64.3415 6.40535C64.2847 6.46218 64.3415 6.51902 64.3415 6.51902ZM63.7163 7.48527C63.6595 7.76946 63.6026 7.93997 63.4321 7.99681C63.3753 7.65578 63.489 7.42843 63.7163 7.31475V7.48527ZM63.489 6.17799L63.4321 6.29167H63.3753L63.2616 6.6327L63.2048 6.68954V6.74637H63.1479L63.0911 6.80321V6.97373L63.0343 7.03056V7.0874H62.9774V6.97373C62.9206 6.97373 62.9206 6.97373 62.9206 7.03056L62.8069 7.59895L62.7501 7.71262H62.6932V8.05365C62.6364 8.05365 62.6364 8.05365 62.6364 8.11049V8.33784L62.5227 8.50835L62.2954 8.62203V8.50835H62.3522C62.409 8.45152 62.4091 8.45152 62.4091 8.33784C62.5796 8.22416 62.6364 7.93997 62.6364 7.37159H62.6932V6.97373C62.6364 6.91689 62.6364 6.80321 62.6364 6.57586C62.6932 6.51902 62.7501 6.40535 62.7501 6.34851L62.9774 6.17799L63.0911 6.23483C63.2048 6.00748 63.2616 5.8938 63.2616 5.95064H63.4321C63.489 6.00748 63.5458 6.12116 63.489 6.17799ZM67.8087 11.4639C67.7518 11.5208 67.7518 11.5776 67.695 11.5776C67.6382 11.5776 67.6382 11.6344 67.5813 11.6344C67.5813 11.8618 67.5245 11.9755 67.4108 12.0323L67.2403 12.4302L66.9561 12.828V12.6575C67.0698 12.3165 67.2403 12.146 67.354 12.0323C67.4108 11.7481 67.5245 11.5208 67.8087 11.4639ZM67.8655 12.7712H67.7518C67.7518 12.6007 67.8087 12.487 67.8655 12.487V12.7712ZM68.8318 8.22416C68.8886 8.281 68.8318 8.45152 68.7181 8.79255V8.90622L68.6044 9.0199C68.5476 9.0199 68.5476 9.07674 68.6044 9.13357H68.5476C68.4907 9.19041 68.4339 9.24725 68.377 9.41776C68.3202 9.58828 68.2065 9.75879 68.036 10.043C68.0929 10.0998 68.0929 10.0998 68.0929 10.1567C67.9792 10.2135 67.9792 10.384 67.9792 10.5545C67.9792 10.5545 67.8655 10.6682 67.5813 10.9524V11.1229H67.5245V11.2934H67.4676L67.4108 11.2366C67.354 11.2366 67.354 11.3503 67.4108 11.4639C67.354 11.5776 67.2971 11.7481 67.1266 11.9186L67.0129 12.0892V12.2028C66.8993 12.3165 66.7856 12.5439 66.6151 12.8849H66.5014C66.4446 12.9417 66.4446 12.9986 66.4446 13.1122C66.274 13.3396 66.1604 13.5101 66.0467 13.7375C65.933 13.908 65.8193 14.0785 65.7625 14.249V14.3627H65.7057C65.6488 14.59 65.592 14.7037 65.4783 14.7605V14.8742H65.4215C65.3646 14.9879 65.3078 15.1016 65.1941 15.1016C65.1941 15.2152 65.1373 15.3289 65.0804 15.3858V15.4994L64.9099 15.67L65.0804 15.1016L65.251 14.9311C65.1373 14.8174 65.1941 14.7037 65.4215 14.59V14.4764H65.5351C65.5351 14.4195 65.5351 14.3627 65.4783 14.3058C65.5351 14.3058 65.592 14.1353 65.7625 13.7943C65.933 13.4533 65.9898 13.2828 66.0467 13.2259C66.1604 13.1122 66.2172 12.8849 66.3309 12.5439C66.9561 11.4071 67.4108 10.6114 67.7518 10.2703C67.695 9.98614 67.7518 9.75879 67.9223 9.75879V9.64512C67.8655 9.70195 67.8655 9.70195 67.8087 9.70195V9.58828H67.9792C68.036 9.30409 68.1497 9.13357 68.2065 9.0199C68.2065 8.96306 68.2634 8.90622 68.4339 8.73571C68.4339 8.67887 68.4339 8.62203 68.377 8.62203C68.6612 8.33784 68.7749 8.22416 68.8318 8.22416ZM67.4676 12.4302C67.4676 12.487 67.4676 12.487 67.4676 12.5439V12.4302ZM67.4676 12.7144C67.4108 12.6575 67.4108 12.6007 67.354 12.5439H67.4108C67.4108 12.6007 67.4108 12.6575 67.4676 12.7144ZM67.2403 13.1122L67.0698 13.2259C67.0698 13.1691 67.0698 13.1691 67.0129 13.1691C67.0129 13.1122 67.0698 13.0554 67.1266 12.9417L67.2403 12.9986V13.1122ZM59.5103 3.62028V3.7908C59.4535 3.84763 59.3966 3.84763 59.3398 3.84763V3.90447C59.283 4.07499 59.1124 4.2455 58.8283 4.52969C58.7714 4.52969 58.7714 4.52969 58.7146 4.58653C58.7146 4.64337 58.6577 4.64337 58.6009 4.64337L58.1462 5.26858V5.49594H58.0894C58.0325 5.72329 57.9757 5.83697 57.9188 5.8938V5.78013H57.9757C57.9757 5.60961 57.9757 5.4391 58.0325 5.32542H58.0894C58.0894 5.09807 58.1462 4.92756 58.3167 4.81388C58.4872 4.47285 58.7146 4.18866 59.1124 3.90447C59.1693 3.84763 59.1693 3.84763 59.1693 3.7908H59.283V3.73396C59.5103 3.67712 59.5671 3.62028 59.5103 3.62028ZM66.4446 11.0661C66.274 11.2934 66.1604 11.5208 66.1035 11.6913C66.0467 11.8618 65.9898 11.9755 65.933 12.0323C65.8762 12.0323 65.8193 12.0323 65.8193 12.0892C65.7625 12.487 65.6488 12.6575 65.4215 12.7144C65.4783 12.828 65.4215 12.9417 65.251 13.0554C65.1373 13.2259 65.0236 13.3396 65.0236 13.4533H64.9668C64.9668 13.5101 64.9099 13.5669 64.7962 13.6806C64.7394 13.5101 64.9099 13.1691 65.3646 12.7712C65.3646 12.6007 65.4783 12.3733 65.6488 12.2028C65.6488 12.0323 65.8762 11.6913 66.3309 11.0661V10.8956H66.3877C66.4446 10.8956 66.4446 10.9524 66.4446 11.0661ZM66.8993 13.2828H67.0129C67.0129 13.3396 67.0129 13.4533 66.9561 13.5101C66.8993 13.6238 66.8993 13.6806 66.8993 13.6806H66.7856L66.8993 13.2828ZM67.1834 13.9648L67.1266 14.0785H67.0698L67.0129 14.249C66.7856 14.59 66.6151 14.7605 66.5014 14.7037C66.5582 14.7605 66.5582 14.8174 66.5582 14.9311C66.3309 15.0447 66.2172 15.1016 66.2172 15.1016C66.274 14.8742 66.3877 14.6469 66.5582 14.4195L66.7287 14.1922C66.6719 14.1353 66.6719 14.1353 66.6719 14.0785C66.7287 14.0785 66.7856 14.0216 66.7856 13.9648C66.7856 13.908 66.8424 13.8511 66.8993 13.7943C67.0129 13.7375 67.0698 13.7375 67.1834 13.7943V13.9648ZM61.8975 9.41776V9.53144C61.6702 9.70195 61.386 9.75879 61.1586 9.81563V9.87247H61.0449V9.70195L61.4428 9.4746V9.41776H61.6133C61.6133 9.36093 61.6702 9.36093 61.6702 9.24725L61.8407 9.41776H61.8975ZM66.9561 12.7712L66.274 14.249H66.2172C66.2172 14.3058 66.2172 14.3058 66.1604 14.4195C66.1035 14.4764 66.1035 14.5332 66.0467 14.59C65.9898 14.6469 65.9898 14.7605 65.933 14.8174L65.7625 14.9311L65.592 15.3289C65.592 15.3858 65.592 15.3858 65.6488 15.3858C65.6488 15.5563 65.592 15.67 65.5351 15.7836V15.8405H65.4783C65.4783 15.8973 65.4215 15.8973 65.3646 16.011V15.6131C65.4215 15.6131 65.4783 15.6131 65.5351 15.5563C65.5351 15.3858 65.592 15.1016 65.7625 14.8174C65.933 14.5332 66.0467 14.3058 66.0467 14.1353C66.1035 14.1353 66.1604 14.0785 66.1604 13.9648C66.2172 13.8511 66.2172 13.7943 66.274 13.7943V13.6238C66.3877 13.3964 66.5582 13.1691 66.7287 12.9417L66.9561 12.7712ZM66.1604 12.3733C66.1035 12.487 65.9899 12.7712 65.8193 13.2259C65.7625 13.2828 65.7057 13.3396 65.6488 13.3964C65.592 13.4533 65.5351 13.5101 65.4783 13.5101V13.7943C65.3646 13.908 65.251 14.0785 65.1941 14.249C65.1373 14.3058 65.0804 14.3627 65.0804 14.3627L64.6826 14.7605C64.7394 14.8174 64.7394 14.8174 64.7394 14.8742C64.6257 14.8742 64.5689 14.9879 64.5689 15.1584C64.4552 15.3289 64.3415 15.4994 64.3415 15.6131C64.2847 15.7268 64.2279 15.7836 64.2279 15.8973C64.2847 15.7268 64.3984 15.5563 64.6257 15.3858L64.6826 15.7268H64.6257C64.6257 15.6131 64.6257 15.5563 64.5689 15.5563C64.5121 15.67 64.5121 15.7836 64.5121 15.8405C64.5121 15.8405 64.5121 15.7836 64.6257 15.7268V15.8405C64.5689 15.8405 64.5689 15.8973 64.5121 15.9541C64.4552 16.011 64.4552 16.0678 64.3984 16.0678V15.9541H64.3415C64.1142 16.011 64.0005 16.0678 63.9437 16.1247C63.9437 15.9541 64.0574 15.67 64.2279 15.3289H64.3415C64.3415 15.2152 64.3415 15.1584 64.3984 15.1016L64.9668 14.1922H65.0804C65.0236 13.9648 65.1373 13.8511 65.251 13.7943C65.3646 13.3964 65.592 12.9986 65.933 12.6007C65.9898 12.5439 65.9898 12.5439 65.9898 12.487C65.9898 12.4302 65.9898 12.4302 66.0467 12.3733H66.1035C66.1035 12.2597 66.1035 12.3165 66.1604 12.3733ZM66.1604 15.2152L66.1035 15.1016H66.1604V15.2152ZM66.2172 15.4426C66.1604 15.3858 66.1035 15.3858 66.1035 15.3289H66.1604L66.2172 15.4426ZM64.7394 13.9648L64.6826 14.0785H64.6257C64.6257 14.1353 64.5689 14.1353 64.5121 14.249C64.5121 14.1353 64.5689 14.0216 64.6257 13.7943H64.6826V13.9648H64.7394ZM65.0236 14.8174H64.9099C64.9099 14.9311 64.9099 15.0447 64.8531 15.0447C64.8531 14.9879 64.8531 14.9879 64.8531 14.9311C64.8531 14.8742 64.9099 14.8174 64.9099 14.7037C64.9099 14.7037 64.9668 14.7037 64.9668 14.7605V14.8174H65.0236ZM64.4552 14.4195L64.3984 14.3058H64.4552V14.4195ZM64.8531 15.0447C64.8531 15.0447 64.7963 15.1584 64.7394 15.3858C64.7394 15.3858 64.6826 15.2721 64.6257 15.1016C64.6826 15.0447 64.7962 15.0447 64.8531 15.0447ZM65.1373 15.8405H64.9668C64.9668 15.9541 64.9668 16.0678 64.9099 16.0678H64.8531C64.8531 15.9541 64.9099 15.8405 64.9668 15.7836V15.67H65.0804C65.0804 15.7836 65.1373 15.8405 65.1373 15.8405ZM60.7039 18.5119C60.6471 18.5119 60.5902 18.455 60.5902 18.3982H60.7039V18.5119ZM62.2954 18.6824L61.8975 18.796C61.8975 18.9097 61.8975 18.9666 61.9543 19.0802C61.7838 19.1371 61.6133 19.1371 61.5565 19.0802V19.1939H61.4996L61.2154 19.4781C61.1586 19.5349 61.1018 19.5918 61.1018 19.6486H61.0449V19.7055C60.9881 19.6486 60.9313 19.6486 60.8744 19.6486V19.7623C60.9313 19.7623 60.9881 19.7623 61.0449 19.8191C61.0449 19.7623 61.1018 19.7055 61.2154 19.6486C61.2154 19.5918 61.2154 19.5918 61.2154 19.5918C61.2154 19.5918 61.3291 19.4781 61.4996 19.3076C61.6133 19.2507 61.6702 19.2507 61.7838 19.3644C61.8975 19.3644 61.9543 19.3076 62.0112 19.2507H62.068V19.3644C62.068 19.4213 61.9543 19.5349 61.6702 19.6486C61.6702 19.7623 61.5565 19.8191 61.2723 19.8191V19.876L60.8176 19.9896C60.8176 19.876 60.8176 19.8191 60.8744 19.8191H60.7607V19.9328C60.8176 19.9896 60.8176 19.9896 60.8176 20.0465H60.5902V20.1033H60.5334C60.4766 20.1033 60.4766 20.1033 60.4766 20.0465H60.306L59.9082 20.1602C59.8513 20.1602 59.8513 20.1033 59.8513 20.0465H59.965V19.9896C60.0787 19.9896 60.1924 19.9328 60.3629 19.8191C60.5334 19.7055 60.6471 19.6486 60.7039 19.5918C61.2723 19.1939 61.6133 18.9097 61.727 18.7392C62.0112 18.7392 62.1817 18.6255 62.2385 18.3982C62.2954 18.3982 62.2954 18.3413 62.4091 18.3413V18.6824H62.2954ZM60.1355 19.5918L59.9082 19.7055V19.5918L60.0787 19.4213H60.1355C60.0787 19.4781 60.0787 19.5349 60.1355 19.5918ZM59.3966 19.9896L59.5671 20.1602C59.5103 20.1602 59.5103 20.1602 59.4535 20.217C59.283 20.217 59.1693 20.1033 59.0556 19.9328C59.0556 19.9328 59.1124 19.876 59.1693 19.8191L59.2261 19.876C59.283 19.8191 59.283 19.8191 59.3398 19.8191C59.3966 19.8191 59.3966 19.7623 59.4535 19.7055H59.5671C59.5671 19.8191 59.5671 19.876 59.5103 19.876V19.9896H59.3966ZM67.354 8.67887L67.2971 8.84938H67.2403C67.2403 8.79255 67.2971 8.73571 67.354 8.67887ZM66.9561 14.249H66.8424L66.7856 14.1922L66.9561 14.249ZM65.4783 14.6469V14.5332C65.5351 14.59 65.5351 14.59 65.4783 14.6469Z" fill="#B8B8B6"/>
<path d="M77.3007 10.953C77.2438 10.953 77.2438 10.953 77.3007 10.953V10.953ZM84.576 4.07562L84.7465 3.90511C84.7465 3.84827 84.7465 3.73459 84.6896 3.62092C84.6328 3.50724 84.6328 3.39357 84.6328 3.39357H84.576V3.27989H84.5191V3.22305C84.2918 3.16621 84.0076 3.10938 83.7802 3.10938C83.3823 3.16621 83.155 3.27989 83.0982 3.33673L82.9276 3.4504C82.814 3.50724 82.7571 3.50724 82.7003 3.50724C82.7003 3.50724 82.6435 3.50724 82.5866 3.56408C82.5866 3.56408 82.5866 3.50724 82.6435 3.50724H82.5298V3.62092C82.3024 3.73459 82.1888 3.73459 82.1319 3.67776C82.0751 3.73459 82.0751 3.73459 82.0751 3.79143C81.9046 3.84827 81.7909 3.84827 81.734 3.84827C81.6772 3.84827 81.6204 3.84827 81.5635 3.84827V3.96195C81.2793 3.90511 81.1657 3.96195 81.1657 3.96195C81.1657 3.96195 81.1088 3.96195 81.1088 3.90511C80.4268 4.1893 80.0289 4.35981 79.9152 4.41665C79.8016 4.47349 79.7447 4.53033 79.7447 4.53033C79.5742 4.53033 79.4605 4.58716 79.4037 4.70084C79.2332 4.75768 79.1195 4.81452 79.0627 4.87135C78.6648 5.09871 78.3806 5.32606 78.1532 5.55341C78.0396 5.55341 77.9259 5.61025 77.9259 5.72393C77.8122 5.78076 77.7554 5.8376 77.7554 5.89444C77.187 6.40598 76.7891 6.80385 76.6186 7.14488C76.3913 7.48591 76.2776 7.59958 76.2208 7.59958C75.7661 8.16796 75.4819 8.50899 75.4819 8.56583C75.425 8.62267 75.425 8.6795 75.425 8.6795L75.084 9.30472L74.6293 10.1573C74.5725 10.3846 74.4588 10.5552 74.3451 10.6688H74.4019V10.7825H74.2883V10.8962H74.1746C74.0609 11.0099 74.0041 11.1804 74.0041 11.4077L73.9472 11.4646V11.5782C73.8336 11.5782 73.7199 11.7488 73.6062 12.0898C73.4925 12.4308 73.3788 12.6013 73.322 12.6013C73.2652 12.6013 73.1515 12.7718 72.981 13.2265L72.3558 14.1928H72.2989V14.0791C72.2421 14.136 72.2421 14.1928 72.2989 14.2496C72.2421 14.2496 72.1852 14.2496 72.1852 14.3065L71.9011 14.818C71.7874 15.1022 71.6737 15.2727 71.5032 15.3296C71.56 15.3864 71.56 15.5001 71.5032 15.6137L71.4464 15.5569H71.3895V15.7274H71.3327V15.8411C71.1622 15.8411 71.1053 16.0116 71.0485 16.4095H70.9348C70.878 16.6368 70.7643 16.8642 70.6506 16.9779V17.0347H70.5938C70.5938 17.0915 70.5938 17.0915 70.6506 17.1484L70.1959 17.8873V18.0578C70.0822 18.0578 69.9117 18.2851 69.7412 18.7398C69.8549 18.7398 69.9117 18.7967 69.9686 18.8535H71.6737L71.9011 18.4557H71.9579C71.9579 18.5125 71.9579 18.5693 71.9579 18.6262H72.0716C72.1853 18.4557 72.2989 18.342 72.3558 18.1715C72.4126 18.0578 72.5263 17.9441 72.5831 17.8873L72.5263 18.1715H72.4694H72.4126C72.4126 18.2283 72.4126 18.2851 72.3558 18.342H72.2989L72.1852 18.7398H71.9579V18.8535C72.2421 18.8535 72.4694 18.7967 72.5263 18.7398L72.9241 18.5125L73.0378 18.342V18.3988C73.0947 18.342 73.0947 18.342 73.0947 18.2851V18.1715H73.1515C73.2083 18.0009 73.2652 17.8873 73.2652 17.8304L73.1515 17.7736H73.2652C73.322 17.7168 73.322 17.6599 73.3789 17.6031C73.4357 17.5462 73.4357 17.4894 73.4925 17.4326H73.5494V17.3189C73.6062 17.2621 73.6062 17.2621 73.6062 17.2052C73.663 17.2052 73.663 17.2052 73.663 17.2621C73.663 17.3189 73.663 17.3189 73.7199 17.3189C73.7199 17.3189 73.7199 17.2621 73.663 17.2052C73.7199 17.1484 73.7767 17.0915 73.7767 17.0915L74.0041 16.6368H74.0609V16.4663H74.1177V16.2958C74.1177 16.2958 74.1746 16.239 74.2883 16.1253C74.3451 16.0116 74.4588 15.8411 74.5156 15.7274C74.5725 15.5569 74.6293 15.4432 74.743 15.3296C74.7998 15.2159 74.9135 15.159 74.9703 15.159C75.0271 15.159 75.0272 15.159 75.0272 15.2159V15.1022H74.9703C74.9703 15.0454 74.9703 14.9885 75.0272 14.9317C75.084 14.8749 75.084 14.818 75.084 14.7612H75.1408H75.1977C75.1977 14.5907 75.2545 14.477 75.3113 14.4201V14.3633C75.425 14.3065 75.425 14.2496 75.425 14.1928C75.6524 13.9654 75.766 13.7381 75.8797 13.5676C75.8797 13.4539 75.8797 13.3402 75.9366 13.3402H75.9934V13.2265H76.0502V13.1697L76.1639 12.9992C76.2208 12.9424 76.2776 12.9424 76.3344 12.9424H76.3913V12.8287H76.2776C76.4481 12.6582 76.5049 12.4877 76.5049 12.374H76.5618V12.2603H76.5049L76.6755 11.9761C76.6755 12.033 76.6755 12.0329 76.6186 12.0898L76.7891 11.9761C77.0165 11.8624 77.2438 11.7488 77.4712 11.6351C77.6985 11.5214 77.8691 11.4646 77.9827 11.4077C78.0396 11.3509 78.0964 11.2941 78.2101 11.2941V11.2372L78.608 11.1235C78.608 11.1804 78.6079 11.1804 78.6648 11.1804C79.0058 11.1235 79.29 11.0099 79.5742 10.8394C79.5742 10.8962 79.5742 10.8962 79.631 10.8962C79.631 10.8394 79.5742 11.0667 79.4605 11.4077C79.3468 11.5782 79.2332 11.7488 79.1763 11.9193C79.1195 11.9761 79.0627 12.033 78.8921 12.2035C78.7785 12.374 78.6648 12.4877 78.6648 12.5445L78.2669 13.2265C78.1532 13.4539 78.0396 13.5676 77.8691 13.6244C77.7554 13.6813 77.528 14.0791 77.187 14.818L76.7891 15.6706C76.5618 16.1821 76.4481 16.5232 76.3913 16.58C76.3344 16.6937 76.3344 16.8642 76.3344 17.0347C76.2776 17.0347 76.2208 17.1484 76.2208 17.3189C76.2208 17.4894 76.2208 17.6031 76.3344 17.6599C76.4481 18.0009 76.5618 18.2283 76.7323 18.342C76.7323 18.3988 76.7323 18.3988 76.7891 18.4557H76.846V18.5125H76.9596V18.5693H77.0165V18.6262C76.9596 18.6262 76.9596 18.6262 76.9596 18.683V18.7398H77.0165C77.0165 18.683 77.0165 18.683 77.0733 18.6262C77.6985 18.7967 77.9259 18.8535 77.7554 18.8535C78.1532 18.9104 78.4374 18.9104 78.4943 18.9104C78.5511 18.9104 78.7216 18.8535 79.0058 18.7967C79.29 18.7398 79.4605 18.683 79.5742 18.683V18.6262C79.8584 18.5125 80.0289 18.5125 80.0289 18.5125C80.3131 18.2283 80.4836 18.0578 80.5973 18.0578C80.6541 18.0578 80.7678 18.0009 80.9383 17.8873C81.1088 17.7736 81.2225 17.7168 81.3362 17.7168C81.3362 17.7736 81.6772 17.4326 82.3593 16.7505C82.4161 16.3526 82.5866 16.1253 82.7571 16.0685V16.0116L82.9276 15.8979C83.155 15.5569 83.2687 15.4432 83.3255 15.4432C83.3255 15.3864 83.3255 15.3296 83.2687 15.3296C83.3823 15.3296 83.4392 15.3296 83.4392 15.2727C83.3824 15.2159 83.3823 15.2159 83.3823 15.159C83.6665 14.9885 83.7234 14.9317 83.7234 14.8749H83.6665C83.7234 14.818 83.7234 14.818 83.7234 14.7612C83.6097 14.7612 83.496 14.8749 83.3255 15.1022C83.155 15.3296 83.0413 15.4432 82.9276 15.4432C82.9276 15.5001 82.9276 15.5569 82.8708 15.6137L82.4729 15.9548C82.0751 16.4663 81.7909 16.7505 81.5635 16.8073C81.393 16.9779 81.2225 17.0915 81.1657 17.0915C81.2225 17.0347 81.2225 17.0347 81.2793 17.0347V16.9779H81.3362V17.0347C81.2225 17.0915 81.1657 17.1484 81.1657 17.2052H81.2225C81.052 17.4326 80.8815 17.5462 80.711 17.6031L80.4268 17.7168C80.0857 17.7168 79.9152 17.6599 79.7447 17.6031C79.6879 17.3757 79.8584 16.8642 80.1426 16.1253C80.1994 16.1253 80.1994 16.0685 80.2563 15.9548C80.3131 15.8411 80.3131 15.7843 80.3699 15.7843C80.4836 15.5569 80.5973 15.3296 80.711 15.159C80.8246 14.9885 80.9383 14.818 81.052 14.7043C81.052 14.7043 81.1088 14.6475 81.1657 14.5338H81.2225V14.477H81.2793C81.4499 14.1928 81.5635 13.9654 81.734 13.7381C82.3024 13.056 82.5298 12.7718 82.4161 12.7718V12.715C82.9276 12.2603 83.2118 11.9193 83.2118 11.6351H83.2687L83.3823 11.3509H83.4392V11.2941C83.6665 11.0099 83.7802 10.6688 83.8371 10.3846V9.98678C83.7234 9.98678 83.6097 9.81627 83.5529 9.64575L82.9276 9.36156H82.814H81.8477C81.6204 9.4184 81.393 9.47524 81.052 9.53208C80.7678 9.58891 80.4268 9.70259 80.0289 9.81627V9.8731C79.5174 9.98678 79.2332 10.1005 79.2332 10.271C78.6648 10.3846 78.3806 10.4983 78.4374 10.6688C78.0964 10.8394 77.8122 10.953 77.528 11.0667C77.2438 11.1804 77.0733 11.2941 76.9028 11.4077V11.3509L77.0733 11.2372C77.0165 11.2372 77.0165 11.2372 77.0165 11.1804L77.2438 10.8962C77.3007 10.7257 77.3575 10.5552 77.528 10.3846L77.5849 10.3278C77.8122 9.8731 78.0396 9.53208 78.2101 9.19105C78.4374 8.90686 78.608 8.6795 78.7785 8.45215H78.8921C78.8921 8.33848 78.949 8.2248 79.1195 8.05429C79.29 7.88377 79.3469 7.7701 79.3469 7.65642C79.5174 7.54274 79.631 7.37223 79.7447 7.14488H79.8015C79.8015 7.37223 79.8584 7.25855 80.0289 6.74701H79.9152V6.69017C79.9721 6.69017 80.0289 6.69017 80.0857 6.63333H80.1994V6.5765H80.2563L80.7678 5.89444C80.7678 5.78076 80.8246 5.72393 80.9952 5.66709C80.9952 5.55341 80.9951 5.49657 81.1088 5.55341C81.1088 5.43974 81.1657 5.3829 81.3362 5.26922C81.5067 5.15555 81.5635 5.09871 81.6204 4.98503C82.0182 4.644 82.3024 4.53033 82.3593 4.53033V4.47349C82.4161 4.47349 82.4729 4.47349 82.4729 4.53033L82.5298 4.47349L82.5866 4.53033L82.6435 4.47349V4.35981C83.155 4.30297 83.4392 4.41665 83.4392 4.70084C83.496 4.644 83.6665 4.644 84.0644 4.644C84.2349 4.53033 84.4623 4.35981 84.576 4.07562ZM77.0733 18.9104C77.0165 18.9104 77.0165 18.9104 77.0733 18.9104H76.9596H77.0733ZM81.1088 4.07562L81.734 3.90511C81.5067 4.07562 81.3362 4.13246 81.2225 4.13246L81.1088 4.07562ZM81.5067 4.58716C81.1657 4.81452 80.9952 4.92819 80.9952 5.09871H80.8815V5.15555H80.8246V5.21238L80.7678 5.26922C80.7678 5.21238 80.8246 5.09871 80.9952 4.92819V4.81452C80.9952 4.81452 81.1088 4.81452 81.2793 4.70084V4.644C81.3362 4.644 81.393 4.58716 81.5067 4.58716ZM80.1994 5.78076L80.0289 5.95128H79.9152C80.0289 5.8376 80.0857 5.78076 80.1994 5.78076ZM80.1426 5.15555C80.1426 5.3829 80.0289 5.43974 79.8015 5.3829C79.6879 5.49657 79.5174 5.61025 79.3469 5.66709V5.72393H79.29V5.78076H79.2332V5.89444H79.0627V5.95128H79.0058V6.00812C78.949 6.00812 78.8353 6.06495 78.6648 6.17863C78.4943 6.29231 78.4374 6.40598 78.4374 6.46282V6.40598C78.3806 6.40598 78.3238 6.40598 78.3238 6.46282C78.2669 6.34914 78.3806 6.23547 78.608 6.17863C78.8921 5.8376 79.2332 5.61025 79.5742 5.49657C79.5742 5.26922 79.8016 5.15555 80.1426 5.15555ZM82.7003 9.81627L82.5298 9.92994C82.4161 9.81627 82.3593 9.75943 82.3024 9.75943C82.3024 9.70259 82.3024 9.70259 82.3593 9.64575C82.3593 9.70259 82.4161 9.70259 82.5866 9.70259V9.75943L82.7571 9.70259V9.81627H82.7003ZM82.0182 9.70259H81.9046V9.64575L82.0182 9.70259ZM79.631 6.63333L79.4037 6.80385L78.949 7.37223H78.8921C78.8921 7.25855 78.949 7.14488 79.1763 6.91752C79.3468 6.74701 79.4605 6.63333 79.631 6.63333ZM81.2793 9.70259L81.6204 9.64575C81.6204 9.64575 81.5635 9.70259 81.5067 9.75943V9.81627H81.393V9.8731H81.2793V9.70259ZM82.1888 10.3846V10.5552H82.1319L82.1888 10.3846ZM83.2118 9.98678C82.8708 11.0099 82.5298 11.6919 82.2456 12.033H82.1888V12.0898H82.1319V12.2035L81.9614 12.3171V12.374H81.9046L81.8477 12.4877L81.7909 12.4308L82.0182 12.0898C82.1319 11.9193 82.2456 11.8056 82.3024 11.6351C82.4161 11.5214 82.4729 11.3509 82.5298 11.2372C82.5866 11.0667 82.7003 10.8394 82.9276 10.6688C82.9845 10.4983 82.9845 10.3846 83.0413 10.271C83.0982 10.1573 83.155 10.1005 83.2118 9.98678ZM82.1319 10.612L81.9614 10.7825H81.9046V10.6688H82.0182V10.5552L82.1319 10.612ZM81.1657 9.75943H81.2793C81.1657 9.92994 80.9952 10.0436 80.7678 10.1573C80.8815 9.8731 81.052 9.75943 81.1657 9.75943ZM81.393 10.6688C81.393 10.7257 81.3362 10.7825 81.2793 10.7825V10.7257C81.3362 10.6688 81.3362 10.6688 81.393 10.6688ZM79.1195 7.37223C79.0627 7.59958 79.0058 7.7701 78.8921 7.82693H78.7785C78.7785 7.88377 78.7785 7.94061 78.7216 7.99745C78.3238 8.39531 78.1532 8.6795 78.1532 8.90686H78.0396C77.9827 8.9637 77.9827 8.9637 77.9827 9.02053V9.13421H77.8122V9.02053C77.9827 8.85002 78.0964 8.73634 78.1532 8.56583L78.2101 8.62267C78.2101 8.56583 78.2669 8.50899 78.3238 8.45215C78.2669 8.45215 78.2669 8.45215 78.2101 8.50899C78.1533 8.45215 78.2101 8.39531 78.2669 8.33848C78.3238 8.33848 78.3238 8.33848 78.3806 8.39531C78.4374 8.39531 78.4374 8.28164 78.4374 8.2248H78.4943V8.28164C78.5511 8.28164 78.608 8.16796 78.7216 7.99745C78.8353 7.7701 78.949 7.71326 79.0058 7.71326V7.65642L79.1195 7.37223ZM80.4836 10.0436C80.1994 10.271 79.8584 10.3846 79.5742 10.4415V10.3846L79.4605 10.3278C79.6879 10.2141 79.9152 10.1573 80.0857 10.1005C80.3131 10.1573 80.4268 10.1005 80.4836 10.0436ZM80.5973 10.8962L80.5404 11.0099L80.5973 10.8962ZM81.5067 11.4077C81.5635 11.6919 81.4499 11.8624 81.1657 11.9761C81.1657 12.033 81.1088 12.0329 81.1088 12.0898C81.1088 11.9193 81.1088 11.8624 81.2225 11.8624C81.2793 11.6351 81.393 11.4646 81.5067 11.4077ZM81.5067 11.9193C81.4499 11.9193 81.4499 11.9193 81.393 11.9761V11.9193L81.5067 11.8056V11.9193ZM78.2101 5.89444C78.2101 6.00812 78.0964 6.12179 77.9827 6.23547C77.8122 6.40598 77.6985 6.51966 77.6985 6.5765H77.5849V6.63333C77.5849 6.63333 77.528 6.63333 77.528 6.69017H77.4712V6.74701H77.4144V6.80385H77.3575C77.187 7.20172 77.1302 7.25855 77.1302 7.08804H77.0165C77.0165 7.14488 77.0165 7.14488 77.0733 7.20171L76.846 7.31539V7.37223H76.7891V7.48591C76.7323 7.48591 76.7323 7.48591 76.6755 7.54274L76.6186 7.65642C76.5618 7.65642 76.5049 7.71326 76.3344 7.88377C76.1639 8.05429 76.1071 8.11112 76.2208 8.16796C76.1071 8.28164 76.0502 8.39531 75.9934 8.56583C76.0502 8.50899 75.9366 8.62267 75.766 8.73634C75.5955 8.90686 75.4819 9.07737 75.4819 9.19105H75.3682C75.4819 8.9637 75.5955 8.79318 75.766 8.6795C76.1639 7.99745 76.3913 7.65642 76.4481 7.65642C76.5049 7.48591 76.5618 7.42907 76.6755 7.37223C76.7891 7.08804 77.0165 6.86069 77.2438 6.74701C77.2438 6.69017 77.3575 6.51966 77.6417 6.23547C77.9827 6.00812 78.1533 5.89444 78.2101 5.89444ZM79.8015 10.612C79.8015 10.612 79.8015 10.5552 79.8015 10.612V10.612ZM81.1657 12.2035C81.2225 12.2035 81.1657 12.2035 81.1088 12.3171C81.1657 12.2603 81.1657 12.2035 81.1657 12.2035ZM77.9827 7.99745V8.11112C77.8122 8.16796 77.7554 8.2248 77.6985 8.33848C77.3575 8.56583 77.1302 8.79318 77.0733 9.07737H77.0165H76.9596L76.846 9.19105C76.846 9.13421 76.9596 8.9637 77.1302 8.73634L77.8122 8.05429H77.9827V7.99745ZM80.9952 12.1466C80.9952 12.2035 80.9951 12.2035 80.9383 12.2603L80.9952 12.1466ZM77.8122 8.85002C77.8122 9.02053 77.8122 9.07737 77.7554 9.13421H77.6985V9.19105H77.528C77.5849 9.02053 77.6417 8.90686 77.6985 8.85002H77.8122ZM80.9952 12.3171C80.9383 12.4308 80.8815 12.4877 80.8815 12.4877L80.9952 12.3171ZM81.4499 12.9992V13.056C81.5635 13.056 81.5067 13.1129 81.2793 13.1697L81.4499 12.9992ZM80.1426 11.9193C80.0857 11.8624 80.1426 11.8624 80.1426 11.8056V11.9193ZM80.7678 12.6582C80.7678 12.6013 80.7678 12.6013 80.8246 12.5445L80.7678 12.6582ZM77.528 9.47524C77.5849 9.4184 77.6417 9.36156 77.6417 9.36156L77.528 9.47524ZM80.9383 11.5782C80.8246 11.8056 80.7678 11.9193 80.711 11.9761H80.6541V12.033H80.5973V12.0898H80.5404V12.1466H80.4836L80.5404 12.2603C80.4268 12.2603 80.1994 12.4877 79.8584 12.9424C79.9152 12.7718 79.9721 12.6582 79.9721 12.6013H80.0289V12.4877H80.1426C80.1426 12.4308 80.2563 12.3171 80.4268 12.0898C80.4268 11.9193 80.4836 11.8056 80.5404 11.8056L80.711 11.5214C80.8246 11.5214 80.8815 11.5214 80.9383 11.5782ZM79.9721 11.9761C80.0289 11.9761 80.0289 11.9761 79.9721 11.9761V11.9761ZM79.1195 10.8962C79.1763 11.0099 79.0627 11.0667 78.8353 11.0667C78.949 11.0099 79.0627 10.953 79.1195 10.8962ZM77.4712 9.4184L77.3007 9.58891V9.47524C77.3575 9.4184 77.4144 9.4184 77.4712 9.4184ZM79.5742 11.6351C79.5174 11.6351 79.5174 11.6351 79.5742 11.6351V11.6351ZM79.4605 11.8056L79.4037 11.6919H79.4605V11.8056ZM77.0165 9.47524H76.9028C76.9028 9.47524 76.9596 9.47524 77.0165 9.47524ZM77.187 9.8731H77.0733C77.1302 9.81627 77.1302 9.75943 77.1302 9.70259C77.187 9.75943 77.187 9.81627 77.187 9.8731ZM76.3913 8.85002C76.4481 8.9637 76.3344 9.07737 76.1639 9.24789C76.1639 9.36156 76.2776 9.19105 76.3913 8.85002ZM81.2793 12.2603C81.2793 12.2603 81.052 12.6013 80.5973 13.2834C80.2563 13.7381 80.0289 14.0223 79.9721 14.0791C79.9152 14.136 79.8016 14.2496 79.7447 14.3065L79.631 14.477C79.7447 14.2496 79.8584 14.0791 79.9721 13.9654C80.0857 13.7949 80.1994 13.6813 80.2563 13.6244C80.3699 13.6244 80.4836 13.4539 80.5404 13.2265L80.9383 12.7718C81.052 12.374 81.1657 12.2035 81.2793 12.2603ZM76.5618 9.4184V9.53208C76.5618 9.53208 76.5049 9.58891 76.4481 9.58891C76.3913 9.58891 76.3344 9.58891 76.2776 9.64575V9.53208C76.4481 9.4184 76.5618 9.4184 76.5618 9.4184ZM76.846 9.75943C76.846 9.75943 76.846 9.81627 76.7891 9.8731H76.7323V9.92994C76.6755 9.98678 76.6755 10.0436 76.6186 10.0436C76.5618 10.0436 76.5618 10.1005 76.5049 10.1005V10.0436C76.6186 9.81627 76.7323 9.75943 76.846 9.75943ZM79.3469 10.4415H79.2332C79.1763 10.4983 79.1195 10.5552 79.1195 10.5552C78.8921 10.612 78.608 10.7257 78.2669 10.8394C77.9259 11.0099 77.528 11.1804 77.0733 11.4077C76.9597 11.5214 76.9028 11.5782 76.7891 11.5782V11.6351H76.7323V11.6919H76.6755C76.6186 11.7488 76.6186 11.7488 76.5618 11.7488L76.3913 11.9761C76.5049 11.9193 76.6186 11.8624 76.7323 11.8056C76.9028 11.7488 77.0165 11.6351 77.187 11.5214C77.3575 11.4646 77.4712 11.3509 77.5849 11.2941C77.7554 11.2941 77.9259 11.1804 78.2669 11.0099C78.4943 10.953 78.6648 10.8394 78.7785 10.7257C78.949 10.6688 79.1195 10.6688 79.2332 10.6688V10.4415H79.3469ZM76.846 10.2141H76.9596C76.9596 10.271 76.9028 10.3278 76.7323 10.4415L76.846 10.2141ZM75.9934 9.53208C75.9366 9.53208 75.9366 9.53208 75.8797 9.58891V9.47524L75.9934 9.53208ZM79.8015 13.4539C79.7447 13.5107 79.6879 13.5676 79.6879 13.5676C79.7447 13.4539 79.8015 13.4539 79.8015 13.4539ZM76.1639 9.75943H76.3344C76.2776 9.75943 76.2776 9.8731 76.2776 10.0436C76.2208 9.98678 76.2208 9.98678 76.1639 9.98678L75.9934 10.1573V10.1005C75.9934 10.2141 76.0502 10.1005 76.1639 9.75943ZM76.3913 10.3278H76.2776C76.2776 10.271 76.3344 10.271 76.3344 10.2141C76.3913 10.2141 76.3913 10.271 76.3913 10.3278ZM79.7447 14.5907L80.3131 13.7381C80.3131 13.7949 80.2563 13.9086 80.0857 14.136H80.0289C80.0857 14.1928 80.0857 14.1928 80.0857 14.2496H79.9721V14.4201H79.9152V14.5338H79.8584V14.6475H79.8015C79.7447 14.7612 79.6879 14.8749 79.6879 14.8749H79.631C79.6879 14.7612 79.7447 14.6475 79.7447 14.5907L79.631 14.7612C79.631 14.6475 79.631 14.5907 79.7447 14.5338V14.5907ZM75.6524 9.81627H75.766C75.7092 9.98678 75.5955 10.0436 75.425 10.1005L75.6524 9.81627ZM75.9934 10.3278H75.8797V10.4415C75.766 10.4415 75.7092 10.4415 75.7092 10.4983C75.7092 10.4983 75.7092 10.4415 75.8229 10.3278H75.9934ZM79.3469 12.7718C79.0627 13.4539 78.7785 13.9086 78.4943 14.1928C78.4943 14.0791 78.5511 13.9086 78.7216 13.7381C78.8921 13.5676 78.949 13.4539 78.949 13.3971L79.3469 12.7718ZM75.1408 9.92994C75.1408 9.92994 75.084 9.98678 75.0272 10.0436C74.9703 9.92994 75.0272 9.92994 75.1408 9.92994ZM75.6524 10.5552C75.5955 10.612 75.5955 10.612 75.5955 10.6688L75.5387 10.612L75.6524 10.5552ZM79.5174 14.5907C79.5174 14.5907 79.5174 14.6475 79.5174 14.5907C79.4605 14.5907 79.4605 14.5907 79.5174 14.5907ZM79.631 14.7043C79.5742 14.7043 79.631 14.7043 79.631 14.7043V14.7043ZM75.4819 10.3278C75.4819 10.271 75.3682 10.4415 75.1977 10.7825C75.1408 10.7825 75.084 10.7825 75.0272 10.8394V10.7825H75.084V10.7257H75.1408C75.2545 10.5552 75.3113 10.3846 75.425 10.3278H75.4819ZM79.4037 14.818C79.3468 14.8749 79.3469 14.8749 79.3469 14.9317C79.3469 14.8749 79.4037 14.8749 79.4037 14.818ZM79.29 15.1022C79.3468 15.1022 79.29 15.159 79.29 15.1022V15.1022ZM79.3469 14.3065C79.3469 14.477 79.29 14.5338 79.29 14.5907C79.1763 14.7043 79.0627 14.8749 79.0058 15.0454C78.8353 15.1022 78.7216 15.2727 78.6648 15.5001H78.608V15.3296H78.6648H78.7216C78.8353 15.1022 78.949 14.8749 79.0627 14.7043C79.1763 14.5907 79.29 14.4201 79.3469 14.3065ZM78.0396 14.0223C78.0396 14.0791 77.9827 14.0791 77.9259 14.136C77.8691 14.4201 77.7554 14.6475 77.528 14.7612C77.528 14.7043 77.528 14.5338 77.6985 14.3633C77.8691 14.1928 77.9827 14.0223 78.0396 14.0223ZM74.9703 11.9193L74.743 12.0898C74.743 12.0329 74.8566 11.9193 74.9703 11.7488V11.9193ZM78.2101 15.4432C78.2101 15.6137 78.1532 15.7274 78.1532 15.7843H78.0396L78.2101 15.4432ZM79.3469 15.2159C79.3469 15.3296 79.29 15.4432 79.1763 15.6706C79.0627 15.8979 78.949 16.0685 78.8921 16.2958C78.5511 16.5232 78.4374 16.7505 78.4374 17.0347H78.3806V17.0915C78.3238 17.1484 78.3238 17.2052 78.3238 17.2052H78.2669L78.0964 17.3189C78.0396 17.2052 78.1532 17.0347 78.3806 16.6368C78.3806 16.58 78.4374 16.5232 78.4943 16.3526C78.5511 16.1821 78.6648 16.0685 78.7216 15.8979C78.8353 15.7274 78.8921 15.5569 79.0058 15.4432C79.1763 15.3296 79.29 15.2727 79.3469 15.2159ZM77.528 14.9317L77.3007 15.3864C77.187 15.4432 77.187 15.5001 77.187 15.5569H77.1302C77.3007 14.9885 77.4144 14.7612 77.4144 14.8749C77.4712 14.8749 77.528 14.8749 77.528 14.9317ZM78.949 16.8642C78.949 16.8642 78.949 16.8073 78.949 16.7505V16.8642ZM78.0396 15.8411V16.1821H77.9827V16.239H77.9259L77.7554 16.6368C77.7554 16.5232 77.7554 16.4663 77.8122 16.4095V16.3526H77.8691V16.239H77.9259C77.9259 16.0116 77.9827 15.8979 78.0396 15.8411ZM79.29 17.7736C79.2332 17.7168 79.1763 17.7168 79.1195 17.7168V17.4326C79.2332 17.6031 79.29 17.7168 79.29 17.7736ZM78.5511 17.5462L78.8921 16.921H78.8353C78.7216 17.3189 78.608 17.5462 78.5511 17.5462ZM77.4712 15.6137L77.187 16.0685C77.1302 16.0116 77.2438 15.8411 77.4712 15.6137ZM78.2101 16.2958C78.1533 16.7505 78.0396 17.0915 77.9259 17.2621H77.8691C77.8122 17.1484 77.9259 16.8073 78.2101 16.2958ZM77.7554 15.7843L77.6417 16.1253H77.5849V16.239H77.528V16.3526H77.4712C77.4144 16.5232 77.3007 16.6937 77.187 16.8642C77.187 16.921 77.3575 16.58 77.6417 15.8411H77.7554V15.7843ZM78.8353 17.4894V17.8873H78.7216C78.7216 17.8873 78.7785 17.7736 78.8353 17.4894ZM78.5511 17.0347C78.5511 16.9779 78.4943 17.0915 78.4374 17.4326V17.5462C78.3806 17.5462 78.3238 17.6599 78.2669 17.8304H78.1532C78.0396 17.7168 78.2101 17.4894 78.5511 17.0347ZM74.6861 12.3171L74.2883 13.056C74.2314 13.056 74.1746 13.1129 74.1177 13.2265C74.0609 13.3402 74.0041 13.5107 73.8904 13.6244C73.8336 13.7381 73.7199 13.9086 73.663 14.0223C73.6062 14.136 73.5494 14.2496 73.5494 14.2496C73.5494 14.1928 73.6062 14.0791 73.663 13.9654C73.7199 13.7949 73.7767 13.6813 73.8336 13.5107C73.8904 13.3402 73.9472 13.2265 74.0609 13.056C74.1177 12.9424 74.2314 12.8287 74.2883 12.8287L74.6293 12.2603L74.6861 12.3171ZM77.4712 16.7505H77.5849C77.5849 16.8073 77.528 16.8073 77.528 16.921H77.4712V16.7505ZM75.425 11.9193C75.425 12.033 75.3682 12.0898 75.3113 12.1466C75.2545 12.2035 75.1977 12.3171 75.1977 12.4308H75.1408L74.8566 12.9992L74.743 13.1697H74.6861L74.4019 13.6813H74.4588V13.7381C74.5724 13.7381 74.4588 13.7949 74.2314 13.9654V14.136L74.0609 14.3065C73.7199 14.4201 73.6062 14.7612 73.6062 15.2727C73.3788 15.2727 73.2083 15.3864 73.2083 15.5569C73.2083 15.4432 73.3788 15.2159 73.6062 14.8749C73.6062 14.7612 73.663 14.6475 73.7199 14.5338C73.7767 14.3633 73.8336 14.3065 73.8336 14.2496C74.2314 13.6813 74.5156 13.2834 74.6293 12.9992C74.7998 12.8855 74.9135 12.715 75.0272 12.374C75.084 12.374 75.1408 12.3171 75.1977 12.2035C75.3113 12.033 75.3682 11.9193 75.425 11.9193ZM76.9028 16.0116C76.9596 16.0685 76.9596 16.1253 76.9028 16.2958C76.846 16.4663 76.7891 16.58 76.7891 16.58H76.7323L76.6186 16.921H76.5618V16.7505H76.6186C76.6755 17.0347 76.7891 16.8073 76.9028 16.0116ZM79.4605 18.2851L78.5511 18.6262L78.0396 18.683H77.7554L77.6417 18.5693C77.528 18.5125 77.8122 18.5125 78.4374 18.5125C78.7785 18.3988 79.1195 18.342 79.4605 18.2851ZM78.2101 18.2283C78.0964 18.2851 77.9827 18.2851 77.8691 18.2851C77.8691 18.1715 77.8691 18.1146 77.9259 18.0009C77.9259 17.9441 78.0396 18.0578 78.2101 18.2283ZM76.7891 17.5462V17.6599C76.7323 17.6031 76.7323 17.5462 76.7323 17.4894C76.7891 17.4894 76.7891 17.4894 76.846 17.4326L76.7891 17.5462ZM76.846 17.7168C76.846 17.7736 76.7891 17.7168 76.846 17.7168V17.7168ZM77.4144 18.6262L77.2438 18.4557C77.3007 18.4557 77.4144 18.5125 77.6417 18.5693L77.4144 18.6262ZM78.8921 7.65642C78.8921 7.71326 78.8921 7.71326 78.8921 7.65642V7.65642Z" fill="#B8B8B6"/>
<path d="M93.7828 14.7042V14.5905H93.6691V14.6473C93.6123 14.7042 93.6123 14.7042 93.5554 14.7042C93.4986 14.6473 93.4418 14.6473 93.3849 14.6473C93.3281 14.6473 93.3281 14.6473 93.3281 14.7042L93.0439 14.9884C92.9302 15.0452 92.8734 15.1021 92.8734 15.1589H92.7597L92.5892 15.3862C92.4187 15.4999 92.3618 15.5568 92.305 15.6704C92.1345 15.7841 92.0776 15.8409 92.0776 15.9546C91.9071 16.0115 91.7935 16.0115 91.7366 16.1251L91.6798 16.2388C91.6798 16.2957 91.6229 16.4093 91.4524 16.523C91.2819 16.6367 91.1682 16.6935 91.1114 16.6935V16.8072C90.543 17.0914 90.2588 17.3187 90.2588 17.4324H90.1452V17.4893C89.6905 17.7166 89.4631 17.8871 89.3494 17.944C88.9516 17.944 88.781 18.0008 88.7242 18.0576L88.099 18.285C87.7011 18.3987 87.3601 18.3987 87.1327 18.3987C87.1327 18.3418 87.1327 18.3418 87.0759 18.285H87.0191L86.9622 18.2281H87.0191V18.1713L86.9054 18.0008C86.9054 17.7734 86.8485 17.6029 86.7349 17.6029C86.7917 17.5461 86.7349 17.3756 86.6212 17.0914C86.6212 16.7504 86.678 16.4662 86.8485 16.3525H86.9054C87.1327 16.1251 87.3601 16.0115 87.5874 15.9546C87.6443 15.8978 87.7011 15.8978 87.758 15.8978V15.8409C87.9285 15.7841 88.099 15.7273 88.2127 15.6704C88.4968 15.4999 88.781 15.4431 89.1221 15.3862V15.3294C89.1789 15.2726 89.2357 15.2726 89.2926 15.2726V15.1021C89.4063 15.1589 89.5768 15.0452 89.861 14.8747C90.4862 14.4768 90.884 14.1926 91.0546 14.079C91.2251 13.9653 91.3388 13.8516 91.3956 13.8516V13.7948C91.5661 13.6811 91.6798 13.5674 91.7366 13.5106H91.7935V13.4537H91.8503V13.3969H91.9071L92.1913 13.1127L92.3618 12.9422L92.4187 12.999C92.4187 12.9422 92.4187 12.9422 92.4187 12.9422C92.4187 12.9422 92.4755 12.8854 92.4755 12.7717H92.5324L92.8734 12.0896C92.9302 11.8623 92.9302 11.6918 92.9871 11.5213C93.0439 11.3507 93.0439 11.2939 93.1007 11.2371L92.7029 10.555L92.305 10.2708V10.1571C92.3618 10.1003 92.4187 10.1003 92.5324 10.1003V10.0435H92.2482V10.1571C92.0208 10.1003 91.9071 10.0435 91.8503 9.98663C91.7935 9.92979 91.7366 9.92979 91.6798 9.92979C91.4524 9.87295 91.2251 9.87295 90.9977 9.87295C90.7704 9.87295 90.6567 9.87295 90.4862 9.81611H90.3725C90.3157 9.81611 90.202 9.81611 90.0315 9.81611C89.861 9.81611 89.6336 9.87295 89.3494 9.87295C89.1789 9.92979 89.0652 9.98663 89.0084 9.98663H88.8947C88.8379 10.1571 88.6674 10.214 88.3832 10.214C88.44 10.1571 88.44 10.1571 88.4968 10.1571C88.6105 9.98663 88.7242 9.87295 88.8947 9.81611C89.1789 9.70244 89.4063 9.6456 89.4063 9.6456V9.58876C89.4631 9.53192 89.4631 9.53192 89.5768 9.53192C90.0883 9.53192 90.3157 9.53192 90.202 9.41825V9.36141C90.3725 9.41825 90.4862 9.47509 90.4862 9.47509V9.36141H90.2588C89.9746 9.30457 89.7473 9.36141 89.6904 9.47509C89.2926 9.47509 89.1221 9.47509 89.1221 9.6456H89.0084L88.6674 9.87295C88.44 10.0435 88.2695 10.214 88.2127 10.3277H88.0421C87.9853 10.6118 87.758 10.8392 87.3033 10.896L86.9622 11.3507C86.7917 11.4076 86.678 11.5213 86.6212 11.7486H86.5075L86.337 11.8623C86.1665 12.0896 86.0528 12.2601 85.9391 12.3738C85.5413 12.8285 85.3139 13.0559 85.3139 13.1127L85.1434 13.3969C85.0866 13.6243 85.0297 13.7948 84.9729 13.9653C84.9161 14.1358 84.8592 14.2495 84.8024 14.3063C84.6319 14.3632 84.575 14.5905 84.5182 14.9315C84.4045 14.9884 84.3477 15.2157 84.2908 15.7273C84.234 15.8409 84.1772 16.1251 84.1772 16.5798C84.1203 16.6367 84.0635 16.6935 84.0635 16.7504C84.0635 16.8072 84.1203 16.8072 84.1772 16.9209C84.234 17.4893 84.3477 17.8303 84.5182 18.0008V18.1713H84.6319C84.575 18.2281 84.575 18.285 84.575 18.3987H84.6319V18.285L84.916 18.5692V18.6828L84.6887 18.5123V18.4555C84.6319 18.5123 84.6319 18.5123 84.6319 18.626C84.916 18.7397 85.1434 18.7965 85.1434 18.7965C85.0866 18.7965 85.0866 18.7965 85.0866 18.8534H85.1434V18.7965C85.1434 18.7965 85.2571 18.8534 85.4276 18.967L85.4844 19.0807C85.4844 19.1376 85.4844 19.1376 85.5981 19.1376L85.9391 19.2512C86.337 19.3649 86.6212 19.4217 86.9054 19.4217V19.3081H87.0191V19.3649H87.0759V19.3081H87.1896V19.2512C87.3032 19.2512 87.3601 19.2512 87.3601 19.1944H87.758C87.8716 19.0807 87.9853 19.0807 88.1558 19.0807V19.0239H88.2695L90.0315 18.3418L90.2588 18.1145L90.4293 18.0008L90.5999 17.8871L91.5661 17.1482C92.0208 16.9209 92.1913 16.7504 92.0776 16.7504V16.6935H92.1345V16.6367C92.1345 16.523 92.2482 16.4662 92.4187 16.4093V16.2957C92.5324 16.2388 92.646 16.182 92.8165 15.9546H92.8734V15.8409H93.0439C93.0439 15.6704 93.2144 15.4999 93.5554 15.3294C93.5554 15.2726 93.5554 15.2157 93.6123 15.1021C93.6691 14.9884 93.6691 14.9315 93.6691 14.8747H93.7259V14.7042H93.7828ZM84.575 18.4555C84.575 18.4555 84.5182 18.5123 84.575 18.4555V18.4555ZM91.7366 10.4413L91.8503 10.555C91.6798 10.555 91.5093 10.555 91.3956 10.6118V10.4982C91.5093 10.4982 91.6229 10.4982 91.6798 10.4413V10.4982L91.7366 10.4413ZM90.9409 10.214C90.884 10.2708 90.884 10.2708 90.7704 10.2708L90.7135 10.214C90.8272 10.214 90.884 10.214 90.9409 10.214ZM91.2251 10.4413V10.555C91.1114 10.555 91.0546 10.555 90.9409 10.6118C90.9409 10.555 91.0546 10.4982 91.2251 10.4413ZM90.543 10.1003C90.4862 10.214 90.4293 10.2708 90.2588 10.3277C90.2588 10.2708 90.2588 10.214 90.3157 10.214V10.0435C90.3157 10.1003 90.4293 10.1003 90.543 10.1003ZM90.0883 10.0435C90.0883 10.1003 90.0315 10.1003 89.9178 10.1571V10.1003C89.9746 10.1003 90.0315 10.1003 90.0883 10.0435ZM90.7704 10.896L90.543 11.0666H90.4293V11.1234C90.3725 11.1234 90.3725 11.1234 90.3157 11.1802V11.1234H90.3725C90.4293 11.0666 90.4862 11.0666 90.543 10.9529C90.5999 10.896 90.6567 10.8392 90.7135 10.7824H90.7704V10.896ZM92.4187 11.5781C92.4187 11.6918 92.3618 11.8054 92.305 11.8623V12.0896H92.2482V12.0328L92.1913 12.2033H92.0776C92.0776 12.2601 92.0776 12.2601 92.1345 12.2601C92.1345 12.317 92.1345 12.3738 92.0776 12.4307C92.0208 12.4875 92.0208 12.5443 92.0208 12.6012H91.964V12.658C91.9071 12.658 91.9071 12.658 91.8503 12.7149V12.8285H91.7935V12.8854H91.7366V12.999C91.7366 12.999 91.6229 13.0559 91.5093 13.1127C91.5093 13.1127 91.5093 13.1696 91.5661 13.1696L91.1682 13.5674C91.1682 13.4537 91.2251 13.3969 91.3387 13.2832L91.7366 12.8854C91.8503 12.7717 91.964 12.4875 92.1345 11.976C92.1913 11.9191 92.1913 11.8054 92.1913 11.6918C92.1913 11.5781 92.1913 11.4644 92.2482 11.2939C92.2482 11.3507 92.305 11.3507 92.3618 11.3507C92.3618 11.4644 92.3618 11.5213 92.4187 11.5781ZM89.5199 10.214C89.4631 10.2708 89.4063 10.2708 89.4063 10.214H89.5199ZM90.1452 10.8392C90.0315 10.9529 89.9178 11.0666 89.7473 11.1802V11.1234L89.9178 10.9529C89.7473 10.896 89.861 10.896 90.1452 10.8392ZM89.3494 10.214C89.2926 10.2708 89.2357 10.3277 89.1221 10.3277C89.0084 10.3845 88.8947 10.3845 88.7242 10.4982V10.6118H88.6105V10.555H88.7242V10.4982C88.7242 10.4982 88.781 10.4982 88.8379 10.4413V10.3845C88.9516 10.3845 89.0084 10.3845 89.0652 10.3277V10.2708C89.0652 10.3277 89.1789 10.2708 89.3494 10.214ZM89.861 11.5213C89.6336 11.5781 89.4631 11.7486 89.3494 11.9191C89.3494 11.8623 89.4631 11.7486 89.6336 11.5781C89.5768 11.5781 89.6336 11.5213 89.861 11.5213C89.8041 11.5213 89.8041 11.5213 89.861 11.5213ZM88.2127 10.555C88.099 10.6687 88.0421 10.7255 87.9853 10.7255C87.9853 10.555 88.099 10.4982 88.2127 10.555ZM89.2926 10.7255C89.3494 10.7824 89.1789 10.896 88.8947 11.1234V11.1802C88.7242 11.1802 88.4969 11.2939 88.2695 11.5213L87.8716 11.7486L87.9853 11.5213L88.5537 11.2939C88.6105 11.2371 88.6674 11.1802 88.781 11.1234C88.8379 11.0666 88.9516 11.0097 89.0652 10.9529L89.1789 10.896C89.2357 10.8392 89.2357 10.8392 89.2357 10.7824L89.2926 10.7255ZM90.9409 13.7379L90.8272 13.8516V13.9085H90.7704C90.7704 13.7948 90.8272 13.7379 90.9409 13.7379ZM87.8716 10.7824C87.758 10.8392 87.7011 10.9529 87.5874 11.0666H87.5306L87.4738 10.9529C87.5306 10.9529 87.5874 10.896 87.6443 10.8392C87.758 10.7824 87.8716 10.7824 87.8716 10.7824ZM92.1913 11.6918C92.1345 11.9191 92.0776 12.0896 91.8503 12.317V12.4307C91.8503 12.5443 91.6798 12.658 91.4524 12.8854V12.9422L90.884 13.4537C90.8272 13.5106 90.7704 13.5674 90.6567 13.6811C90.543 13.7948 90.3157 13.9653 89.9746 14.1926H89.9178V14.2495C89.861 14.2495 89.8041 14.2495 89.7473 14.3063V14.3632L88.9516 14.761C88.8947 14.8179 88.781 14.8747 88.6674 14.9315C88.4968 14.9884 88.3832 15.0452 88.2127 15.1021V15.1589H88.1558V15.2157L87.5306 15.3862V15.3294V15.3862C87.4738 15.4431 87.3033 15.4999 87.1327 15.6136H87.0759L87.2464 15.4431V15.3294C87.1896 15.3294 87.1896 15.3294 87.1327 15.2726H87.1896L87.3033 15.1589L87.4738 15.1021C87.4169 15.0452 87.4169 15.0452 87.4169 14.9315C87.4169 14.8179 87.5306 14.6473 87.8148 14.4768C87.8148 14.4768 87.8716 14.42 87.9285 14.3063H87.9853C87.9285 14.3632 87.9285 14.42 87.9285 14.42C87.9285 14.4768 87.9285 14.4768 87.8716 14.5337H87.9285L88.099 14.1926C88.0421 14.1358 88.0421 14.1358 87.9853 14.1358V14.1926H87.9285L88.099 14.0221C88.1558 14.079 88.1558 14.079 88.1558 14.1358L88.2695 14.0221H88.1558C88.1558 13.9085 88.2695 13.7379 88.44 13.4537C88.6674 13.1696 88.781 12.999 88.9516 12.8285L89.0084 12.7717V12.7149L89.1789 12.6012H89.2357L89.861 11.8623C89.9178 11.8623 89.9178 11.8054 90.0315 11.7486C89.9178 11.7486 89.9746 11.6918 90.2588 11.6349C90.3157 11.6349 90.3157 11.5781 90.3725 11.5213C90.4293 11.4644 90.4862 11.4076 90.543 11.4076C90.4862 11.5213 90.4293 11.6349 90.3157 11.7486V11.8623C90.543 11.6349 90.6567 11.4644 90.7135 11.4076H90.7704V11.2939L90.9409 11.1802C91.3388 10.8392 91.7366 10.6687 92.1913 10.7255L92.3618 10.8392C92.3618 11.0097 92.3618 11.1234 92.4187 11.1802V11.6918H92.1913ZM88.3832 12.3738C88.2695 12.4875 88.2127 12.4875 88.2127 12.4875V12.3738C88.1558 12.3738 88.099 12.4307 88.099 12.5443H88.2127V12.6012L88.0421 12.7717V12.8285H87.9853V12.9422C87.9853 12.999 87.9285 12.999 87.8716 12.999C87.8148 12.999 87.8148 12.999 87.7011 13.0559V13.1127C87.6443 13.1127 87.6443 13.1127 87.5874 13.1696V13.1127H87.6443V13.0559C87.7011 13.0559 87.758 12.999 87.8148 12.8854V12.7717C87.8148 12.8285 87.8148 12.8285 87.8716 12.8854H87.9285C87.9285 12.8285 87.9285 12.7717 87.9853 12.7717H87.9285V12.7149L88.3832 12.317L88.2695 12.4307C88.3263 12.317 88.3263 12.317 88.3832 12.3738ZM87.8148 13.5674L88.2127 13.1127C88.2127 13.2264 88.1558 13.3401 88.0421 13.5106C87.9285 13.6811 87.8148 13.7948 87.8148 13.8516H87.758V13.7379H87.7011L87.5874 13.9085C87.5306 13.9085 87.5306 13.9085 87.5306 13.8516L87.7011 13.6811V13.7948H87.758L87.8148 13.5674ZM87.2464 12.8854H87.0759C87.0759 12.999 87.0759 13.0559 87.1327 13.0559H87.0191C87.0191 13.0559 87.0191 13.1127 86.9622 13.1696C86.9054 13.2264 86.9054 13.2832 86.9054 13.3401L86.8485 13.2832C86.7349 13.3969 86.7349 13.4537 86.7349 13.5106V13.5674H86.678V13.6243H86.6212H86.5644C86.5644 13.6811 86.5075 13.7948 86.3938 13.8516H86.4507V13.9085L86.3938 13.8516C86.3938 13.8516 86.3938 13.9085 86.337 13.9085C86.2802 13.9085 86.2802 13.9085 86.2233 13.9653C86.2233 13.9085 86.2233 13.8516 86.2802 13.8516H86.337L86.3938 13.7948C86.3938 13.7379 86.3938 13.7379 86.337 13.6811H86.3938V13.7379C86.4507 13.6811 86.5075 13.6243 86.5075 13.5674V13.6243L86.7349 13.3401C86.7349 13.2832 86.7917 13.2264 86.9054 13.1127C86.9054 13.0559 86.9622 13.0559 87.0191 12.999C87.0191 12.9422 87.0191 12.8854 87.0759 12.8285H87.2464V12.8854ZM86.3938 12.4875H86.5075C86.5075 12.5443 86.5075 12.6012 86.4507 12.658C86.3938 12.7149 86.3938 12.7717 86.3938 12.7717V12.7149C86.337 12.7149 86.337 12.7717 86.2802 12.8285H86.2233L85.7118 13.2264L86.2233 12.6012C86.2802 12.6012 86.3938 12.5443 86.3938 12.4875ZM86.2802 13.0559V13.1127C86.2233 13.1127 86.1665 13.1127 86.1665 13.1696V13.1127L86.2802 13.0559ZM87.6443 13.9085C87.6443 13.9653 87.6443 14.0221 87.5874 14.079C87.5306 14.1358 87.5306 14.1926 87.4738 14.2495C87.5306 14.2495 87.5874 14.2495 87.6443 14.3063H87.5306V14.4768C87.4738 14.5337 87.4169 14.5905 87.4169 14.5905L87.3033 14.761H87.2464L87.0759 14.9315C87.1327 14.9884 87.1327 14.9884 87.1327 15.0452C87.0759 15.1021 87.0191 15.1589 87.0191 15.2157H86.9622V15.2726V15.3294V15.4431H86.9054V15.5568C86.8485 15.5568 86.8485 15.5568 86.8485 15.6136V15.6704H86.7917C86.7917 15.6704 86.7349 15.6704 86.678 15.7273V15.7841C86.7349 15.7273 86.7349 15.7273 86.7917 15.7273C86.7917 15.7841 86.7917 15.8409 86.7349 15.8978C86.678 15.9546 86.678 15.9546 86.678 16.0115H86.5644V16.0683H86.5075V16.1251H86.3938V15.8978L86.5075 15.7273L86.9054 14.761L87.6443 13.9085ZM86.2233 14.0221C86.2233 14.079 86.1665 14.079 86.1096 14.1358L86.2233 14.0221ZM86.2233 14.8179L86.1096 14.9315C86.1096 14.8747 86.1096 14.8179 86.2233 14.8179C86.1665 14.8179 86.1665 14.8179 86.2233 14.8179ZM85.996 14.761L85.9391 14.6473H85.996V14.761ZM86.1096 14.9884H85.996C85.996 15.0452 85.996 15.1021 85.9391 15.1021H85.8823V15.1589H85.8255V15.1021C85.8823 15.1021 85.8823 15.0452 85.9391 14.9884C85.996 14.9315 85.996 14.9315 86.1096 14.8747V14.9884ZM86.0528 13.2832V13.3969C85.996 13.4537 85.996 13.4537 85.9391 13.4537C85.8823 13.4537 85.8823 13.5106 85.8255 13.5674C85.8255 13.5106 85.6549 13.6811 85.3708 14.079C85.4844 14.1358 85.5413 14.1926 85.5413 14.2495C85.5413 14.3063 85.4844 14.3632 85.3708 14.3632C85.4276 14.3063 85.4276 14.2495 85.4276 14.1926H85.3708V14.3063H85.3139V14.42C85.2002 14.5337 85.0866 14.6473 85.0866 14.7042V14.8747L85.0297 14.9315V15.0452C85.1434 14.9884 85.2571 14.9884 85.2571 14.9884V15.0452H85.2002L85.1434 14.9884H85.0866C84.9729 15.2157 84.916 15.3862 84.916 15.3862C84.916 15.3862 84.8592 15.3862 84.8592 15.4431C84.8592 15.3862 84.8592 15.3862 84.8024 15.3294V15.4431C84.7455 15.3862 84.7455 15.3862 84.7455 15.3294C84.6887 15.3862 84.6887 15.4431 84.6887 15.5568L84.8024 15.4999V15.6136C84.6887 15.6136 84.6319 15.6704 84.575 15.7273L84.6887 15.6704C84.6887 15.6704 84.6319 15.7841 84.575 15.9546H84.4613V15.8978C84.4613 15.8409 84.5182 15.7273 84.575 15.5568C84.6319 15.4999 84.6887 15.3294 84.6887 15.1021H84.8024V14.8747H84.916C84.916 14.7042 85.0297 14.42 85.3139 13.9653C85.3139 13.9085 85.3708 13.7948 85.4844 13.7379V13.6243H85.7686L85.996 13.3401C85.9391 13.2832 85.996 13.2832 86.0528 13.2832ZM89.0084 18.3418H88.8947V18.285L88.9516 18.2281C88.9516 18.285 88.9516 18.3418 89.0084 18.3418ZM88.781 18.3987H88.6674V18.3418L88.781 18.3987ZM88.6674 18.3987C88.6674 18.4555 88.6105 18.5123 88.4968 18.5692C88.4968 18.3418 88.5537 18.285 88.6674 18.3987ZM88.44 18.5123C88.3832 18.5692 88.3263 18.626 88.3263 18.626V18.5692C88.3832 18.5123 88.3832 18.5123 88.44 18.5123ZM86.0528 16.0115C85.996 16.0683 85.9391 16.1251 85.9391 16.1251C85.8255 16.3525 85.8255 16.4662 85.8255 16.523C85.996 16.3525 86.0528 16.182 86.1096 16.0683H86.0528V16.0115ZM86.2802 16.3525H86.3938C86.4507 16.5798 86.337 16.7504 86.2233 16.9209C86.2233 16.864 86.2233 16.8072 86.1665 16.8072C86.1665 16.8072 86.2233 16.6367 86.2802 16.3525ZM86.337 14.8179L86.1665 14.9884V15.1021C86.0528 15.1589 85.996 15.2726 85.8823 15.3862H85.8255C85.7118 15.6136 85.5981 15.7273 85.5981 15.6704V15.8409L85.4844 16.0115V16.0683L85.3708 16.182C85.3139 16.3525 85.2571 16.4662 85.2571 16.4662C85.0866 16.8072 84.9161 16.9777 84.8592 16.9777C84.8592 17.1482 84.9161 17.2051 84.9729 17.2619C85.0297 17.2619 85.0297 17.2619 85.0866 17.2051C85.1434 16.9777 85.1434 16.864 85.2571 16.9209L85.4276 16.6367C85.5413 16.3525 85.5981 16.182 85.7118 16.182C85.7118 16.1251 85.7118 16.1251 85.7686 16.1251C85.996 15.6704 86.1665 15.3862 86.2233 15.2726V15.2157H86.2802C86.2802 15.1589 86.337 15.1021 86.3938 14.9884C86.4507 14.8747 86.3938 14.8747 86.337 14.8179ZM86.2802 16.9777L86.4507 16.8072C86.4507 16.864 86.3938 17.2051 86.337 17.8303C86.2802 17.7166 86.2802 17.6029 86.2802 17.4324H86.2233V16.9777H86.2802ZM86.7917 18.1145C86.7349 17.8871 86.7349 17.7166 86.7349 17.6029C86.8485 17.8871 86.8485 18.0576 86.7917 18.1145ZM87.0191 18.2281C86.9054 18.1145 86.9054 18.0576 86.9622 18.0576L87.0191 18.2281ZM87.3601 18.7965L87.4738 18.9102C87.4169 18.9102 87.4169 18.9102 87.3601 18.967L87.3033 18.9102C87.1896 18.9102 87.0759 18.8534 86.9054 18.8534C86.8485 18.9102 86.7349 18.9102 86.5644 19.0239C86.5644 18.967 86.5644 18.9102 86.6212 18.8534C86.678 18.7965 86.678 18.7397 86.678 18.6828H86.7917V18.7397C86.8485 18.7965 86.9054 18.7965 87.0191 18.7965C87.1327 18.7965 87.1896 18.7965 87.3601 18.7965ZM85.9391 18.1145L85.4844 17.6029V17.4324H85.5413V17.4893H85.5981C85.5981 17.5461 85.5981 17.5461 85.6549 17.5461H85.7118V17.6029H85.7686C85.7686 17.6598 85.8255 17.7166 85.8823 17.7734C85.8823 18.0576 85.9391 18.1145 85.9391 18.1145ZM85.2002 18.1145L85.0866 18.0008C84.7455 17.8871 84.6319 17.6029 84.6319 17.2051H84.6887C84.6887 17.2619 84.6887 17.2619 84.7455 17.3756C84.8024 17.4324 84.8024 17.4893 84.8024 17.5461C84.7455 17.6029 84.7455 17.6598 84.8024 17.7166C84.8592 17.6598 84.8592 17.6598 84.8592 17.6029V17.6598L84.9729 17.7734C84.9729 17.8303 84.9729 17.8871 85.0297 17.8871C85.0297 17.7734 85.0297 17.7166 84.9729 17.6029V17.6598H85.0297V17.7166H85.0866V17.7734C85.0297 17.7734 85.0866 17.8871 85.2002 18.1145ZM89.9178 12.0896C89.7473 12.1465 89.6904 12.2033 89.6336 12.2601C89.5768 12.317 89.5199 12.3738 89.4631 12.3738C89.4631 12.317 89.5199 12.2601 89.5768 12.2033V12.0896H89.6904C89.5199 12.0896 89.6336 12.0328 89.9178 11.976V12.0896ZM89.4631 12.4875L89.3494 12.6012L89.2357 12.7717H89.1789C89.1789 12.7149 89.2357 12.6012 89.3494 12.4875H89.4631ZM85.5981 18.6828C85.3708 18.5692 85.3139 18.5123 85.2571 18.3987C85.2571 18.3987 85.3139 18.3987 85.3708 18.285C85.4276 18.4555 85.5413 18.5692 85.5981 18.6828Z" fill="#B8B8B6"/>
<path fill-rule="evenodd" clip-rule="evenodd" d="M84.5752 64.323V67.847L109.754 66.2555L84.5752 64.323Z" fill="#B8B8B6"/>
<path fill-rule="evenodd" clip-rule="evenodd" d="M61.7258 64.323V67.847L39.4453 66.2555L61.7258 64.323Z" fill="#B8B8B6"/>
<path fill-rule="evenodd" clip-rule="evenodd" d="M64.2827 66.142L73.2631 61.595L82.0161 66.1989L73.1494 71.1438C73.1494 71.1438 64.1121 65.9715 64.2827 66.142Z" fill="#B8B8B6"/>
<path fill-rule="evenodd" clip-rule="evenodd" d="M73.1497 63.584L73.9455 65.5733L76.0485 65.7438L74.4002 67.1079L74.9685 69.1541L73.1497 68.0174L71.3309 69.1541L71.8424 67.0511L70.251 65.7438L72.354 65.5733L73.1497 63.584Z" fill="#B8B8B6"/>
</svg>
