<?xml version="1.0" encoding="utf-8"?>
<svg width="95" height="111" viewBox="0 0 95 111" fill="none" xmlns="http://www.w3.org/2000/svg">
<g clip-path="url(#clip0)">
<path d="M58.0484 42.3283C58.0484 42.295 58.0484 42.295 58.0484 42.3283C58.0148 41.7289 57.9812 40.5966 57.9812 40.5966C57.9477 39.5975 57.8469 36.8666 57.8469 36.8666C57.9477 35.7676 58.1827 35.8675 57.5112 35.3347C56.8733 34.8018 56.7054 34.5354 56.1683 34.1024C55.6647 33.7028 55.5304 33.3698 55.5975 32.8036C55.6311 32.2042 55.799 30.8054 55.799 30.8054C55.799 30.8054 56.1347 31.9044 56.2354 32.3707C56.3026 32.7703 56.6719 33.3365 56.6719 33.3365C56.9405 33.2033 56.8397 32.2708 56.8397 32.2708C57.1419 29.5066 56.0676 28.4742 55.6647 28.2411C55.2618 28.008 53.7174 26.9756 52.9788 26.7757C52.2402 26.5759 50.8637 26.6758 49.9236 26.6425C48.9836 26.6092 46.9356 26.9756 46.9356 26.9756C46.5663 27.0422 44.9883 26.9089 44.0147 26.7757C43.209 26.6758 42.5375 26.6425 41.4631 26.5759C40.4224 26.5093 40.4559 26.3428 40.2545 26.2429C40.0531 26.143 39.9523 25.5768 39.8516 25.2105C39.7509 24.8441 39.4823 24.2447 39.4823 24.2447C39.8852 24.0449 40.0195 23.6119 40.0195 23.6119C42.0003 23.6119 41.9332 21.6803 41.9332 21.6803C40.6238 21.4139 40.1202 22.2465 39.8852 22.413C39.6502 22.5795 39.348 22.8793 39.348 22.8793C39.5495 22.7127 39.9859 21.8802 40.3217 21.4139C40.691 20.9477 42.1346 20.4148 42.9404 20.1817C43.7461 19.9486 43.1754 19.2159 43.1754 19.2159C43.1754 19.0161 43.1082 18.5165 43.1082 18.5165C43.6118 18.4499 43.5447 18.2501 43.5447 18.2501C43.3433 18.35 43.0747 18.3167 43.0747 18.3167C43.0411 17.3842 42.8061 16.7515 42.5375 16.4851C42.3025 16.2186 42.2353 16.3851 42.2353 16.3851C42.5039 16.6849 42.6382 17.3842 42.6718 17.6507C42.6718 17.9171 42.7725 18.3833 42.7054 18.3833C42.6382 18.3833 42.4703 18.35 42.4703 18.1502C42.4703 17.9504 42.3696 17.4175 42.3696 17.1844C42.3696 16.9513 42.0003 16.2519 42.0003 16.2519C41.8996 16.0854 41.9667 15.8523 41.866 16.0188C41.7653 16.2186 41.9667 16.7515 42.0339 17.251C42.101 17.7839 42.2353 18.783 42.1682 19.3158C42.0675 19.8487 41.7653 19.9486 41.4967 20.0485C41.2281 20.1817 40.2545 20.7479 40.1874 20.8478C40.1202 20.9144 39.9859 20.8811 39.9859 20.8811C39.8181 19.9153 39.5495 18.6165 39.348 18.4832C39.1802 18.35 39.2473 18.6165 39.2473 18.6165C39.4823 19.6489 39.583 21.1808 39.583 21.1808C39.4152 21.8136 38.8444 22.413 38.8444 22.413C38.8444 22.413 38.8109 22.4463 38.6094 22.3131C38.408 22.1799 38.2737 22.3131 38.173 22.3131C38.0722 22.3131 37.9715 22.2465 37.8037 22.2798C37.6358 22.2798 37.5015 22.2132 37.5015 22.2132C37.3001 22.1466 37.065 22.3797 37.065 22.3797C37.065 22.3797 36.7965 21.747 36.6957 21.5138C36.595 21.2807 36.5614 20.1151 36.595 19.7155C36.6286 19.2825 36.6622 19.0161 36.5614 18.9495C36.4607 18.8829 36.3936 19.4157 36.2929 19.7155C36.1921 20.0485 36.2257 21.2807 36.2257 21.2807C36.2257 21.2807 36.1586 21.2474 36.0578 21.2141C35.9235 21.1808 35.0842 20.5813 35.0842 20.5813C34.7821 20.4481 34.547 20.3149 34.3792 19.9819C34.2113 19.6489 34.312 18.6831 34.312 18.6831C34.4463 18.1502 34.547 17.3176 34.6813 16.6849C34.8156 16.0521 34.8828 16.0188 34.782 15.9522C34.6813 15.8856 34.7149 15.9855 34.5806 16.3518C34.4463 16.7182 34.0099 18.2168 33.9763 18.4166C33.9427 18.6165 33.842 18.6165 33.6741 18.4832C33.5063 18.35 33.5398 18.2168 33.4727 18.0836C33.372 17.9171 33.372 18.1169 33.372 18.1169C33.2713 18.5498 33.5734 18.783 33.7077 18.8496C33.8756 18.9162 33.9427 19.3824 33.9091 19.7155C33.9091 20.0152 33.607 19.9819 33.4391 19.7488C33.2712 19.5156 33.2041 19.0827 33.1705 18.8829C33.1705 18.6831 33.137 18.5165 33.2712 18.1169C33.4055 17.7173 33.3048 17.7506 33.3048 17.7506C33.2377 17.6507 33.137 17.8172 33.137 17.8172C33.2041 17.0845 33.3384 16.4851 33.5734 16.1187C33.8084 15.7524 33.607 15.8523 33.607 15.8523C32.8012 16.3518 32.8012 18.5498 32.8012 18.5498C32.8012 18.5498 32.8684 18.4499 32.5662 19.116C32.2976 19.8154 32.6334 20.0152 33.1705 20.3482C33.7077 20.6813 34.6142 20.9477 35.3864 21.4472C36.1586 21.9135 36.4271 22.5129 36.4271 22.5129H36.3264L35.9235 22.2465C35.4199 21.747 34.7149 21.6803 34.1777 21.647C33.607 21.6137 34.0434 22.3131 34.0434 22.3131C34.5135 23.9117 35.9235 23.6119 35.9235 23.6119C36.0243 23.9117 36.4271 24.1115 36.4271 24.1115C36.3936 24.2447 36.4943 24.6443 36.5614 24.8775C36.6286 25.1106 36.5279 25.4103 36.5279 25.4103C36.2593 26.809 36.4607 27.5417 36.4607 27.5417C36.4607 29.0404 37.3336 29.7397 37.5351 29.9395C37.7365 30.1394 38.408 30.9053 38.4751 31.0718C38.5423 31.2051 38.6094 31.6047 38.8109 31.7046C39.0123 31.8045 39.4152 32.3041 39.4152 32.3041C39.5159 33.1699 40.5567 33.6695 40.5567 33.6695C40.5567 33.6695 40.6574 35.2014 40.5567 36.3004C40.4224 37.4328 40.4559 37.7325 40.5567 38.2653C40.6574 38.7982 40.5902 39.5975 40.5902 40.2635C40.5902 40.7298 40.4895 41.4624 40.4224 41.8954L40.1538 42.4615C40.1538 42.4615 40.6238 42.4948 40.7581 42.4948C40.7581 42.4948 41.2617 42.4615 41.3289 42.4615C41.396 42.4615 41.5303 42.4282 41.5303 42.3616C41.5303 42.295 41.4967 42.2284 41.4631 42.1618C41.4631 42.1285 41.4631 42.0952 41.4296 42.0286C41.3624 41.7289 41.3289 40.7631 41.3289 40.7631C41.3289 40.3634 41.2953 39.7973 41.396 38.8648C41.4631 37.9323 41.8325 37.0331 41.8325 37.0331C41.8325 37.0331 41.8996 37.566 41.8996 37.7658C41.8996 37.9656 41.8996 39.0646 42.0003 40.0637C42.0675 40.7631 41.9332 41.3292 41.866 41.7622L41.6646 42.3616C41.6646 42.3616 42.0003 42.3949 42.1682 42.4282C42.1682 42.4282 42.6718 42.3949 42.7389 42.3949C42.8061 42.3949 42.9404 42.3616 42.9404 42.295C42.9404 42.2284 42.9068 42.1618 42.8732 42.0952C42.8732 41.7622 42.7389 41.0295 42.7054 40.6632C42.6382 40.1303 42.5375 38.8648 42.9739 37.1996C43.444 35.5678 43.5783 33.836 43.5783 33.836C43.5783 33.836 44.149 33.8027 44.5519 33.6695C44.9548 33.5363 46.6334 33.836 47.7078 33.9026C48.7486 33.9359 49.9572 33.3032 49.9572 33.3032C49.9572 33.3032 51.2666 35.5012 51.8373 36.4337C52.3745 37.3661 51.8037 38.0988 51.5687 38.7316C51.4009 39.2311 50.7965 40.5966 50.3265 41.4624L49.3193 42.3949C49.3193 42.3949 50.0243 42.6281 50.6622 42.5948H50.763C50.8301 42.5948 50.8973 42.5948 50.9308 42.5614L51.3001 42.4948L51.2666 42.1618C51.3001 42.0286 51.3337 41.8621 51.4009 41.629C51.5687 41.0628 52.9788 38.3985 53.4488 37.7658C53.9189 37.133 54.3217 36.8999 53.9524 36.3671C53.5831 35.8342 53.1131 34.3689 53.1131 34.3689C53.1131 34.3689 54.6575 35.5345 55.4632 36.2005C56.269 36.8666 56.6719 37.4328 56.9405 38.3986C57.2426 39.331 56.8733 41.196 56.7726 41.962L56.0676 42.7613C56.0676 42.7613 56.0004 42.9278 56.1683 42.9278C56.3361 42.9611 57.4441 42.9611 57.5784 42.9611C57.6791 42.9611 57.8805 42.8945 57.9812 42.8279L58.1155 42.7946L58.0484 42.3283ZM42.7054 18.4166L42.7389 18.6165L42.5375 18.3833L42.7054 18.4166ZM42.5375 18.8163L42.8061 19.3824C42.8061 19.3824 42.6718 19.4823 42.6046 19.4823C42.5039 19.5156 42.5375 18.8163 42.5375 18.8163Z" fill="#B8B8B6"/>
<path d="M0 82.4587V28.0746L46.9691 0.299729L47.5063 0L94.979 28.0746V82.4254L47.9092 111L0 82.4587ZM2.11512 29.2735V81.2931L47.9427 108.602L92.8975 81.2931V29.2735L47.5063 2.43113L2.11512 29.2735ZM46.9691 2.0981L47.5063 1.19892L46.9691 2.0981Z" fill="#B8B8B6"/>
<path d="M8.0918 79.2283L84.4712 30.4724L85.6126 32.2042L9.23329 80.9601L8.0918 79.2283Z" fill="#B8B8B6"/>
<path d="M8.0918 32.2042L9.23329 30.4724L85.6126 79.2283L84.4712 80.9601L8.0918 32.2042Z" fill="#B8B8B6"/>
<path d="M60.9023 54.7506L68.2885 47.8568L68.4899 47.657H79.9384L87.4925 54.7506L74.3653 67.9386L60.9023 54.7506ZM62.9839 54.7506L74.3653 65.9071L85.4109 54.7506L79.3677 49.0557H69.0607L62.9839 54.7506Z" fill="#B8B8B6"/>
<path d="M61.9434 55.4832V54.0178H86.4519V55.4832H61.9434Z" fill="#B8B8B6"/>
<path d="M68.1875 54.7173L71.6791 48.0899L72.9885 48.756L69.799 54.7839L74.2979 64.7415L78.5617 54.8172L75.6744 48.6561L77.0173 48.0566L80.1396 54.7839L74.3314 68.3716L68.1875 54.7173Z" fill="#B8B8B6"/>
<path d="M16.1485 64.0088C14.4698 61.1447 12.0525 60.3787 9.46739 57.6812C8.12446 56.2824 7.55371 54.6506 7.55371 53.1186C7.55371 51.2869 8.35947 49.6218 9.66883 48.5561C10.5753 47.8567 11.5825 47.5237 12.6233 47.5237C14.4362 47.5237 16.1149 48.5561 17.055 50.2545C17.995 48.6893 19.6401 47.7235 21.3524 47.7235C22.4603 47.7235 23.5682 48.1231 24.4747 48.9224C25.6833 49.9881 26.4219 51.5867 26.4219 53.3184C26.4219 54.917 25.784 56.6154 24.3068 58.0142C21.6209 60.5785 19.1701 61.2113 17.3907 64.0088L16.7528 65.0079L16.1485 64.0088ZM16.7864 63.6424L17.4243 63.2761L16.7864 63.6424ZM10.6089 49.6884C9.66883 50.4544 9.03094 51.7199 9.03094 53.1186C9.03094 54.2842 9.46739 55.5497 10.5417 56.6821C12.5561 58.8801 14.9063 59.7459 16.82 62.3436C18.8344 59.8459 21.2181 59.0466 23.2996 56.9818C24.5082 55.8162 24.9447 54.5174 24.9447 53.3184C24.9447 51.9863 24.374 50.7874 23.501 50.0214C22.8296 49.4553 22.091 49.1888 21.3188 49.1888C19.7073 49.1888 18.0286 50.4544 17.6929 52.6524L16.2492 52.6191C15.9806 50.3545 14.2684 48.989 12.5897 48.989C11.9182 48.9557 11.2468 49.1888 10.6089 49.6884Z" fill="#B8B8B6"/>
<path fill-rule="evenodd" clip-rule="evenodd" d="M42.7054 80.527C42.6383 79.5945 42.5711 78.329 43.0411 77.4631C41.3625 76.5306 37.468 74.1661 36.5279 74.3659C35.3864 74.6324 35.2186 74.699 34.7821 76.0977C34.3456 77.4631 33.5735 85.9221 36.7629 86.2551C39.1131 86.5216 41.5639 84.6233 43.2762 83.158C42.9068 82.725 42.7054 82.1589 42.7054 81.5261C42.739 81.2597 42.739 80.8933 42.7054 80.527ZM58.3506 76.131C57.9141 74.7656 57.7463 74.6657 56.6048 74.3992C55.7319 74.1994 52.3074 76.2642 50.4609 77.2966C51.1659 78.2624 51.5016 80.2606 51.1659 81.7259C50.998 82.4586 50.6287 83.0247 50.1587 83.4577C51.9045 84.8564 54.1203 86.5216 56.3698 86.2885C59.5928 85.9554 58.787 77.4964 58.3506 76.131Z" fill="#B8B8B6"/>
<path fill-rule="evenodd" clip-rule="evenodd" d="M45.1567 77.5963C45.1567 77.5963 48.2119 77.0968 48.9841 77.8628C49.7562 78.6287 50.2934 82.3587 48.3797 82.9582C46.3318 83.5909 44.3845 83.1247 44.3845 81.5927C44.3845 79.9942 43.8473 77.8295 45.1567 77.5963Z" fill="#B8B8B6"/>
</g>
<defs>
<clipPath id="clip0">
<rect width="94.979" height="111" fill="white"/>
</clipPath>
</defs>
</svg>
