<?xml version="1.0" encoding="utf-8"?>
<svg width="125" height="111" viewBox="0 0 125 111" fill="none" xmlns="http://www.w3.org/2000/svg">
<path d="M124.397 55.434L123.539 55.368H124.199C120.569 53.3222 119.711 50.8805 119.711 50.8805C117.797 40.1897 107.766 41.7075 107.766 41.7075C111.198 31.6106 100.969 31.8086 100.969 31.8086C101.629 26.1992 99.1873 23.2955 99.1873 23.2955C94.1718 14.9804 83.9429 19.0059 83.9429 19.0059C81.1712 9.30499 74.044 8.05113 74.044 8.05113C65.003 6.73127 62.4293 0.593936 62.1653 0.0659929V0V0.0659929C61.9673 0.593936 59.3276 6.73127 50.3526 8.11712C50.3526 8.11712 43.2253 9.37099 40.4536 19.0719C40.4536 19.0719 30.2247 15.0464 25.2093 23.3615C25.2093 23.3615 22.7015 26.1992 23.4275 31.8746C23.4275 31.8746 13.2646 31.6766 16.6302 41.7735C16.6302 41.7735 6.59929 40.2556 4.68549 50.9465C4.68549 50.9465 3.82759 53.3882 0.197979 55.434L0 55.5L0.263971 55.566C3.76159 57.6118 4.6195 60.0535 4.6195 60.0535C6.53329 70.7444 16.5642 69.2265 16.5642 69.2265C13.1326 79.3234 23.3615 79.1255 23.3615 79.1255C22.6356 84.7348 25.1433 87.6385 25.1433 87.6385C30.1587 95.9536 40.3876 91.9281 40.3876 91.9281C43.1593 101.629 50.2866 102.883 50.2866 102.883C59.2616 104.269 61.9013 110.406 62.0993 110.934V111V110.868C62.2973 110.34 64.937 104.203 73.912 102.817C73.912 102.817 81.0392 101.563 83.8109 91.8621C83.8109 91.8621 94.0398 95.8876 99.0553 87.5725C99.0553 87.5725 101.563 84.7348 100.837 79.0595C100.837 79.0595 111 79.2574 107.634 69.1605C107.634 69.1605 117.665 70.6784 119.579 59.9875C119.579 59.9875 120.437 57.5458 124.067 55.5H123.539L124.397 55.434Z" fill="#B8B8B6" fill-opacity="0.1"/>
<path fill-rule="evenodd" clip-rule="evenodd" d="M50.418 53.5858C50.418 53.4538 50.484 53.3878 50.6159 53.3878H50.6819C50.8799 53.4538 51.0779 53.4538 51.2759 53.4538C52.4637 53.4538 53.7836 52.9919 55.3674 51.936C56.2913 51.342 57.0173 50.7481 57.6772 50.1542C58.3371 49.5602 59.393 48.3064 60.9108 46.3926C62.7586 44.1488 64.1445 42.697 65.2004 41.9051C65.5303 41.7071 65.7283 41.5091 65.7943 41.5091V41.5751C65.7943 41.5751 65.7283 41.7071 65.5963 41.7731C64.9364 42.433 64.2765 43.6869 63.6165 45.4687C62.9566 47.1185 62.4947 48.3064 62.1647 49.0983C61.8347 49.8902 61.4388 50.5501 61.0428 51.0121C60.9108 51.1441 60.9108 51.2101 60.9108 51.2101L61.0428 51.1441L61.1088 51.0121L61.3068 50.8141C61.6368 50.4181 62.3627 49.4283 63.6165 47.8444C65.5303 45.3367 67.1802 43.4889 68.566 42.367C69.3579 41.7731 69.8199 41.4431 69.8859 41.4431L69.9519 41.5091L69.8859 41.5751C68.896 42.499 67.9721 43.8189 67.0482 45.6007C66.1903 47.3825 65.7283 48.7683 65.7283 49.8242C65.7283 50.6161 65.8603 51.1441 66.2563 51.606C66.5862 52.002 67.0482 52.2659 67.7081 52.2659C68.962 52.2659 70.2818 51.54 71.5357 50.0882C72.7896 48.6363 73.4495 47.2505 73.4495 45.7327C73.4495 45.1387 73.3175 44.6108 72.9875 44.2808C72.6576 43.8849 72.2616 43.7529 71.7337 43.7529C70.6118 43.6869 69.5559 44.4788 68.566 45.9966C67.9061 46.9865 67.5761 47.8444 67.5761 48.6363C67.5761 49.0323 67.7081 49.2963 67.9061 49.5602C68.1041 49.7582 68.302 49.8902 68.632 49.8902C68.83 49.8902 69.028 49.8242 69.1599 49.7582C69.2919 49.6922 69.4239 49.6262 69.4239 49.5602L69.3579 49.4942L69.2259 49.5602C69.094 49.5602 69.028 49.6262 69.028 49.6262C68.83 49.6262 68.698 49.4942 68.698 49.2303C68.698 49.0983 68.764 48.9003 68.896 48.8343C69.028 48.7683 69.1599 48.7023 69.2919 48.7023C69.6219 48.7023 69.7539 48.8343 69.7539 49.2303C69.7539 49.5602 69.6219 49.7582 69.3579 49.9562C69.1599 50.1542 68.896 50.2862 68.566 50.2862C68.236 50.2862 67.9061 50.1542 67.7741 49.8902C67.5761 49.6262 67.5101 49.2963 67.5101 48.9003C67.5101 47.9764 67.9061 46.9205 68.83 45.7327C69.7539 44.4788 70.7438 43.8189 71.7997 43.8189C72.4596 43.8849 72.9875 44.0828 73.3835 44.5448C73.7794 45.0067 73.9114 45.6667 73.9114 46.3266C73.9114 46.9865 73.7134 47.7124 73.3835 48.5044C72.9875 49.2303 72.5256 49.8902 71.8657 50.5501C70.4138 51.936 69.0939 52.5959 67.7741 52.5959C66.9822 52.5959 66.3882 52.2659 65.8603 51.672C65.3324 51.0781 65.0684 50.2862 65.0684 49.4283C65.0684 48.5044 65.4643 47.3165 66.2563 45.9966C67.0482 44.6108 68.0381 43.4889 69.0939 42.499C69.2259 42.433 69.2919 42.367 69.2919 42.367L69.2259 42.301C69.094 42.301 68.566 42.763 67.7081 43.6209C66.5862 44.8088 64.9364 46.7225 62.9566 49.4283C62.3627 50.1542 61.8347 50.8801 61.2408 51.408C60.6469 52.002 60.3169 52.3319 60.1849 52.3319L60.1189 52.2659L60.1849 52.2C60.5149 51.804 60.7788 51.342 60.9768 50.9461C61.1748 50.4181 61.5048 49.5602 61.9667 48.1744C62.4287 46.6566 62.8906 45.5347 63.2866 44.8088C63.6825 43.9508 64.2765 43.2909 64.8704 42.631L64.9364 42.565L64.8704 42.499C64.8044 42.499 64.4744 42.829 63.8145 43.4889C63.3526 43.9508 62.1647 45.4027 60.1189 47.8444C59.129 49.0983 58.1391 50.0882 57.3472 50.7481C56.4893 51.474 55.5654 52.134 54.5755 52.7279C53.1897 53.4538 52.0018 53.9158 50.9459 53.9158C50.6159 53.7838 50.418 53.7178 50.418 53.5858Z" fill="#C6C6C5"/>
<path fill-rule="evenodd" clip-rule="evenodd" d="M73.3849 53.9174C72.395 53.9174 71.2071 53.5214 69.7553 52.7295C68.7654 52.2016 67.8415 51.5417 67.0496 50.7497C66.2576 50.0238 65.2678 49.0339 64.2779 47.7141C62.2981 45.2723 61.0442 43.8205 60.6483 43.3585C59.9883 42.6986 59.6584 42.3686 59.5924 42.3686L59.5264 42.4346L59.5924 42.5006C60.2523 43.1606 60.7142 43.8865 61.1762 44.6784C61.5722 45.4703 61.9681 46.5922 62.4301 48.11C62.892 49.4959 63.222 50.4198 63.42 50.8817C63.6179 51.2777 63.8819 51.7396 64.1459 52.1356L64.2119 52.2676L64.1459 52.3336C64.0139 52.3336 63.6839 52.0036 63.156 51.4097C62.562 50.8157 62.0341 50.0898 61.4402 49.3639C59.4604 46.7242 57.8766 44.7444 56.6887 43.5565C55.8968 42.6986 55.4348 42.2367 55.2368 42.2367C55.2368 42.2367 55.3028 42.3027 55.3688 42.3686C56.4907 43.3585 57.4146 44.5464 58.2065 45.9323C58.9324 47.3181 59.3284 48.44 59.3284 49.4299C59.3284 50.2878 59.0644 51.0797 58.5365 51.6736C58.0085 52.2676 57.3486 52.5975 56.6227 52.5315C55.3028 52.5315 53.983 51.8716 52.5311 50.4198C51.8712 49.7599 51.4093 49.1659 51.0133 48.374C50.6173 47.6481 50.4854 46.9222 50.4854 46.2622C50.4854 45.5363 50.6833 44.9424 51.1453 44.4144C51.5412 43.9525 52.0692 43.7545 52.6631 43.7545C53.719 43.7545 54.7749 44.4144 55.6988 45.7343C56.5567 46.9222 56.9527 47.978 56.9527 48.9019C56.9527 49.2979 56.8207 49.6279 56.6887 49.8918C56.4907 50.1558 56.1607 50.2878 55.8308 50.2878C55.5668 50.2878 55.2368 50.1558 55.0389 49.9578C54.8409 49.7598 54.7089 49.5619 54.7089 49.2979C54.7089 48.9679 54.9069 48.8359 55.1708 48.8359C55.3028 48.8359 55.4348 48.9019 55.5668 49.0339C55.6988 49.1659 55.7648 49.2319 55.7648 49.4299C55.6988 49.6939 55.6328 49.8258 55.3688 49.8258C55.3688 49.8258 55.2368 49.7599 55.1708 49.7599V49.4959L55.1049 49.5619C55.1049 49.6279 55.2368 49.6939 55.4348 49.8258C55.5668 49.9578 55.7648 49.9578 55.8968 49.9578C56.2267 49.9578 56.4247 49.8258 56.6227 49.6939C56.8207 49.4959 56.9527 49.1659 56.9527 48.77C56.9527 47.978 56.6227 47.0541 55.9628 46.1302C54.9729 44.6124 53.917 43.8205 52.7951 43.8205C52.2672 43.8205 51.8052 44.0185 51.4752 44.3484C51.1453 44.7444 51.0133 45.2063 51.0133 45.8003C50.9473 47.2521 51.6072 48.704 52.8611 50.1558C54.049 51.6076 55.3028 52.3336 56.6227 52.3336C57.2166 52.3336 57.7446 52.1356 58.0745 51.7396C58.4045 51.2777 58.6025 50.7497 58.6025 49.9578C58.6025 48.9019 58.2065 47.5161 57.2826 45.7343C56.4247 43.9525 55.5008 42.6326 54.5769 41.7087L54.4449 41.5767L54.5109 41.5107C54.6429 41.5107 55.0389 41.8407 55.8308 42.4346C57.2166 43.5565 58.8005 45.4043 60.7142 47.978C61.9021 49.5619 62.694 50.5518 62.958 50.9477L63.156 51.2117L63.222 51.2777L63.354 51.3437C63.354 51.2777 63.288 51.2117 63.222 51.1457C62.826 50.6178 62.4961 50.0238 62.1661 49.2319C61.7701 48.506 61.3742 47.2521 60.7802 45.6023C60.1203 43.7545 59.5264 42.5006 58.8664 41.8407C58.7345 41.7087 58.6685 41.6427 58.6685 41.6427V41.5767C58.7345 41.5767 58.9324 41.7087 59.2624 41.9727C60.3183 42.7646 61.7041 44.2824 63.5519 46.4602C65.0698 48.308 66.1257 49.6279 66.7196 50.2878C67.3795 50.8817 68.1054 51.4757 69.0293 52.0696C70.6132 53.1255 71.999 53.5874 73.1209 53.5874C73.3189 53.5874 73.5169 53.5874 73.7148 53.5874H73.8468C73.9788 53.5874 74.0448 53.6534 74.0448 53.7854C73.9128 53.8514 73.7148 53.9174 73.3849 53.9174Z" fill="#C6C6C5"/>
<path d="M93.3129 38.9355L88.6934 41.7072L90.6072 37.0217L87.6375 34.9099L86.9776 35.6359C87.3075 35.8998 87.4395 36.0978 87.5055 36.2958C87.5715 36.4278 87.4395 36.6257 87.3075 36.8237L84.4698 40.1234C84.2059 40.3873 83.8759 40.5193 83.4799 40.3213C83.4139 40.2554 83.282 40.2554 83.084 40.1234L82.49 40.8493L83.4799 41.5752L85.1298 42.6971L85.7237 41.9712C85.3937 41.7732 85.1957 41.5092 85.1298 41.3112C85.0638 41.1133 85.1958 40.9813 85.3277 40.7173L88.1654 37.4837L85.7897 43.225L86.9116 44.0169L92.455 40.6513L89.6833 43.819C89.4853 44.0169 89.2873 44.1489 89.0893 44.1489C88.8913 44.1489 88.5614 44.0169 88.2314 43.753L87.5715 44.4789L91.1351 46.9206L91.729 46.1947C91.3991 45.9967 91.2011 45.7988 91.2011 45.6008C91.1351 45.4028 91.2011 45.2048 91.3991 45.0068L94.2368 41.7072C94.4348 41.4432 94.6327 41.3772 94.8307 41.3772C95.0287 41.3772 95.2927 41.5092 95.6226 41.7072L96.2825 40.9813L93.3129 38.9355ZM83.4799 34.118C83.6779 34.052 83.8759 34.118 84.1399 34.184L84.5358 33.3261L83.4799 32.9961L81.3682 32.2702L81.0382 33.1281C81.6981 33.3261 81.8961 33.6561 81.6981 34.184L80.3123 37.4177C79.9163 38.3416 79.1904 38.6055 78.0685 38.2096C77.6066 38.0116 77.3426 37.8136 77.2106 37.4177C77.0786 37.0877 77.0786 36.7577 77.2766 36.4278L78.6625 33.1281C78.7284 32.8642 78.9264 32.7322 79.1244 32.6662C79.3224 32.6002 79.5864 32.6002 79.9163 32.7322L80.3123 31.8743L76.3527 30.4884L76.0227 31.3463C76.6167 31.5443 76.8806 31.8743 76.6167 32.4022L75.0988 36.0318C74.8349 36.6257 74.9009 37.2857 75.2968 37.8136C75.6928 38.4076 76.3527 38.8695 77.3426 39.1995C79.4544 39.9254 80.8402 39.4634 81.4342 37.9456L82.82 34.58C82.952 34.316 83.15 34.118 83.4799 34.118ZM45.1381 37.4837C44.8081 37.6156 44.5441 37.6156 44.2142 37.6156C44.0822 37.6156 43.8842 37.5496 43.5542 37.4177L41.1785 36.4278C41.7064 36.0318 42.0364 35.6358 42.1684 35.1739C42.3004 34.7119 42.2344 34.25 42.0364 33.7881C41.6405 33.0621 40.9805 32.7322 40.0566 32.7322C39.5947 32.7982 39.0667 32.8641 38.5388 33.0621C38.4728 33.1281 38.3408 33.1281 38.2748 33.1941L33.5893 35.3719L33.5233 35.4379L33.5893 35.6359L33.9193 36.2298C34.3152 36.0978 34.6452 36.0318 34.8432 36.0978C34.9752 36.1638 35.1072 36.2298 35.2391 36.4938L37.3509 40.1894C37.4829 40.4533 37.5489 40.5853 37.4829 40.7833C37.4169 40.9153 37.2189 41.1133 36.823 41.3112L37.2849 42.1032L38.6048 41.5092L41.3105 40.2554L40.8485 39.4634C40.4526 39.6614 40.1226 39.7274 39.8586 39.6614C39.6607 39.5954 39.5287 39.4634 39.3967 39.2655L38.6048 37.8796V37.8136L39.1327 37.6156L43.1583 39.3974L45.1381 38.4735L45.666 38.2096L45.2041 37.4177C45.2041 37.4837 45.1381 37.4837 45.1381 37.4837ZM39.8586 35.7678C39.5947 36.0978 39.3307 36.3618 38.9347 36.4938L38.6048 36.6917L37.9449 36.9557L37.2189 35.6359C37.021 35.3719 37.021 35.1079 37.021 35.0419C37.0869 34.9099 37.3509 34.7779 37.8129 34.514C38.0108 34.448 38.2088 34.382 38.4728 34.316C38.5388 34.316 38.6048 34.316 38.6708 34.316C39.1987 34.25 39.5947 34.448 39.8586 34.8439C40.1226 35.1079 40.0566 35.4379 39.8586 35.7678ZM51.8034 35.5039C51.3414 35.8338 50.7475 36.0978 50.0875 36.2298C49.6916 36.2958 49.4936 36.2958 49.2956 36.2298C49.2296 36.1638 49.1636 36.0318 49.0977 35.7678L48.6357 33.92L49.0977 33.854C49.4936 33.788 49.7576 33.7881 50.0216 33.986C50.1535 34.118 50.3515 34.382 50.5495 34.7779L51.4734 34.58L50.6155 31.2143L49.6916 31.4123C49.7576 31.9402 49.7576 32.2702 49.7576 32.4022C49.6916 32.5342 49.3616 32.7322 48.8337 32.7982L48.4377 32.8641L48.1737 31.7423C48.1078 31.4123 48.1078 31.2143 48.2397 31.0823C48.3717 30.9504 48.6357 30.8184 49.1636 30.7524C49.8236 30.6204 50.4835 30.6864 51.0774 30.8184C51.5394 31.0164 52.0673 31.2803 52.6613 31.7423L53.3872 31.2143L51.6054 29.2345L45.2041 30.5544L44.6101 30.6864L44.8081 31.5443C44.9401 31.5443 45.0061 31.4783 45.1381 31.4783C45.3361 31.4783 45.534 31.5443 45.666 31.5443C45.798 31.6103 45.864 31.7423 45.93 32.0062L46.9859 36.0978C47.0519 36.2958 47.0519 36.4278 46.9199 36.5598C46.8539 36.6917 46.5899 36.8897 46.194 37.0217L46.3919 37.8796L53.5192 36.3618L54.1791 33.5241L53.2552 33.3261C52.9252 34.448 52.3973 35.1079 51.8034 35.5039ZM61.2403 33.3261L59.6565 28.5086L55.8289 28.4426L55.7629 29.3665C56.1589 29.4325 56.4229 29.4325 56.6208 29.5645C56.7528 29.6965 56.8188 29.8285 56.8188 30.0924L56.7528 34.316C56.7528 34.8439 56.4229 35.1079 55.6969 35.1079V36.0318L59.0626 36.0978V35.1739C58.6666 35.1739 58.3367 35.1079 58.2047 34.9759C58.0067 34.9099 58.0067 34.712 58.0067 34.448L58.0727 30.3564L60.0525 36.1638H61.4383L63.6161 30.4884L63.5501 34.514C63.5501 34.7779 63.4841 34.9759 63.2861 35.1079C63.0881 35.1739 62.8242 35.2399 62.4282 35.2399V36.1638L66.8497 36.2298V35.3059C66.4538 35.3059 66.1238 35.2399 65.9918 35.1079C65.8598 35.0419 65.7938 34.7779 65.7938 34.514L65.8598 30.3564C65.8598 30.0924 65.9258 29.8945 66.1238 29.7625C66.2558 29.6305 66.5858 29.6305 66.9817 29.6305V28.7066L63.0221 28.6406L61.2403 33.3261ZM69.5554 30.0265C70.2814 30.2244 70.5453 30.4884 70.4133 31.0163L69.3575 35.1079C69.2915 35.3719 69.1595 35.5699 68.9615 35.6359C68.7635 35.7018 68.4996 35.7018 68.0376 35.6359L67.8396 36.5598L72.1292 37.4177L72.3271 36.5598C71.9312 36.4938 71.6672 36.3618 71.5352 36.2298C71.4032 36.0978 71.3372 35.8998 71.4692 35.6359L72.5251 31.5443C72.5911 31.2803 72.7231 31.0823 72.9211 31.0163C73.1191 30.9504 73.449 30.9504 73.845 31.0163L74.043 30.0924L69.7534 29.2345L69.5554 30.0265ZM32.9954 44.0169C32.4674 44.4129 32.0715 44.4129 31.6755 44.0169L30.6856 42.9611L31.6095 42.3011C33.3913 40.9813 33.7213 39.7274 32.6654 38.6055C32.0715 37.9456 31.3456 37.6816 30.4217 37.8796C30.2237 37.9456 30.0257 38.0116 29.8277 38.0776C29.4978 38.2096 29.1678 38.4076 28.8378 38.6055L25.0103 41.5092L25.6702 42.1691C26.1981 41.7732 26.6601 41.7732 26.99 42.1691L29.8277 45.1388L30.0257 45.3368C30.2237 45.5348 30.2897 45.7328 30.2897 45.9307C30.2897 46.0627 30.0917 46.2607 29.8277 46.5247L29.7617 46.5907L29.8277 46.6567L30.4217 47.3166L33.5233 45.0068L33.6553 44.9408L33.5233 44.8749L32.9954 44.0169ZM30.4217 41.9052L30.0257 42.1691L29.8937 42.0372L28.7059 40.7833C28.5079 40.5853 28.5079 40.3873 28.5739 40.1894C28.5739 40.1234 28.7718 39.9914 28.9698 39.8594C29.2338 39.6614 29.4978 39.5294 29.7617 39.5294C29.7617 39.5294 29.8277 39.5294 29.8937 39.5294C30.2897 39.5294 30.6196 39.6614 30.9496 39.9914C31.2136 40.3213 31.3456 40.5853 31.2796 40.9813C31.0816 41.2452 30.8176 41.5752 30.4217 41.9052Z" fill="#C6C6C5"/>
<path d="M100.111 60.7132C99.9786 60.5152 99.7807 60.3832 99.4507 60.3832C99.0547 60.3832 98.5928 60.5152 98.0649 60.7792C97.5369 61.0431 96.943 61.5051 96.283 62.033C95.3591 62.8249 94.3692 63.8808 93.3134 65.1347C93.1154 65.3987 92.9174 65.6626 92.6534 65.9266C92.5214 66.1246 92.3235 66.3226 92.1915 66.5205C92.3895 65.7286 92.5874 64.9367 92.7194 64.2768C92.7194 64.1448 92.7194 64.0128 92.7854 63.8808C92.9174 63.0229 92.9834 62.297 92.9834 61.769C92.9834 61.5051 92.9834 61.1751 92.9834 60.9771C92.9174 60.7132 92.9174 60.5152 92.7854 60.3172V60.2512L92.7194 60.3172C92.6534 60.3832 92.5874 60.3832 92.5874 60.3832C92.5874 60.4492 92.5214 60.4492 92.5214 60.4492L91.2016 61.1751L89.8158 61.835C89.8158 61.835 89.7497 61.901 89.6838 61.901H89.6178H89.5518V61.967L89.6838 62.363V62.429H89.7497C89.8157 62.363 89.8817 62.363 89.8817 62.363H89.9477C90.0797 62.297 90.2117 62.297 90.2777 62.231C90.4097 62.231 90.4757 62.165 90.5417 62.165C90.8716 62.165 91.0696 62.429 91.0696 63.0229C91.0696 64.2108 90.8056 65.9926 90.2117 68.3023C90.1457 68.7643 90.0137 69.2262 89.8817 69.7542C89.7497 70.2161 89.6178 70.7441 89.4858 71.338L89.3538 71.866V71.9319H89.4198H89.9477H90.0137L90.1457 71.668C90.4757 70.9421 90.8056 70.2161 91.2016 69.5562C91.7295 68.5663 92.3235 67.7084 92.9174 66.7845C93.1154 66.4545 93.3134 66.1906 93.5773 65.9266C93.7753 65.6626 93.9733 65.3987 94.2373 65.0687C94.8972 64.2768 95.4911 63.6168 96.0191 63.1549C96.1511 63.0889 96.217 63.0229 96.349 62.8909C96.943 62.429 97.4709 62.231 97.8669 62.231C98.1308 62.231 98.2628 62.297 98.3948 62.495C98.5268 62.6929 98.5928 62.9569 98.5928 63.3529V63.4189C98.5928 63.8148 98.5268 64.3428 98.3288 65.0027C98.2628 65.0687 98.2628 65.2007 98.1968 65.3327C98.1968 65.3987 98.1309 65.5306 98.0649 65.6626C97.9329 66.1246 97.7349 66.5865 97.4709 66.9825C97.2729 67.3784 97.009 67.7744 96.811 68.1704C96.349 68.7643 95.8871 69.3582 95.3591 69.8862C94.8312 70.4141 94.2373 70.8101 93.6433 71.272C93.1154 71.602 92.4555 71.866 91.6635 71.9979C91.4656 71.9979 91.3996 72.0639 91.2016 72.0639C91.0696 72.0639 90.8716 72.0639 90.6736 72.1299C89.6178 72.1959 88.8918 72.3279 88.2979 72.4599C88.2319 72.4599 88.0999 72.5259 88.0339 72.5259C87.9679 72.5259 87.902 72.5259 87.77 72.5919C87.77 72.6579 87.704 72.6579 87.704 72.6579C87.506 72.7239 87.308 72.8558 87.044 72.9878C86.7801 73.1858 86.5821 73.3838 86.3181 73.6478C85.8562 74.1757 85.5262 74.7037 85.2622 75.1656C84.9983 75.6276 84.9323 76.1555 84.9323 76.6174C84.9323 77.0134 84.9983 77.3434 85.1302 77.6733C85.3282 78.0033 85.5262 78.2673 85.8562 78.5312C86.1201 78.7292 86.3841 78.8612 86.7801 78.9932C86.8461 79.0592 86.8461 79.0592 86.9781 79.0592C87.176 79.1252 87.44 79.1912 87.704 79.1912C87.9019 79.1912 88.0999 79.2572 88.2979 79.2572C89.0898 79.2572 89.7497 79.0592 90.2117 78.7952C90.6736 78.4652 91.0036 78.0033 91.1356 77.4094V77.3434L91.0696 77.4094C90.6737 77.6073 90.2117 77.8053 89.7497 77.9373C89.2878 78.0693 88.8259 78.1353 88.2979 78.1353C88.0999 78.1353 87.9019 78.0693 87.704 78.0693C87.374 78.0693 87.044 77.9373 86.7801 77.8713C86.7141 77.8713 86.5821 77.8053 86.5161 77.8053C86.4501 77.7393 86.3841 77.7393 86.3181 77.6733C86.0541 77.4753 85.8562 77.3434 85.7242 77.1454C85.5922 76.9474 85.5922 76.7494 85.5922 76.4855C85.5922 76.0235 85.7242 75.5616 85.9882 75.2316C86.0541 75.1656 86.1201 75.0996 86.1861 75.0996C86.2521 75.0336 86.3181 74.9676 86.3841 74.9676C86.6481 74.7696 86.9781 74.6377 87.44 74.4397C87.506 74.3737 87.638 74.3737 87.704 74.3737C88.0999 74.3077 88.4959 74.1757 88.9578 74.1097C89.7497 73.9777 90.4757 73.7798 91.2016 73.5818C91.3996 73.5158 91.5976 73.4498 91.7955 73.3838C91.9275 73.3178 92.1255 73.2518 92.2575 73.1198C92.3895 73.0538 92.5874 72.9878 92.7194 72.9218C93.2474 72.5919 93.8413 72.1959 94.4352 71.668C95.0292 71.206 95.6231 70.6121 96.283 69.8862C97.4049 68.6323 98.3288 67.4444 98.9888 66.3226C99.1207 66.1246 99.1867 65.9266 99.3187 65.6626C99.9786 64.3428 100.375 63.0889 100.375 61.901C100.309 61.3071 100.243 60.9771 100.111 60.7132ZM86.5161 70.6121C86.5821 70.5461 86.6481 70.4801 86.7801 70.4141C86.8461 70.3481 86.9121 70.3481 86.9781 70.2821L87.044 70.2161V70.1501L86.7801 69.7542H86.7141C86.3841 69.9522 86.0541 70.1501 85.7242 70.3481C85.6582 70.4141 85.5922 70.4141 85.5262 70.4141C85.1962 70.5461 84.9323 70.6121 84.6683 70.6121C84.4703 70.6121 84.3383 70.5461 84.2063 70.4801C84.1404 70.4141 84.0744 70.2161 84.0744 70.0841C84.0744 69.8202 84.2063 69.2262 84.6023 68.3023C84.6683 68.1044 84.7343 67.9724 84.8003 67.7744C84.8663 67.5764 84.9323 67.3784 85.0643 67.1805C85.3282 66.5205 85.5922 65.9266 85.8562 65.3987C86.0542 64.8707 86.2521 64.4088 86.4501 64.0128C86.8461 63.0889 87.176 62.363 87.44 61.769L87.506 61.5711C87.704 61.1091 87.836 60.8451 87.9019 60.6472L88.0339 60.4492H90.0137L90.0797 60.3832L90.2777 59.9872V59.9213H90.2117H88.2979L88.3639 59.6573L88.8259 58.6674C89.0238 58.2054 89.1558 57.8095 89.2218 57.5455L89.2878 57.4135L89.3538 57.2815V57.2155H89.2878C89.0898 57.2815 88.9578 57.2815 88.7599 57.3475H88.6279C88.4299 57.4135 88.1659 57.4135 87.9679 57.4135H87.9019C87.836 57.4135 87.836 57.4135 87.77 57.4135H87.704C87.638 57.4795 87.638 57.6115 87.572 57.6775C87.308 58.4034 87.044 58.9314 86.8461 59.2613C86.7801 59.3273 86.7801 59.3933 86.7141 59.4593C86.7141 59.5253 86.6481 59.5913 86.6481 59.5913C86.5161 59.7233 86.3181 59.7893 86.0541 59.8553C85.7902 59.9212 85.4602 59.9213 84.9983 59.9213H84.8663H84.8003H84.7343L84.5363 60.3832L84.4703 60.4492H84.5363H86.3181L86.2521 60.7132C86.1201 60.9111 85.8562 61.6371 85.3942 62.627L85.1302 63.2869L84.8003 64.0128L83.6124 66.7845L83.3484 67.4444C83.0185 68.1704 82.7545 68.8303 82.5565 69.3582C82.4905 69.4242 82.4905 69.5562 82.4245 69.6882C82.2266 70.2821 82.0946 70.6781 82.0946 70.8761C82.0946 71.14 82.1606 71.404 82.3586 71.536C82.4245 71.602 82.4245 71.602 82.5565 71.668C82.6885 71.734 82.9525 71.8 83.2165 71.8C83.3484 71.8 83.4144 71.8 83.6124 71.8C83.8764 71.734 84.2063 71.734 84.4703 71.602C84.5363 71.536 84.6683 71.536 84.7343 71.47C84.8003 71.47 84.9323 71.404 84.9983 71.404C85.5922 71.14 86.1201 70.8761 86.5161 70.6121ZM83.4804 57.6115C83.4804 57.6115 83.5464 57.6115 83.6124 57.6115C83.7444 57.6115 83.8764 57.5455 84.0084 57.4795C84.0744 57.4795 84.0744 57.4135 84.0744 57.4135C84.0744 57.3475 84.1404 57.3475 84.1404 57.3475C84.2063 57.2155 84.2723 57.1495 84.3383 57.0176C84.4043 56.9516 84.4043 56.8196 84.4043 56.6876C84.4043 56.4896 84.3383 56.2916 84.2723 56.1597C84.1404 56.0937 83.9424 56.0277 83.7444 56.0277C83.6784 56.0277 83.6784 56.0277 83.6124 56.0277C83.5464 56.0937 83.4804 56.0937 83.3484 56.0937C83.2825 56.1597 83.1505 56.2256 83.0185 56.3576C82.9525 56.4236 82.8205 56.5556 82.8205 56.6876C82.7545 56.8196 82.7545 56.8856 82.7545 57.0176C82.7545 57.2815 82.7545 57.4135 82.9525 57.5455C83.0185 57.6115 83.2165 57.6115 83.4804 57.6115ZM79.9168 68.1044C79.9828 67.9064 80.0488 67.7744 80.1148 67.6424L80.1808 67.5764L81.2367 65.1347C81.8306 63.8148 82.2926 62.6929 82.5565 61.769C82.8205 60.9111 82.9525 60.2512 82.9525 59.7893V59.6573V59.5913L82.8865 59.6573L82.5565 59.7893L82.4905 59.8553C81.6986 60.1852 80.9067 60.5152 80.1808 60.8451C80.0488 60.9111 79.8508 60.9111 79.7188 60.9771C79.5868 61.0431 79.4549 61.1091 79.2569 61.1091L78.9929 61.1751L78.9269 61.2411H78.8609V61.3071L78.9269 61.5051L78.9929 61.769V61.835H79.0589C79.1249 61.769 79.1909 61.769 79.1909 61.769C79.2569 61.7031 79.2569 61.7031 79.2569 61.7031L79.8508 61.5051C79.9168 61.5051 79.9828 61.4391 80.1148 61.4391C80.1808 61.4391 80.2468 61.4391 80.3128 61.4391C80.4448 61.4391 80.5107 61.4391 80.5767 61.5051C80.6427 61.5711 80.6427 61.7031 80.6427 61.769C80.6427 62.033 80.3788 62.7589 79.8508 63.9468C79.7188 64.2108 79.6528 64.4748 79.5209 64.7387C79.3889 65.0027 79.2569 65.3327 79.1249 65.5966L79.0589 65.6626C78.9929 65.8606 78.8609 65.9926 78.7949 66.1906C78.465 66.8505 78.267 67.4444 78.003 67.9064C77.739 68.5663 77.5411 69.0283 77.4091 69.4242C77.2771 69.8202 77.2111 70.2161 77.1451 70.6121C77.0791 71.008 77.0791 71.47 77.0131 71.9319V71.9979L77.0791 71.9319C77.5411 71.8 78.135 71.536 78.7949 71.272C78.9929 71.206 79.2569 71.074 79.4549 71.008C79.6528 70.9421 79.8508 70.8101 80.0488 70.7441C80.2468 70.6781 80.4448 70.5461 80.6427 70.4141H80.7087L80.6427 70.3481L80.4448 69.9522L80.3788 70.0182C80.1808 70.0841 79.9828 70.1501 79.8508 70.2161C79.7188 70.2161 79.5868 70.2821 79.5209 70.2821C79.3889 70.2821 79.2569 70.2821 79.1909 70.2161C79.1249 70.1501 79.1249 70.0182 79.1249 69.9522C79.1249 69.7542 79.2569 69.2922 79.5868 68.5663C79.7848 68.4343 79.8508 68.3023 79.9168 68.1044ZM76.4852 69.4902L76.2872 69.6222C75.8253 70.0182 75.4293 70.2821 75.1653 70.3481C75.0993 70.3481 75.0333 70.4141 74.9673 70.4141C74.9014 70.4801 74.9014 70.4801 74.8354 70.4801C74.7034 70.4801 74.5714 70.4141 74.5054 70.3481C74.4394 70.2821 74.3734 70.1501 74.3734 69.8862C74.4394 69.2262 75.0993 67.1805 76.4852 63.8808C76.7492 63.2209 77.0791 62.495 77.4091 61.769C77.739 61.0431 78.069 60.1852 78.465 59.3933V59.3273C78.6629 58.8654 78.8609 58.4694 78.9929 58.0734C79.3889 57.1495 79.7188 56.2256 79.9828 55.4997C80.0488 55.3017 80.1148 55.1038 80.1808 54.9058C80.5767 53.7179 80.7747 52.86 80.7747 52.2661V52.2001L80.7087 52.2661C80.3128 52.4641 79.7188 52.728 78.9929 52.992C78.7949 53.058 78.6629 53.19 78.465 53.19C78.267 53.256 78.069 53.322 77.871 53.388C77.6731 53.5199 77.4751 53.5859 77.2111 53.6519L77.0131 53.7179L76.9471 53.7839L77.0791 54.1799V54.2459C77.1451 54.1799 77.2111 54.1799 77.2111 54.1799C77.2771 54.1139 77.2771 54.1139 77.2771 54.1139C77.4751 54.0479 77.6071 53.9819 77.739 53.9819C77.871 53.9159 78.003 53.9159 78.003 53.9159C78.135 53.9159 78.267 53.9819 78.333 53.9819C78.333 54.0479 78.399 54.1139 78.399 54.2459C78.399 54.3778 78.267 54.7738 78.135 55.3677C77.937 55.9617 77.6071 56.6876 77.2111 57.6775L75.8253 60.9771C75.0993 62.7589 74.5054 64.2768 73.9775 65.4646C73.8455 65.9266 73.6475 66.3226 73.5155 66.7185C73.3175 67.3124 73.1195 67.7744 72.9876 68.1044C72.7896 68.6323 72.6576 69.1602 72.5256 69.6222C72.4596 70.0842 72.3936 70.4141 72.3936 70.7441C72.3936 71.14 72.4596 71.47 72.5916 71.668C72.7236 71.866 72.9876 71.9979 73.3175 71.9979C73.3835 71.9979 73.4495 71.9979 73.5155 71.9319C74.0434 71.866 74.7034 71.536 75.4953 70.8761C75.6933 70.7441 75.8912 70.6121 76.0892 70.4141C76.2872 70.2161 76.4852 70.0842 76.6832 69.8862L76.7492 69.8202H76.6832L76.4852 69.4902ZM63.8805 65.9266C64.1445 65.5306 64.4745 65.0687 64.8704 64.6727C65.7283 63.7488 66.6522 62.9569 67.7081 62.429C67.9061 62.297 68.1041 62.231 68.3021 62.165C69.5559 61.5711 70.9418 61.3071 72.3936 61.3071C72.6576 61.3071 72.9876 61.3071 73.3175 61.3731C73.4495 61.3731 73.5155 61.3731 73.6475 61.3731C73.8455 61.3731 74.0434 61.4391 74.3074 61.4391H74.3734C74.4394 61.1751 74.5714 61.0431 74.6374 60.8451C74.6374 60.7792 74.6374 60.7792 74.6374 60.7792C74.7034 60.5812 74.7694 60.4492 74.7694 60.3832C74.7694 60.2512 74.7034 60.1852 74.6374 60.0532C74.5054 60.0532 74.4394 59.9872 74.2414 59.9872C74.0434 59.9872 73.8455 59.9872 73.6475 59.9872C71.6677 60.0532 69.6879 60.7132 67.7081 61.835C66.3223 62.627 65.0684 63.5509 64.0125 64.6727C63.8145 64.8707 63.6166 65.0687 63.4186 65.3327C63.2206 65.5306 63.0226 65.7946 62.8907 65.9926C62.4287 66.5865 62.0327 67.1805 61.7688 67.7084C61.6368 67.9724 61.5708 68.1704 61.4388 68.4343C61.1088 69.2262 60.9109 70.0182 60.9109 70.6781C60.9109 71.14 60.9769 71.47 61.1748 71.668C61.3068 71.8 61.5048 71.9319 61.7688 71.9979C61.8348 71.9979 61.9008 71.9979 61.9668 71.9979C62.4947 71.9979 63.1546 71.8 64.0125 71.272C64.2105 71.206 64.3425 71.074 64.4745 70.9421C64.6725 70.8761 64.8044 70.6781 65.0024 70.6121C65.6623 70.1501 66.3223 69.5562 66.9162 68.9623C67.4442 68.4343 68.0381 67.8404 68.566 67.2465C67.8401 68.7643 67.4442 70.0182 67.1802 70.9421C67.1142 71.14 67.0482 71.272 67.0482 71.47C66.9822 71.602 66.9822 71.8 66.9822 71.9319V71.9979L67.0482 71.9319C67.9061 71.734 68.698 71.47 69.4239 71.206C70.0839 70.8761 70.6778 70.5461 71.2058 70.1501V70.0841V70.0182L70.9418 69.6882V69.6222L70.8758 69.6882C70.5458 69.8862 70.2818 70.0182 70.0839 70.0841C69.8859 70.1501 69.6879 70.2161 69.6219 70.2161C69.4899 70.2161 69.4239 70.2161 69.358 70.1501C69.292 70.0842 69.292 70.0182 69.292 69.8862C69.292 69.6882 69.5559 68.9623 70.0179 67.8404C70.0839 67.6424 70.2159 67.3784 70.2819 67.1145C70.4138 66.9165 70.4798 66.5865 70.6118 66.3226L70.7438 66.1246V66.0586L70.6778 66.1246C70.3478 66.1906 70.0179 66.3226 69.7539 66.3885C69.5559 66.4545 69.292 66.4545 69.094 66.5205C69.4239 66.0586 69.7539 65.5966 69.9519 65.1347C70.0179 65.0687 70.0179 64.9367 70.0839 64.8707C70.2818 64.3428 70.4138 63.8148 70.4138 63.3529C70.4138 62.8249 70.2818 62.429 70.0839 62.165C70.0179 62.099 70.0179 62.099 69.8859 62.033C69.8199 61.967 69.8199 61.967 69.6879 61.901L69.6219 61.835V61.901C69.4239 62.693 69.16 63.4849 68.83 64.2768C68.5 65.0687 68.1041 65.7946 67.5761 66.5865C67.1142 67.3784 66.5203 68.1044 65.9263 68.6983C65.7943 68.8303 65.6624 68.9623 65.5964 69.0943C65.4644 69.1602 65.3324 69.2922 65.2004 69.4242C64.8044 69.7542 64.4745 70.0182 64.2105 70.2161C64.1445 70.2821 64.0785 70.2821 64.0125 70.2821C63.6826 70.4801 63.4186 70.5461 63.1546 70.5461C62.8906 70.5461 62.7587 70.4801 62.6267 70.2821C62.4947 70.0842 62.4287 69.8202 62.4287 69.4902C62.4287 68.6323 62.6267 67.8404 62.9566 67.0485C63.3526 66.7185 63.6166 66.3226 63.8805 65.9266ZM49.8901 68.8963H49.8241C49.7581 68.9623 49.7581 68.9623 49.6921 68.9623L49.2301 69.4242C49.0321 69.6222 48.8342 69.7542 48.7022 69.8202C48.6362 69.8202 48.6362 69.8202 48.6362 69.8202C48.5042 69.8862 48.4382 69.8862 48.3722 69.8862H48.3062C48.1082 69.8862 47.5803 69.5562 46.7884 68.9623C46.6564 68.8303 46.4584 68.6983 46.3264 68.5663C46.1285 68.4343 45.9305 68.3023 45.7325 68.1044L45.6665 68.0384L45.4685 67.9064C46.3924 66.9825 47.1184 66.0586 47.6463 65.0687C47.7123 64.8707 47.8443 64.6727 47.9103 64.4748C48.4382 63.2869 48.7682 62.099 48.7682 60.9111C48.7682 59.9213 48.5702 59.0633 48.1742 58.4034C48.1082 58.2714 48.0423 58.1394 47.9763 58.0075C47.9103 57.8755 47.7783 57.8095 47.7123 57.6775C47.3163 57.2815 46.8544 56.8856 46.2604 56.5556C45.7325 56.2916 45.0066 55.9617 44.2807 55.7637V55.6977C44.6766 54.8398 45.0066 53.9819 45.2706 53.19C45.3365 52.992 45.3365 52.926 45.4685 52.728C45.4685 52.596 45.5345 52.3981 45.6005 52.2661V52.1341H45.5345C44.8746 52.0681 44.2147 52.0021 43.6207 51.9361C43.0268 51.8701 42.4329 51.8701 41.8389 51.8701H41.7069C38.5393 51.8701 35.6356 52.3321 33.0619 53.322C32.5339 53.5199 32.006 53.7179 31.544 53.9819C31.0821 54.1799 30.5541 54.4438 30.1582 54.7078C29.1683 55.2358 28.3104 55.8957 27.5845 56.5556C26.8585 57.2155 26.2646 58.0075 25.7367 58.7994C25.3407 59.4593 24.9447 60.1852 24.6808 60.8451C24.6808 60.9771 24.5488 61.1751 24.5488 61.2411C24.2848 62.099 24.1528 63.0229 24.1528 63.9468C24.1528 65.7946 24.6148 67.3784 25.5387 68.6323C25.7367 68.8963 25.9346 69.0943 26.1326 69.3582C26.3966 69.5562 26.5946 69.7542 26.8585 70.0182C27.7824 70.7441 28.8383 71.272 30.1582 71.668C31.412 71.9979 32.8639 72.1959 34.5137 72.1959C35.7676 72.1959 36.9555 72.0639 38.2093 71.8C38.4073 71.734 38.6713 71.734 38.9352 71.668C39.1332 71.602 39.3972 71.536 39.6612 71.47C40.3871 71.272 41.113 71.008 41.7729 70.6781C41.9049 70.6781 41.9049 70.6121 42.0369 70.6121C42.7628 70.2161 43.4228 69.8202 44.0167 69.3582C44.3467 69.6222 44.8086 69.9522 45.2706 70.3481C45.7325 70.7441 46.3264 71.272 46.9864 71.8L47.4483 72.1959H47.5143L47.8443 71.9319C47.9763 71.8 48.1082 71.668 48.3722 71.47C48.5702 71.272 48.7682 71.074 49.0321 70.8101C49.4941 70.4141 49.8901 70.0182 50.154 69.6882L50.352 69.4902L50.484 69.3582L50.55 69.2922H50.484L49.8901 68.8963ZM41.6409 69.8862C41.047 70.2161 40.3871 70.5461 39.7931 70.7441C38.5393 71.206 37.0874 71.404 35.5696 71.404C33.4578 71.404 31.676 71.074 30.2242 70.3481C29.9602 70.2161 29.6302 70.0842 29.3663 69.9522C29.1023 69.7542 28.9043 69.6222 28.6403 69.4242C27.7824 68.7643 27.1885 67.9064 26.7925 67.0485C26.3966 66.1246 26.1326 65.0687 26.1326 63.8148C26.1326 63.0229 26.1986 62.231 26.3966 61.4391C26.5286 60.6472 26.7925 59.9212 27.1885 59.1953C27.7164 58.1394 28.3764 57.2155 29.1683 56.4896C29.3003 56.3576 29.4983 56.1597 29.6302 56.0277C29.7622 55.8957 29.9602 55.7637 30.1582 55.6317C31.0161 54.9718 32.138 54.4438 33.3918 53.9819C33.5898 53.9159 33.8538 53.8499 34.1178 53.7839C35.7016 53.388 37.4834 53.19 39.5952 53.19C40.3211 53.19 41.047 53.256 41.6409 53.256H41.7729C42.4329 53.322 43.0928 53.388 43.6867 53.4539C43.6207 53.8499 43.5547 54.1799 43.4887 54.5098C43.4228 54.8398 43.3568 55.1698 43.2248 55.4997C42.6308 55.4337 42.2349 55.4337 41.8389 55.3677C41.7729 55.3677 41.7069 55.3677 41.6409 55.3677C41.377 55.3677 41.047 55.3677 40.783 55.3677C39.5952 55.3677 38.4733 55.4337 37.4834 55.6977C36.4275 55.8957 35.5696 56.2916 34.7777 56.7536C33.9198 57.2155 33.3258 57.8095 32.9299 58.4034C32.5339 58.9973 32.3359 59.6573 32.3359 60.3832C32.3359 60.5812 32.3359 60.8451 32.4019 61.0431C32.4679 61.1091 32.4679 61.2411 32.5339 61.3731C32.5999 61.4391 32.5999 61.5051 32.6659 61.6371L32.7319 61.7031V61.5711C32.9299 60.3832 33.5238 59.3273 34.3157 58.4694C34.4477 58.3374 34.6457 58.1394 34.8437 58.0075C34.9757 57.8095 35.1736 57.6775 35.3716 57.5455C35.9656 57.1495 36.6255 56.7536 37.2854 56.4896C37.4174 56.4236 37.5494 56.4236 37.6814 56.3576C38.5393 56.0937 39.3972 55.9617 40.3871 55.9617C40.783 55.9617 41.245 55.9617 41.6409 56.0277V56.0937C42.0369 56.1597 42.4329 56.1597 42.8948 56.2256C42.5648 57.1495 42.1689 57.9415 41.6409 58.6674C40.981 59.7233 40.2551 60.5152 39.3312 61.1751C37.8134 62.297 35.9656 62.8909 33.8538 62.8909C33.6558 62.8909 33.3258 62.8909 32.9959 62.8909L32.7979 62.8249H32.5999H32.4019H32.3359C32.204 63.0889 32.006 63.3529 31.742 63.6828C31.544 63.9468 31.2141 64.2768 30.9501 64.6727L31.0161 64.7387C31.2801 64.6727 31.478 64.6727 31.742 64.6067C31.808 64.6067 31.808 64.6067 31.874 64.6067C32.138 64.5407 32.4679 64.5408 32.8639 64.5408C33.5898 64.5408 34.3817 64.6067 35.2396 64.8707C36.0975 65.0687 36.9555 65.3327 37.9453 65.7286C39.2652 66.2566 40.5191 66.9825 41.7729 67.7744L41.9049 67.8404C42.1689 68.0384 42.4329 68.1704 42.6968 68.3683C42.8948 68.5003 43.1588 68.6983 43.3568 68.8963C42.6968 69.2262 42.1689 69.6222 41.6409 69.8862ZM45.0066 66.7185C44.9406 66.8505 44.8746 66.9165 44.7426 67.0485C44.6766 67.1145 44.5446 67.2465 44.4786 67.3784C43.5547 66.6525 42.6308 66.0586 41.575 65.4646C40.717 65.0027 39.7931 64.5407 38.8033 64.1448C38.4073 63.9468 38.0113 63.8148 37.5494 63.6828C37.2194 63.5509 36.8235 63.4189 36.4275 63.3529C37.2194 63.0889 37.8794 62.7589 38.5393 62.363C39.2652 61.967 39.9251 61.5051 40.4531 60.9771C40.849 60.6472 41.179 60.2512 41.509 59.8553C41.9709 59.3273 42.3669 58.7994 42.7628 58.1394C42.8948 57.9415 43.0268 57.6775 43.1588 57.4135C43.2908 57.2155 43.4228 56.9516 43.5547 56.6876L43.6867 56.3576C44.3467 56.5556 44.8746 56.8856 45.3365 57.4135C45.4025 57.5455 45.4685 57.6115 45.6005 57.6775C45.6665 57.7435 45.7325 57.8755 45.7985 58.0075C45.9965 58.3374 46.1285 58.7334 46.2604 59.1953C46.3264 59.2613 46.3264 59.3273 46.3264 59.3933C46.4584 59.9212 46.5244 60.5152 46.5244 61.1751C46.5244 61.901 46.3924 62.6929 46.2604 63.4849C46.1945 63.6168 46.1945 63.7488 46.1285 63.9468C46.0625 64.0788 46.0625 64.2108 45.9965 64.4088C45.8645 65.3327 45.4685 66.0586 45.0066 66.7185ZM60.2509 69.6882C59.987 69.7542 59.855 69.8202 59.657 69.8202H59.591C59.393 69.8862 59.261 69.8862 59.1291 69.8862C58.9971 69.8862 58.8651 69.8202 58.7991 69.8202C58.7331 69.7542 58.6671 69.6882 58.6671 69.5562C58.7331 69.3582 58.8651 68.9623 59.0631 68.2364C59.327 67.5764 59.657 66.6525 60.1849 65.4646C60.7789 64.0128 61.3068 62.8249 61.7688 61.769C61.8348 61.5711 61.9008 61.4391 62.0327 61.2411C62.0987 61.0431 62.2307 60.8451 62.2967 60.6472C62.3627 60.4492 62.4947 60.2512 62.5607 60.0532H62.4287C62.1647 60.1192 61.9008 60.2512 61.6368 60.3172C61.4388 60.3832 61.1748 60.4492 60.9769 60.5152C60.9109 60.5152 60.8449 60.5152 60.7129 60.5152C60.6469 60.5812 60.5809 60.5812 60.5149 60.5812V60.6472L60.3169 61.1091C59.657 62.8249 58.8651 64.4088 57.8752 65.8606C57.6772 66.1246 57.4792 66.4545 57.2813 66.7185C57.0833 66.9825 56.8853 67.3125 56.6873 67.5764C55.8954 68.5663 55.2355 69.2922 54.6415 69.7542C54.0476 70.2161 53.5197 70.4801 53.0577 70.4801C52.9257 70.4801 52.7937 70.4141 52.6618 70.3481C52.5958 70.2821 52.5298 70.1501 52.5298 69.9522C52.5298 69.7542 52.6618 69.3582 52.9257 68.6983C53.1237 68.1044 53.5197 67.3124 53.9816 66.3226L55.1695 63.7488C55.4994 63.0229 55.8294 62.363 56.0274 61.835C56.0934 61.769 56.0934 61.6371 56.1594 61.5051C56.3574 60.8451 56.4893 60.3832 56.4893 59.9872V59.9213H56.4233C55.9614 60.1192 55.4994 60.3172 54.9055 60.5152C54.3776 60.7132 53.7836 60.9111 53.1237 61.1091L52.8597 61.1751V61.2411L52.9917 61.7031H53.0577C53.2557 61.6371 53.3877 61.6371 53.5197 61.5711C53.6516 61.5051 53.7176 61.5051 53.7836 61.5051C53.9156 61.5051 54.0476 61.5051 54.1136 61.6371C54.1796 61.7031 54.2456 61.7691 54.2456 61.901C54.2456 62.033 54.1796 62.297 54.0476 62.561C53.9816 62.8249 53.8496 63.1549 53.6516 63.5509L52.4638 65.9266C52.0018 66.9825 51.6059 67.8404 51.2759 68.5663C51.2099 68.6983 51.2099 68.8303 51.1439 68.9623C50.8799 69.8202 50.748 70.4141 50.748 70.8101C50.748 71.14 50.814 71.404 50.9459 71.602C51.1439 71.734 51.3419 71.866 51.6719 71.866C52.1998 71.866 52.8597 71.668 53.5197 71.206C53.6516 71.14 53.7836 71.008 53.9816 70.9421C54.1136 70.8101 54.2456 70.7441 54.4436 70.6121C54.9715 70.1501 55.5654 69.6222 56.1594 69.0283C56.6873 68.5003 57.2153 67.8404 57.7432 67.1805C57.4792 67.9724 57.2153 68.7643 56.9513 69.4902C56.7533 70.2821 56.5553 71.14 56.4233 71.866V71.9319L56.4893 71.866L56.8853 71.734C58.0072 71.272 58.9311 70.8761 59.591 70.6121C59.723 70.5461 59.855 70.4801 59.987 70.4141C60.1189 70.3481 60.1849 70.3481 60.3169 70.2821V70.2161L60.2509 69.6882Z" fill="#C6C6C5"/>
<path d="M61.901 103.939C60.1192 101.761 56.9515 99.2533 51.6721 98.3954C51.4741 98.3294 46.3266 97.1416 44.2149 89.3544L43.9509 86.4507L41.7071 88.1665H41.6412C41.6412 88.1665 39.6614 88.9585 37.2856 88.9585C34.118 88.9585 31.7422 87.6386 30.1584 84.9989L29.9604 84.7349C29.8944 84.6029 28.6406 82.9531 28.6406 79.7195C28.6406 79.1915 28.6406 78.6636 28.7725 78.0696L29.4325 75.1L26.8588 75.9579H26.7928C26.7268 75.9579 23.8891 75.9579 22.5692 74.2421C22.1073 73.5821 21.9753 72.8562 21.9753 71.9983C21.9753 71.0084 22.2393 69.9525 22.5032 69.0946L22.9652 66.5869H20.3255C20.2595 66.5869 20.1935 66.5869 20.1275 66.5869C19.9955 66.5869 19.7315 66.5869 19.4676 66.5869C16.4979 66.6529 12.6043 65.267 11.6804 59.4596L11.6144 59.1297C11.5484 58.9317 10.9545 57.4139 9.17266 55.6981L8.90869 55.4341L9.17266 55.1701C10.9545 53.4543 11.5484 51.9365 11.6144 51.7385L11.6804 51.4085C12.6703 45.6011 16.5639 44.2153 19.4676 44.2153C19.9295 44.2153 20.2595 44.2813 20.3255 44.2813L23.3611 44.9412L22.4372 41.8396C22.1733 40.9816 21.9093 39.9258 21.9093 38.9359C21.9093 38.144 22.0413 37.352 22.5032 36.7581C23.8231 34.9763 26.6608 35.0423 26.7928 35.0423L29.1685 35.3723L28.7066 32.8645C28.6406 32.2706 28.5746 31.7426 28.5746 31.2807C28.5746 28.047 29.8284 26.3972 29.8944 26.3312L30.0924 26.0673C31.6102 23.3616 34.052 22.0417 37.2196 22.0417C39.5954 22.0417 41.5752 22.8336 41.6412 22.8336L43.8849 23.8895L44.2149 21.5138C46.3266 13.7266 51.4741 12.5387 51.8041 12.4727C57.0175 11.6148 60.1192 9.10709 61.967 6.92933L62.2309 6.59937L62.4949 6.92933C64.2767 9.10709 67.4444 11.6148 72.7238 12.4727C72.9218 12.5387 78.0692 13.7266 80.181 21.5138L80.5769 23.8235L82.7547 22.7676C82.8207 22.7676 84.7345 21.9757 87.1762 21.9757C90.3439 21.9757 92.7196 23.2956 94.2375 25.9353L94.4355 26.1992C94.5014 26.3312 95.7553 27.9811 95.7553 31.2147C95.7553 31.7426 95.7553 32.2706 95.6233 32.8645L95.1614 35.1083L97.6031 34.9763C97.6691 34.9763 100.507 34.9763 101.827 36.6921C102.289 37.352 102.421 38.144 102.421 38.8699C102.421 39.8598 102.157 40.9157 101.893 41.8396L100.903 44.7432L104.07 44.3473C104.136 44.3473 104.202 44.3473 104.268 44.3473C104.4 44.3473 104.664 44.3473 104.928 44.3473C107.898 44.2813 111.792 45.6671 112.715 51.4745L112.781 51.8045C112.847 52.0025 113.441 53.5203 115.223 55.2361L115.487 55.5001L115.223 55.764C113.441 57.4799 112.847 59.0637 112.781 59.1957L112.715 59.5256C111.726 65.333 107.832 66.7189 104.928 66.7189C104.532 66.7189 104.268 66.7189 104.136 66.6529H104.07L100.903 65.9929L101.893 69.0946C102.157 69.9525 102.421 71.0084 102.421 72.0643C102.421 72.8562 102.289 73.6481 101.827 74.308C100.507 76.0899 97.6691 76.0239 97.6031 76.0239H97.5371L95.4913 75.4299L95.6233 78.1356C95.6893 78.7296 95.6893 79.2575 95.6893 79.7855C95.6893 83.0191 94.4354 84.6689 94.3695 84.7349L94.1715 84.9989C92.6536 87.7046 90.2779 89.0244 87.0442 89.0244C84.6685 89.0244 82.6887 88.2325 82.6887 88.2325H82.6227L80.247 86.5167L80.049 89.4864C77.9372 97.2076 72.7898 98.4614 72.5258 98.4614C67.3124 99.3193 64.2107 101.827 62.3629 104.005L62.0989 104.335L61.901 103.939ZM62.1649 103.741L62.4289 103.543L62.1649 103.741ZM44.9408 89.2224C46.9866 96.6796 51.8041 97.6695 51.87 97.7355C57.0835 98.5934 60.3171 101.035 62.2309 103.213C64.1447 101.035 67.3784 98.5934 72.5258 97.7355C72.6578 97.6695 77.4753 96.6796 79.5211 89.2884L79.785 85.0649L83.0847 87.4406C83.4146 87.5726 85.1305 88.1665 87.1762 88.1665C90.1459 88.1665 92.2577 86.9787 93.7095 84.4709L93.9075 84.207C93.9735 84.141 95.0954 82.6891 95.0954 79.6535C95.0954 79.1915 95.0954 78.6636 95.0294 78.0696L94.8314 74.374L97.6691 75.1659C97.9991 75.1659 100.441 74.968 101.299 73.7141C101.629 73.2522 101.761 72.5922 101.761 71.9323C101.761 71.0084 101.497 70.0185 101.233 69.2266L99.8469 65.003L104.136 65.861C104.268 65.861 104.466 65.9269 104.928 65.9269C107.7 65.861 111.066 64.8711 112.056 59.3277L112.122 58.9317C112.188 58.6677 112.781 57.1499 114.497 55.4341C112.781 53.7183 112.254 52.2004 112.122 51.9365L112.056 51.5405C111.066 45.9971 107.7 45.0072 104.928 44.9412C104.4 44.9412 104.202 45.0072 104.136 45.0072L99.8469 45.5352L101.233 41.5756C101.497 40.7177 101.761 39.7278 101.695 38.8699C101.695 38.144 101.563 37.55 101.233 37.0881C100.309 35.7022 97.5371 35.6362 97.6031 35.6362L94.3035 35.8342L94.9634 32.7325C95.0294 32.2046 95.0294 31.6767 95.0294 31.2147C95.0294 28.179 93.9075 26.6612 93.8415 26.5952L93.6435 26.2652C92.1917 23.7575 90.1459 22.6356 87.1102 22.5696C85.9884 22.5696 84.9325 22.7676 84.2066 22.9656C83.4806 23.1636 83.0187 23.3616 83.0187 23.2956L80.049 24.8134L79.5211 21.5797C77.4093 14.2545 72.5918 13.1987 72.5258 13.1987C67.3124 12.3407 64.0787 9.89901 62.1649 7.72124C60.2511 9.89901 57.0175 12.3407 51.87 13.1987C51.7381 13.2646 46.9206 14.2545 44.8748 21.6457L44.4788 24.8794L41.3772 23.4275C41.3772 23.4275 40.9152 23.2296 40.1233 23.0316C39.3974 22.8336 38.3415 22.6356 37.2196 22.6356C34.25 22.6356 32.1382 23.8235 30.6863 26.3312L30.4884 26.6612C30.4884 26.6612 29.3005 28.179 29.3005 31.2147C29.3005 31.6767 29.3665 32.2046 29.3665 32.7325L30.0264 36.1642L26.7268 35.7022C26.7268 35.7022 24.0211 35.7682 23.0312 37.1541C22.7012 37.616 22.5692 38.2759 22.5692 38.9359C22.5692 39.8598 22.8332 40.8497 23.0972 41.6416L24.351 45.8651L20.2595 45.0072C20.1275 45.0072 19.9295 44.9412 19.4676 44.9412C16.6958 45.0072 13.3302 45.9971 12.3403 51.5405L12.2083 51.9365C12.1423 52.2004 11.5484 53.7183 9.83259 55.4341C11.5484 57.1499 12.0763 58.6677 12.2083 58.9317L12.2743 59.3277C13.2642 64.8711 16.6299 65.861 19.4016 65.9269C19.9295 65.9269 20.1275 65.861 20.2595 65.861L23.6911 65.9269L23.0312 69.2926C22.7672 70.1505 22.5032 71.1404 22.5032 71.9983C22.5032 72.7242 22.6352 73.3182 22.9652 73.7801C23.8231 75.034 26.1988 75.2319 26.5948 75.2319L30.2244 73.9781L29.2345 78.1356C29.1685 78.6636 29.1685 79.1915 29.1685 79.6535C29.1685 82.6891 30.2904 84.207 30.3564 84.207L30.5544 84.5369C32.0062 87.0447 34.052 88.1665 37.0876 88.2325C39.1334 88.2325 40.8492 87.6386 41.1792 87.5066L44.3469 85.1309L44.9408 89.2224Z" fill="#989883"/>
</svg>
