<?xml version="1.0" encoding="utf-8"?>
<svg width="141" height="83" viewBox="0 0 141 83" fill="none" xmlns="http://www.w3.org/2000/svg">
<path d="M3.19325 32.2282L2.59451 32.4278L2.79409 33.0265C2.99367 33.6253 2.99367 34.0244 2.99367 34.6231C2.99367 35.2219 2.79409 35.8206 2.59451 36.4193C2.39494 37.0181 2.19536 37.6168 1.7962 38.016C1.39705 38.4151 0.99789 39.0139 0.598734 39.2134L0 39.6126L0.199578 40.0118L8.38227 55.1797L8.58185 55.5788L9.18059 55.3793C9.57974 55.1797 10.1785 55.1797 10.7772 55.1797C11.3759 55.1797 11.7751 55.3793 12.3738 55.5788C12.9726 55.7784 13.3717 55.978 13.7709 56.3771C14.17 56.7763 14.5692 57.1755 14.9683 57.5746L15.3675 57.9738L15.7667 57.7742C32.7308 49.3919 51.4911 45.2008 70.451 45.2008C89.4109 45.2008 108.171 49.5915 125.135 57.7742L125.535 57.9738L125.934 57.5746C126.333 57.1755 126.532 56.7763 127.131 56.3771C127.53 55.978 128.129 55.7784 128.528 55.5788C129.127 55.3793 129.526 55.1797 130.125 55.1797C130.724 55.1797 131.123 55.1797 131.721 55.3793L132.32 55.5788L132.52 55.1797L140.702 40.0118L140.902 39.6126L140.503 39.2134C140.104 38.8143 139.705 38.4151 139.305 38.016C138.906 37.6168 138.707 37.0181 138.507 36.4193C138.308 35.8206 138.108 35.2219 138.108 34.6231C138.108 34.0244 138.108 33.4257 138.308 33.0265L138.507 32.4278L137.908 32.2282C116.753 22.0497 93.6021 16.6611 70.2514 16.6611C47.1004 16.6611 23.9494 22.0497 3.19325 32.2282ZM10.1785 43.6042C10.7772 43.4046 11.3759 43.6042 11.5755 44.2029C11.7751 44.8016 11.5755 45.4004 10.9768 45.5999C10.3781 45.7995 9.77932 45.5999 9.57974 45.0012C9.38017 44.4025 9.57974 43.8037 10.1785 43.6042ZM131.123 45.0012C130.923 45.5999 130.125 45.7995 129.726 45.5999C129.127 45.4004 128.927 44.602 129.127 44.2029C129.327 43.6042 130.125 43.4046 130.524 43.6042C131.123 43.8037 131.322 44.4025 131.123 45.0012Z" fill="#B8B8B6" fill-opacity="0.3"/>
<path d="M86.418 77.9313H79.2332C79.0336 77.9313 78.834 77.7317 78.834 77.5321C78.834 77.3325 79.0336 77.133 79.2332 77.133H85.2205L81.4285 74.9376C81.2289 74.9376 81.2289 74.738 81.2289 74.5384C81.2289 74.3389 81.4285 74.3389 81.6281 74.3389H92.4053C92.6049 74.3389 92.8045 74.5384 92.8045 74.738C92.8045 74.9376 92.6049 75.1372 92.4053 75.1372H82.8256L86.6175 77.3325C86.8171 77.3325 86.8171 77.5321 86.8171 77.7317C86.8171 77.9313 86.6175 77.9313 86.418 77.9313ZM61.4707 77.9313H54.2859C54.0863 77.9313 54.0863 77.7317 53.8868 77.7317C53.8868 77.5321 53.8868 77.3325 54.0863 77.3325L57.8783 75.1372H48.2986C48.099 75.1372 47.8994 74.9376 47.8994 74.738C47.8994 74.5384 48.099 74.3389 48.2986 74.3389H59.0758C59.2754 74.3389 59.2754 74.5384 59.4749 74.5384C59.4749 74.738 59.4749 74.9376 59.2754 74.9376L55.4834 77.133H61.4707C61.6703 77.133 61.8699 77.3325 61.8699 77.5321C61.8699 77.9313 61.6703 77.9313 61.4707 77.9313Z" fill="#B8B8B6"/>
<path fill-rule="evenodd" clip-rule="evenodd" d="M37.3208 60.9675L36.1233 60.5684L26.9427 60.9675C26.9427 60.9675 26.7432 60.9675 26.7432 61.1671C26.7432 61.1671 26.7432 61.3667 26.9427 61.3667L36.1233 61.7658L37.3208 61.3667C37.3208 61.1671 37.3208 61.1671 37.3208 60.9675ZM103.381 60.9675L104.579 60.5684L113.759 60.9675C113.759 60.9675 113.959 60.9675 113.959 61.1671C113.959 61.1671 113.959 61.3667 113.759 61.3667L104.579 61.7658L103.381 61.3667C103.381 61.1671 103.381 61.1671 103.381 60.9675Z" fill="#B8B8B6"/>
<path fill-rule="evenodd" clip-rule="evenodd" d="M70.2516 71.1465C67.0584 71.1465 64.4639 73.741 64.4639 76.9342C64.4639 80.1275 67.0584 82.722 70.2516 82.722C73.4449 82.722 76.0394 80.1275 76.0394 76.9342C76.0394 73.741 73.4449 71.1465 70.2516 71.1465ZM68.2559 78.93C67.8567 78.5309 67.8567 78.1317 68.2559 77.7326C68.4554 77.533 68.8546 77.3334 69.0542 77.533L69.8525 76.7347L69.0542 75.9364C68.655 76.1359 68.4554 75.9364 68.2559 75.7368C67.8567 75.3376 67.8567 74.9385 68.2559 74.5393C68.655 74.1402 69.0542 74.1402 69.4533 74.5393C69.6529 74.7389 69.8525 75.138 69.6529 75.3376L70.4512 76.1359L71.2495 75.3376C71.0499 74.9385 71.2495 74.7389 71.4491 74.5393C71.8483 74.1402 72.2474 74.1402 72.6466 74.5393C73.0457 74.9385 73.0457 75.3376 72.6466 75.7368C72.447 75.9364 72.0478 76.1359 71.8483 75.9364L71.0499 76.7347L71.8483 77.533C72.2474 77.3334 72.447 77.533 72.6466 77.7326C73.0457 78.1317 73.0457 78.5309 72.6466 78.93C72.2474 79.3292 71.8483 79.3292 71.4491 78.93C71.2495 78.7305 71.0499 78.3313 71.2495 78.1317L70.4512 77.3334L69.6529 78.1317C69.8525 78.5309 69.6529 78.7305 69.4533 78.93C69.0542 79.3292 68.4554 79.3292 68.2559 78.93Z" fill="#B8B8B6"/>
<path fill-rule="evenodd" clip-rule="evenodd" d="M91.8048 11.4721C91.0065 11.2725 90.2082 10.8734 89.4099 10.2746C89.0107 10.0751 88.6116 9.6759 88.2124 9.47632C87.8133 9.27675 87.2145 9.07717 86.6158 8.87759C85.8175 8.67801 85.2187 8.87759 84.62 9.07717C84.4204 9.07717 84.4204 9.27675 84.2209 9.27675C83.6221 9.27675 83.223 9.47632 82.8238 9.47632C82.2251 9.6759 81.4268 10.4742 81.4268 11.0729C81.4268 11.2725 81.4268 11.4721 81.8259 11.6717C82.2251 11.8713 82.6242 11.8713 82.8238 11.4721C83.0234 11.2725 83.0234 10.8734 82.8238 10.6738C82.6242 10.4742 82.6242 10.4742 82.8238 10.2746C83.0234 9.6759 84.4204 9.87548 84.8196 9.87548C85.6179 10.0751 86.4162 10.4742 87.2145 11.0729C87.6137 11.2725 88.0128 11.6717 88.412 11.8713C88.8111 12.6696 89.4099 12.8691 89.809 12.8691C90.6073 13.0687 91.2061 12.8691 91.8048 12.6696C92.0044 12.6696 92.0044 12.47 92.204 12.47C92.8027 12.47 93.2019 12.2704 93.601 12.2704C94.1998 12.0708 94.9981 11.2725 94.9981 10.6738C94.9981 10.4742 94.9981 10.2746 94.5989 10.0751C94.1998 9.87548 93.8006 9.87548 93.601 10.2746C93.4014 10.4742 93.4014 10.8734 93.601 11.0729C93.8006 11.0729 93.8006 11.0729 93.8006 11.2725C93.601 11.8713 92.204 11.6717 91.8048 11.4721ZM85.8175 9.87548C86.0171 9.87548 86.2166 9.87548 86.4162 9.87548C87.2145 10.0751 88.0128 10.4742 88.8111 11.0729C89.2103 11.2725 89.6095 11.6717 90.0086 11.8713C90.2082 11.8713 90.4078 12.0708 90.6073 12.0708C90.4078 12.0708 90.2082 12.0708 90.0086 12.0708C89.2103 11.8713 88.412 11.4721 87.6137 10.8734C87.2145 10.6738 86.8154 10.2746 86.4162 10.0751C86.0171 9.87548 85.8175 9.87548 85.8175 9.87548Z" fill="#B8B8B6"/>
<path fill-rule="evenodd" clip-rule="evenodd" d="M48.8954 11.4721C49.6937 11.2725 50.492 10.8734 51.2903 10.2746C51.6895 10.0751 52.0886 9.6759 52.4878 9.47632C52.887 9.27675 53.4857 9.07717 54.0844 8.87759C54.8827 8.67801 55.4815 8.87759 56.0802 9.07717C56.2798 9.07717 56.2798 9.27675 56.4794 9.27675C57.0781 9.27675 57.4772 9.47632 57.8764 9.47632C58.4751 9.6759 59.2735 10.4742 59.2735 11.0729C59.2735 11.2725 59.2734 11.4721 58.8743 11.6717C58.4751 11.8713 58.076 11.8713 57.8764 11.4721C57.6768 11.2725 57.6768 10.8734 57.8764 10.6738C58.076 10.4742 58.076 10.4742 57.8764 10.2746C57.6768 9.6759 56.2798 9.87548 55.8806 9.87548C55.0823 10.0751 54.284 10.4742 53.4857 11.0729C53.0865 11.2725 52.6874 11.6717 52.2882 11.8713C51.8891 12.6696 51.2903 12.8691 50.8912 12.8691C50.0929 13.0687 49.4941 12.8691 48.8954 12.6696C48.6958 12.6696 48.6958 12.47 48.4962 12.47C47.8975 12.47 47.4984 12.2704 47.0992 12.2704C46.5005 12.0708 45.7021 11.2725 45.7021 10.6738C45.7021 10.4742 45.7021 10.2746 46.1013 10.0751C46.5005 9.87548 46.8996 9.87548 47.0992 10.2746C47.2988 10.4742 47.2988 10.8734 47.0992 11.0729C46.8996 11.2725 46.8996 11.2725 47.0992 11.4721C47.0992 11.8713 48.4962 11.6717 48.8954 11.4721ZM54.8827 9.87548C54.6832 9.87548 54.4836 9.87548 54.284 9.87548C53.4857 10.0751 52.6874 10.4742 51.8891 11.0729C51.4899 11.2725 51.0908 11.6717 50.6916 11.8713C50.492 11.8713 50.2924 12.0708 50.0929 12.0708C50.2924 12.0708 50.492 12.0708 50.6916 12.0708C51.4899 11.8713 52.2882 11.4721 53.0865 10.8734C53.4857 10.6738 53.8848 10.2746 54.284 10.0751C54.6832 9.87548 54.8827 9.87548 54.8827 9.87548Z" fill="#B8B8B6"/>
<path fill-rule="evenodd" clip-rule="evenodd" d="M59.0755 3.28959C59.6742 3.48917 60.2729 3.68875 60.8717 3.88833C61.0712 3.88833 61.0712 3.88833 61.0712 4.08791V4.28748C60.6721 4.68664 60.6721 5.0858 60.8717 5.68453C61.0712 6.08369 61.2708 6.28326 61.4704 6.48284C61.8696 6.68242 62.6679 6.68242 63.067 6.48284C63.6658 6.28326 64.0649 5.88411 64.2645 5.28537C64.4641 5.0858 64.4641 4.68664 64.2645 4.28748C64.0649 3.68875 63.8653 3.48917 63.2666 3.28959C63.2666 3.28959 63.067 3.28959 63.067 3.09002V2.89044C63.4662 2.49128 63.8653 2.09213 64.0649 1.49339C64.0649 1.29381 64.4641 1.29381 64.4641 1.29381C64.8632 1.69297 65.462 1.89255 65.8611 2.09213C66.0607 2.09213 66.0607 2.09213 66.0607 2.2917V2.49128C65.6615 2.89044 65.462 3.09002 65.462 3.68875C65.462 4.08791 65.6615 4.28748 65.8611 4.48706C66.2603 4.88622 66.859 5.0858 67.4577 5.0858C68.0565 5.0858 68.6552 4.68664 69.0544 4.08791C69.2539 3.88833 69.2539 3.48917 69.2539 3.09002C69.2539 2.49128 69.0544 2.2917 68.4556 1.89255L68.2561 1.69297C68.2561 1.69297 68.256 1.49339 68.4556 1.49339C69.0544 1.09424 69.4535 0.894658 69.6531 0.295924C69.6531 0.0963457 70.0522 0.0963457 70.0522 0.295924C70.4514 0.69508 70.8506 1.09424 71.2497 1.49339L71.4493 1.69297C71.4493 1.69297 71.4493 1.89255 71.2497 1.89255C70.651 2.09213 70.4514 2.49128 70.4514 3.09002C70.4514 3.48917 70.651 3.68875 70.651 4.08791C71.0501 4.68664 71.6489 4.88622 72.2476 5.0858C72.8463 5.0858 73.4451 5.08579 73.8442 4.48706C74.0438 4.28748 74.2434 3.88833 74.2434 3.68875C74.443 3.09002 74.2434 2.69086 73.6447 2.49128C73.6447 2.49128 73.4451 2.2917 73.6447 2.2917C73.6447 2.2917 73.6447 2.09213 73.8442 2.09213C74.443 1.89255 74.8421 1.69297 75.2413 1.29381C75.4409 1.09424 75.6404 1.29381 75.6404 1.29381C75.84 1.89255 76.2392 2.2917 76.6383 2.69086V2.89044L76.4387 3.09002C75.84 3.09002 75.6404 3.48917 75.4409 4.08791C75.4409 4.48706 75.4409 4.68664 75.4409 5.0858C75.6404 5.68453 76.2392 6.08368 76.6383 6.28326C78.235 6.68242 78.8337 6.68242 79.2328 6.28326C79.4324 6.08368 79.8316 5.88411 79.8316 5.48495C80.2307 4.88622 80.0312 4.68664 79.8316 4.08791V3.88833C79.8316 3.88833 79.8316 3.68875 80.0311 3.68875C80.6299 3.68875 81.2286 3.48917 81.6278 3.28959C81.6278 3.28959 81.6278 3.28959 81.8274 3.28959L79.0333 9.07735C79.0333 9.27693 78.6341 9.27693 78.4345 9.27693C75.84 8.07947 73.2455 7.48073 70.4514 7.48073C67.6573 7.48073 64.8632 8.07947 62.4683 9.27693C62.2687 9.27693 62.0691 9.27693 61.8696 9.07735L59.0755 3.28959C58.8759 3.48917 58.8759 3.28959 59.0755 3.28959ZM63.2666 11.2727C65.462 10.2748 67.8569 9.67609 70.4514 9.67609C72.8463 9.67609 75.4409 10.2748 77.6362 11.2727C77.8358 11.2727 78.0354 11.2727 78.235 11.0731V10.674C78.235 10.674 78.235 10.4744 78.235 10.2748C78.235 10.0752 78.0354 10.0752 78.0354 10.0752C75.6404 8.87778 73.0459 8.47862 70.2518 8.47862C67.6573 8.47862 65.0628 9.07735 62.6679 10.0752L62.4683 10.2748C62.4683 10.4744 62.4683 10.4744 62.4683 10.674L62.6679 11.0731C62.8674 11.2727 63.067 11.2727 63.2666 11.2727Z" fill="#B8B8B6"/>
<path d="M47.4991 57.3747C47.6986 56.9755 48.0978 56.9755 48.4969 56.9755C48.6965 56.9755 49.0957 56.9755 49.2953 57.1751L48.0978 62.3641C47.8982 63.1624 48.0978 63.5616 48.4969 63.5616C49.0957 63.5616 49.6944 63.1624 50.0936 62.7633C50.2932 62.7633 50.2932 62.9628 50.2932 63.1624C50.2932 63.362 50.2932 63.362 50.0936 63.5616C49.2953 64.3599 48.2974 65.1582 47.2995 65.1582C46.5012 65.1582 45.9024 64.7591 45.9024 63.5616C45.3037 64.5595 44.3058 65.1582 43.5075 65.1582C41.9109 65.1582 41.5117 63.5616 41.5117 62.5637C41.5117 59.7696 43.3079 56.9755 45.5033 56.9755C46.5012 56.7759 47.0999 56.9755 47.4991 57.3747ZM47.0999 58.173C46.9003 58.173 46.5012 57.9734 46.3016 57.9734C44.3058 57.9734 43.7071 60.5679 43.7071 62.1645C43.7071 62.9628 44.1062 63.362 44.5054 63.362C45.1041 63.362 45.7029 62.9628 46.102 62.3641L47.0999 58.173Z" fill="#B8B8B6"/>
<path d="M51.0916 58.7725C51.0916 58.5729 51.0916 58.3734 50.892 58.3734C50.892 58.3734 50.6924 58.3734 50.4929 58.5729C50.2933 58.3734 50.0937 57.9742 50.4929 57.7746C51.0916 57.3755 51.6903 56.9763 52.2891 56.9763C52.8878 56.9763 53.2869 57.1759 53.0874 57.7746L52.0895 62.3649C51.8899 62.9637 52.0895 63.3628 52.6882 63.3628C53.2869 63.3628 53.6861 62.9637 54.0853 62.5645L55.0831 57.9742C55.2827 57.1759 55.8815 56.9763 56.4802 56.9763C56.6798 56.9763 57.0789 56.9763 57.2785 57.1759L56.081 62.3649C55.8815 63.1632 56.081 63.5624 56.4802 63.5624C57.0789 63.5624 57.6777 63.1632 58.0768 62.7641C58.2764 62.7641 58.2764 62.9637 58.2764 63.1632C58.2764 63.3628 58.2764 63.3628 58.0768 63.5624C57.2785 64.3607 56.2806 65.159 55.2827 65.159C54.4844 65.159 53.6861 64.7599 53.8857 63.3628C53.2869 64.3607 52.4886 65.159 51.4907 65.159C49.6945 65.159 49.6945 63.3628 50.0937 62.1653L51.0916 58.7725Z" fill="#B8B8B6"/>
<path d="M61.0702 57.7739L60.0723 62.1646C59.8728 62.963 60.0723 63.3621 60.4715 63.3621C61.0702 63.3621 61.669 62.963 62.0681 62.5638C62.2677 62.5638 62.2677 62.7634 62.2677 62.963C62.2677 63.1625 62.2677 63.1625 62.0681 63.3621C61.2698 64.1604 60.0723 64.9587 59.0744 64.9587C58.0766 64.9587 57.4778 64.36 57.877 62.5638L58.8749 57.7739H58.0766C58.0766 57.1752 58.2761 56.776 58.6753 56.776H59.0744L59.274 55.379C59.4736 54.5807 60.0723 54.3811 60.6711 54.3811C60.8706 54.3811 61.2698 54.3811 61.4694 54.5807L61.0702 56.776H62.2677C62.2677 57.3748 62.0681 57.7739 61.669 57.7739H61.0702Z" fill="#B8B8B6"/>
<path d="M65.8601 62.7636L66.4588 59.5703C66.6584 58.9716 66.6584 58.5725 66.0597 58.5725C65.4609 58.5725 65.0618 58.9716 64.6626 59.3708L63.6647 63.9611C63.4651 64.7594 62.8664 64.959 62.2677 64.959C62.0681 64.959 61.8685 64.9589 61.6689 64.7594L63.6647 55.3792C63.6647 54.9801 63.4651 54.7805 63.2656 55.1796C63.066 54.9801 63.066 54.7805 63.066 54.7805C63.066 54.3813 64.2635 53.583 65.0618 53.583C65.6605 53.583 65.8601 53.7826 65.8601 54.3813L65.0618 58.3729C65.6605 57.5746 66.4588 56.9758 67.2571 56.9758C68.0554 56.9758 69.0533 57.375 68.6542 59.3708L67.8559 62.9632C67.8559 63.3623 68.0554 63.5619 68.255 63.5619C68.8538 63.5619 69.4525 63.1628 69.8516 62.7636C70.0512 62.7636 70.0512 62.9632 70.0512 63.1627C70.0512 63.3623 70.0512 63.3623 69.8516 63.5619C69.0533 64.3602 68.0554 65.1585 67.0575 65.1585C66.2592 64.959 65.4609 64.5598 65.8601 62.7636Z" fill="#B8B8B6"/>
<path d="M71.6475 62.3648C71.8471 63.1631 72.4458 63.5623 73.0446 63.5623C74.242 63.5623 75.6391 62.764 76.2378 61.7661C76.637 61.7661 76.8365 61.9656 76.637 62.3648C75.6391 63.9614 73.6433 64.9593 72.2462 64.9593C70.8492 64.9593 69.4521 64.161 69.4521 62.1652C69.4521 60.1694 70.8492 56.7766 73.4437 56.7766C74.8408 56.7766 75.2399 57.5749 75.2399 58.3732C75.4395 59.5707 74.6412 60.7682 71.6475 62.3648ZM71.6475 61.7661C73.2441 60.7682 74.242 59.7703 74.242 58.5728C74.242 58.1737 74.0424 57.9741 73.8429 57.9741C72.0467 57.9741 71.6475 60.5686 71.6475 61.7661Z" fill="#B8B8B6"/>
<path d="M76.6375 57.5749C77.2363 57.1758 77.835 56.7766 78.4337 56.7766C79.0325 56.7766 79.4316 56.9762 79.232 57.5749L79.0325 58.3732C79.6312 57.3753 80.6291 56.7766 81.627 56.7766C82.4253 56.7766 83.024 57.3753 82.6249 59.1715L81.8266 62.764C81.8266 63.1631 82.0261 63.3627 82.2257 63.3627C82.8245 63.3627 83.4232 62.9635 83.8223 62.5644C84.0219 62.5644 84.0219 62.764 84.0219 62.9635C84.0219 63.1631 84.0219 63.1631 83.8223 63.3627C83.024 64.161 82.0261 64.9593 81.0282 64.9593C80.2299 64.9593 79.4316 64.5602 79.8308 62.764L80.4295 59.5707C80.6291 58.972 80.4295 58.5728 80.0304 58.5728C79.6312 58.5728 79.0325 58.972 78.6333 59.3711L77.835 63.9614C77.6354 64.7597 77.0367 64.9593 76.438 64.9593C76.2384 64.9593 75.8392 64.9593 75.6396 64.7597L77.0367 58.5728C77.0367 58.3732 77.0367 58.1737 76.8371 58.1737C76.8371 58.1737 76.6375 58.1737 76.438 58.3732C76.438 58.3732 76.2384 57.7745 76.6375 57.5749Z" fill="#B8B8B6"/>
<path d="M86.8155 57.7745L85.8176 62.3648C85.618 63.1631 85.8176 63.5623 86.2168 63.5623C86.4163 63.5623 86.8155 63.3627 87.0151 62.764C87.4142 62.764 87.4142 62.9635 87.4142 63.1631C87.4142 64.3606 86.0172 64.9593 85.2189 64.9593C84.4206 64.9593 83.2231 64.5602 83.6223 62.5644L84.6201 57.7745H83.8218C83.8218 57.1758 84.0214 56.7766 84.4206 56.7766H84.8197L85.0193 55.3796C85.2189 54.5813 85.8176 54.3817 86.4163 54.3817C86.6159 54.3817 87.0151 54.3817 87.2147 54.5813L86.8155 56.7766H90.2083C90.8071 56.7766 91.0066 56.9762 91.0066 57.5749L90.0087 62.1652C89.8092 62.9635 90.0087 63.3627 90.4079 63.3627C91.0066 63.3627 91.6054 62.9635 92.0045 62.5644C92.2041 62.5644 92.2041 62.764 92.2041 62.9635C92.2041 63.1631 92.2041 63.1631 92.0045 63.3627C91.2062 64.161 90.2083 64.9593 89.2104 64.9593C88.4121 64.9593 87.4142 64.5602 87.8134 63.1631L88.8113 58.3733C88.8113 58.1737 88.8113 57.9741 88.4121 57.9741H86.8155V57.7745ZM90.8071 53.783C91.4058 53.783 91.8049 54.1821 91.8049 54.9804C91.8049 55.5792 91.2062 56.1779 90.6075 56.1779C90.0087 56.1779 89.6096 55.7787 89.6096 54.9804C89.8092 54.1821 90.2083 53.783 90.8071 53.783Z" fill="#B8B8B6"/>
<path d="M96.1954 56.7766C97.3929 56.7766 98.1912 57.3753 98.1912 58.3732C98.1912 59.1715 97.5924 59.7703 96.9937 59.7703C96.7941 59.7703 96.5946 59.7703 96.395 59.5707C96.5946 59.1715 96.5946 58.7724 96.5946 58.5728C96.5946 58.1737 96.395 58.1737 95.9958 58.1737C95.1975 58.1737 94 59.9699 94 62.1652C94 63.3627 94.5988 63.9614 95.3971 63.9614C96.1954 63.9614 96.5946 63.5623 96.7941 62.9635C97.1933 62.9635 97.1933 63.1631 97.1933 63.3627C97.1933 64.161 95.7962 65.1589 94.3992 65.1589C93.0022 65.1589 91.8047 64.3606 91.8047 62.3648C92.2038 59.7703 93.8005 56.7766 96.1954 56.7766Z" fill="#B8B8B6"/>
<path d="M21.3549 46.3981C22.3528 45.9989 22.5524 45.2006 22.1532 44.2027L21.5545 42.6061C20.5566 40.2112 16.1659 43.0053 14.7689 39.6124L14.1701 38.0158C13.3718 36.02 14.5693 34.623 16.1659 34.0242C16.9642 33.6251 17.7625 33.6251 18.7604 34.0242L18.5608 33.2259L19.9579 32.6272C20.357 33.8247 20.9558 35.0221 21.3549 36.2196L19.3591 37.0179L18.96 36.02C18.5608 35.0221 17.9621 34.8226 16.9642 35.0221C16.1659 35.4213 15.7667 36.02 16.1659 37.0179L16.7646 38.6145C17.7625 41.0095 22.1532 38.0158 23.5503 41.4086L24.149 43.0053C24.9473 45.2006 23.5503 46.5977 21.7541 47.396C19.9579 48.1943 17.9621 47.7951 17.1638 45.7993L16.7646 44.8015L18.96 44.0031L19.3591 45.001C19.9579 46.3981 20.5566 46.5977 21.3549 46.3981Z" fill="white"/>
<path d="M26.7435 31.031L26.5439 30.4323L29.9368 29.4344L30.1363 30.0331L29.5376 30.8314L30.9347 36.0205L34.1279 35.2222L32.7309 30.0331L31.9325 29.634L31.733 29.0352L35.1258 28.0374L35.3254 28.6361L34.7266 29.4344L37.9199 41.2095L38.9178 41.4091L39.1174 42.0078L35.3254 43.0057L35.1258 42.407L35.9241 41.6087L34.3275 36.22L31.1342 37.0184L32.7309 42.407L33.9283 42.6065L34.1279 43.2053L30.3359 44.2032L30.1363 43.6044L30.9347 42.8061L27.7414 31.031H26.7435Z" fill="white"/>
<path d="M52.09 35.6213C52.4892 37.8167 51.0922 39.6129 48.6972 40.012C46.3023 40.4112 44.3065 39.2137 44.1069 36.8188L42.9095 29.8335C42.5103 27.6382 43.9074 25.842 46.3023 25.4428C48.6972 25.0437 50.693 26.2411 51.0922 28.6361L52.09 35.6213ZM46.1027 36.6192C46.3023 38.2158 47.1006 39.0141 48.4976 38.8146C49.8947 38.615 50.2938 37.4175 50.0943 36.0205L48.8968 29.0352C48.6972 27.6382 47.8989 26.6403 46.5019 26.8399C45.1048 27.0395 44.7057 28.0373 44.9052 29.634L46.1027 36.6192Z" fill="white"/>
<path d="M66.06 29.6339C66.2596 32.2284 64.4634 33.0267 62.268 33.0267H61.0706C61.0706 34.4238 61.2701 35.8208 61.2701 37.0183L62.268 37.617V38.2158C61.0706 38.2158 59.4739 38.4153 58.476 38.4153V37.8166L59.2744 37.2179C59.0748 33.2263 58.8752 29.2347 58.476 25.2432L57.6777 24.844V24.2453L61.8689 24.0457C64.0642 23.8461 65.8604 24.6445 66.06 27.0394V29.6339ZM60.2723 25.4428C60.4718 27.6381 60.4718 29.8335 60.6714 32.0288H62.0685C63.4655 32.0288 63.8647 31.2305 63.8647 29.8335L63.6651 27.239C63.6651 25.8419 63.0663 25.2432 61.6693 25.2432L60.2723 25.4428Z" fill="white"/>
<path d="M74.6425 37.6168V38.2156C73.6446 38.2156 72.4471 38.2156 71.4492 38.016V37.4172L72.2475 37.0181C72.4471 33.0265 72.6467 29.035 72.8463 25.0434L72.048 24.4447V23.8459C73.0458 23.8459 73.445 23.8459 74.4429 23.8459C75.4408 23.8459 75.4408 24.0455 75.6404 24.8438L77.4366 31.2303L78.2349 35.2219C78.2349 34.224 78.2349 32.827 78.2349 31.8291L78.4344 25.243L78.0353 24.6443V24.0455C79.0332 24.0455 80.0311 24.0455 81.029 24.2451V24.8438L80.2307 25.4426C80.0311 29.8333 79.8315 34.224 79.6319 38.6147H77.8357C77.4366 38.6147 77.0374 38.2156 77.0374 37.8164L74.2433 26.2409L74.4429 28.2367C74.2433 31.2303 74.2433 34.224 74.0437 37.2177L74.6425 37.6168Z" fill="white"/>
<path d="M86.8164 38.2157L87.4152 38.6149V39.2136L84.6211 38.8145V38.2157L85.4194 38.0162C87.016 34.0246 89.0118 29.2347 90.6084 25.2432L92.6042 25.6423L94.0013 39.4132L94.6 40.0119V40.6107L91.0076 40.0119V39.4132L91.8059 39.014V36.0204L88.0139 35.4216L86.8164 38.2157ZM88.4131 34.2242L91.6063 34.6233L91.0076 27.6381L88.4131 34.2242Z" fill="white"/>
<path d="M102.184 41.4084L101.985 42.0072C100.987 41.8076 99.7895 41.4084 98.9912 41.2089L99.1908 40.6101L100.189 40.4106C101.187 36.6186 102.384 32.627 103.382 28.835L102.783 28.0367L102.983 27.438C103.981 27.6376 104.779 28.0367 105.976 28.2363C106.775 28.4359 106.974 28.6355 106.974 29.4338C106.575 33.6249 106.376 36.2194 105.777 40.211L110.367 30.2321C110.766 29.6333 110.966 29.4338 111.764 29.6333C112.962 30.0325 113.56 30.0325 114.558 30.4317L114.359 31.0304L113.361 31.4295C112.363 35.2215 111.365 39.2131 110.168 43.0051L110.966 43.8034L110.766 44.4021C109.569 44.003 108.172 43.6038 106.974 43.4042L107.174 42.8055L108.172 42.4063C108.97 39.2131 109.768 36.2194 110.766 33.0262L111.365 31.0304L105.577 42.6059L103.781 42.2068C103.382 42.0072 103.182 41.8076 103.182 41.4084C103.582 37.2173 103.981 33.4253 104.38 29.2342L103.781 32.0283C102.983 34.8224 102.184 37.816 101.386 40.6101L102.184 41.4084Z" fill="white"/>
<path d="M115.355 45.9993L115.555 45.4006L116.553 45.201C117.95 41.409 119.547 37.617 120.944 34.0246L120.345 33.2263L120.545 32.8271C122.939 33.825 124.935 34.6233 127.33 35.4217L126.133 38.4153L125.135 38.0162L125.334 36.0204L122.74 35.0225C122.141 36.6191 121.343 38.4153 120.744 40.012L122.54 40.8103L123.538 40.012L124.137 40.2115C123.738 41.2094 123.139 42.4069 122.939 43.4048L122.341 43.2052V42.0077L120.545 41.2094C119.946 42.6065 119.347 44.0035 118.948 45.4006C118.748 45.7997 118.748 45.7997 118.349 45.7997C119.347 46.1989 120.545 46.598 121.542 46.9972L122.939 45.4006L123.738 45.7997L122.54 48.7934C120.145 47.7955 117.75 46.9972 115.355 45.9993Z" fill="white"/>
</svg>
