<?xml version="1.0" encoding="utf-8"?>
<svg width="147" height="111" viewBox="0 0 147 111" fill="none" xmlns="http://www.w3.org/2000/svg">
<path d="M135.701 97.1566L132.97 95.6961C126.302 92.013 102.172 86.2345 101.918 86.171L99.124 85.4725L101.474 83.8214L108.459 78.9954L112.967 63.0566L113.348 61.7866L114.618 62.1676C118.301 63.2471 142.432 73.4708 143.511 73.9153L146.178 75.0583L143.575 76.2648L131.382 82.0434L134.875 94.1721L135.701 97.1566Z" fill="#B8B8B6" fill-opacity="0.12"/>
<path d="M114.301 63.4377L109.666 79.821L102.3 84.901C102.3 84.901 126.748 90.7431 133.669 94.5532L129.859 81.4085L143.067 75.1219C143.004 75.1219 117.921 64.5173 114.301 63.4377Z" fill="#B8B8B6" fill-opacity="0.12"/>
<path d="M10.4776 97.1569L13.2082 95.6963C19.8758 92.0133 44.0061 86.2347 44.2601 86.1712L47.0542 85.4727L44.7046 83.8217L37.7195 78.9956L33.211 63.0569L32.83 61.7869L31.5599 62.1679C27.8769 63.2474 3.74655 73.471 2.66704 73.9155L0 75.0585L2.60354 76.2651L14.7957 82.0436L11.3032 94.1723L10.4776 97.1569Z" fill="#B8B8B6" fill-opacity="0.12"/>
<path d="M31.8772 63.4377L36.5128 79.821L43.8789 84.901C43.8789 84.901 19.431 90.7431 12.5094 94.5532L16.3195 81.4085L3.1748 75.1219C3.1748 75.1219 28.1942 64.5173 31.8772 63.4377Z" fill="#B8B8B6" fill-opacity="0.12"/>
<path d="M117.62 34.6131V35.0528V75.8308C117.195 79.7474 114.959 82.9758 112.742 85.2696C111.636 86.4139 110.555 87.3042 109.751 87.9073C109.35 88.2084 109.02 88.4367 108.792 88.5882C108.679 88.6638 108.591 88.7202 108.533 88.7568C108.504 88.7751 108.482 88.7885 108.469 88.7968L108.455 88.8055L108.453 88.8066L108.452 88.8069L108.452 88.807L108.452 88.8071L108.444 88.8122L83.3172 104.294C78.3286 107.051 73.4133 106.923 69.7064 106.087C67.8499 105.669 66.308 105.075 65.2326 104.587C64.6957 104.343 64.2772 104.126 63.9963 103.973C63.856 103.896 63.7502 103.835 63.6814 103.795C63.6469 103.775 63.6218 103.759 63.6062 103.75L63.5901 103.74L63.5885 103.739L63.5879 103.739L63.5875 103.739L63.5874 103.739L63.5777 103.732L63.5669 103.726L37.849 88.4857L37.8445 88.4831C34.5373 86.5464 32.5252 83.7212 31.3353 81.349C30.7415 80.1654 30.3582 79.1053 30.1242 78.345C30.0073 77.9654 29.9282 77.662 29.8789 77.457C29.8568 77.3653 29.8408 77.2934 29.8301 77.2434V33.6933C29.8408 33.6432 29.8568 33.5714 29.8789 33.4796C29.9282 33.2747 30.0073 32.9713 30.1242 32.5916C30.3582 31.8314 30.7415 30.7713 31.3353 29.5876C32.5252 27.2154 34.5373 24.3902 37.8445 22.4536L37.8474 22.4518L63.5653 7.27513L63.577 7.26823L63.5874 7.26167L63.5875 7.26163L63.5879 7.2614L63.5885 7.26102L63.5901 7.26004L63.6062 7.25015C63.6218 7.24067 63.6469 7.22553 63.6814 7.2053C63.7502 7.16483 63.856 7.104 63.9963 7.02732C64.2772 6.8739 64.6957 6.6574 65.2326 6.4136C66.308 5.92533 67.8499 5.33136 69.7064 4.91289C73.4136 4.07725 78.3295 3.94884 83.3185 6.70674L108.51 22.126L108.516 22.1296L108.516 22.1297L108.516 22.1298L108.516 22.1301L108.518 22.1312L108.532 22.1399C108.546 22.1482 108.567 22.1615 108.596 22.1798C108.654 22.2164 108.742 22.2728 108.856 22.3485C109.083 22.5 109.413 22.7283 109.815 23.0294C110.618 23.6325 111.699 24.5227 112.805 25.6671C114.929 27.8639 117.069 30.9181 117.62 34.6131Z" stroke="#494949" stroke-width="2"/>
<g opacity="0.4">
<path d="M26.5435 84.3931L26.226 83.1866L20.257 62.0408L19.9395 60.8343L21.0825 60.4533C37.2752 55.1192 54.8014 52.4521 73.2167 52.4521C103.189 52.4521 125.414 59.7547 125.668 59.8182L126.811 60.1993L126.494 61.4058L120.525 82.5516L120.207 83.7581L119.001 83.4406C106.237 80.329 92.0764 78.805 76.9632 78.805C49.4674 78.805 28.0041 84.0756 27.7501 84.1391L26.5435 84.3931Z" fill="#EDEDED"/>
<path d="M21.4639 61.6596L27.433 82.8054C27.433 82.8054 74.0426 71.2482 119.319 82.1703L125.288 61.0246C125.224 61.0246 74.6776 44.1968 21.4639 61.6596Z" fill="#B8B8B6"/>
</g>
<path d="M38.6086 85.9806C38.5451 85.6631 38.6722 85.3456 38.9897 85.2821C38.9897 85.2821 40.1327 84.9646 42.2917 84.5201C42.6092 84.4566 42.8632 84.6471 42.9267 84.9646C42.9902 85.2821 42.7997 85.5361 42.4822 85.5996C40.3232 86.0441 39.3072 86.3616 39.3072 86.3616C39.2437 86.3616 39.1802 86.3616 39.1167 86.3616C38.9262 86.4251 38.7357 86.2346 38.6086 85.9806ZM106.491 85.9171C106.11 85.8536 105.793 85.7901 105.412 85.7266C105.094 85.6631 104.904 85.4091 104.967 85.0916C105.031 84.7741 105.285 84.5836 105.602 84.6471C105.983 84.7106 106.301 84.7741 106.682 84.8376C106.999 84.9011 107.19 85.1551 107.126 85.4726C107.063 85.7266 106.872 85.9171 106.555 85.9171C106.555 85.9806 106.555 85.9806 106.491 85.9171ZM102.173 85.2821C101.03 85.0916 99.9505 84.9646 98.871 84.8376C98.5535 84.7741 98.363 84.5201 98.4265 84.2026C98.49 83.8851 98.744 83.6946 99.0615 83.6946C100.141 83.8216 101.284 84.0121 102.364 84.1391C102.681 84.2026 102.872 84.4566 102.808 84.7741C102.745 85.0281 102.554 85.2186 102.237 85.2186C102.237 85.2821 102.173 85.2821 102.173 85.2821ZM45.1492 84.5201C45.0857 84.2026 45.2762 83.9486 45.5937 83.8851C46.6098 83.6946 47.6893 83.5676 48.8958 83.3771C49.2133 83.3136 49.4673 83.5676 49.5308 83.8216C49.5943 84.1391 49.3403 84.3931 49.0863 84.4566C47.8798 84.6471 46.8003 84.7741 45.7842 84.9646C45.7207 84.9646 45.7207 84.9646 45.7207 84.9646C45.4032 85.0281 45.2127 84.8376 45.1492 84.5201ZM95.5689 84.4566C94.4259 84.3296 93.3464 84.2026 92.2669 84.0756C91.9494 84.0756 91.7589 83.7581 91.7589 83.4405C91.8224 83.123 92.0764 82.9325 92.3939 82.9325C93.4734 83.0596 94.6164 83.1865 95.6959 83.3135C96.0134 83.3771 96.2039 83.6311 96.2039 83.9486C96.1404 84.2026 95.8864 84.4566 95.5689 84.4566ZM51.7533 83.5676C51.7533 83.2501 51.9438 82.9961 52.2613 82.9325C53.3409 82.8055 54.4204 82.6785 55.6269 82.615C55.9444 82.615 56.1984 82.8055 56.1984 83.123C56.1984 83.4405 56.0079 83.6946 55.6904 83.7581C54.5474 83.8851 53.4044 84.0121 52.3883 84.0756H52.3248C52.0073 84.0756 51.8168 83.8216 51.7533 83.5676ZM88.9013 83.7581C87.7583 83.6311 86.6788 83.5676 85.5993 83.5041C85.2818 83.5041 85.0913 83.1866 85.0913 82.9325C85.0913 82.615 85.4088 82.4245 85.6628 82.4245C86.7423 82.488 87.8853 82.615 89.0283 82.6785C89.3458 82.6785 89.5364 82.996 89.5364 83.3135C89.4729 83.5676 89.2824 83.7581 88.9013 83.7581C88.9648 83.7581 88.9648 83.7581 88.9013 83.7581ZM58.4209 82.9325C58.4209 82.615 58.6114 82.361 58.9289 82.361C60.0084 82.2975 61.1515 82.234 62.2945 82.1705C62.612 82.1705 62.866 82.4245 62.866 82.6785C62.866 82.996 62.612 83.2501 62.358 83.2501C61.215 83.3136 60.1354 83.377 59.0559 83.4405C59.0559 83.4405 59.0559 83.4405 58.9924 83.4405C58.6749 83.4405 58.4209 83.1866 58.4209 82.9325ZM82.2973 83.3135C81.1542 83.25 80.0747 83.1865 78.9952 83.1865C78.6777 83.1865 78.4237 82.9325 78.4872 82.615C78.4872 82.2975 78.7412 82.0435 79.0587 82.107C80.1382 82.1705 81.2812 82.1705 82.4243 82.2975C82.7418 82.2975 82.9323 82.5515 82.9323 82.869C82.8688 83.0595 82.6148 83.3135 82.2973 83.3135ZM65.0885 82.5515C65.0885 82.234 65.3425 81.98 65.5965 81.98C66.676 81.9165 67.8191 81.9165 68.9621 81.9165C69.2796 81.9165 69.5336 82.1705 69.5336 82.488C69.5336 82.8055 69.2796 83.0595 68.9621 83.0595C67.8191 83.0595 66.7395 83.123 65.66 83.123C65.3425 83.123 65.0885 82.869 65.0885 82.5515ZM75.6297 83.0595C74.4866 83.0595 73.4071 82.996 72.3276 82.996C72.0101 82.996 71.7561 82.742 71.7561 82.4245C71.7561 82.107 72.0101 81.853 72.3276 81.853C73.4071 81.853 74.5501 81.853 75.6932 81.9165C76.0107 81.9165 76.2647 82.1705 76.2647 82.488C76.2012 82.8055 75.9472 83.0595 75.6297 83.0595Z" fill="#E0E2D2"/>
<path d="M43.8791 43.3716C44.0696 41.9745 44.1966 40.133 44.1966 38.0375C44.1966 35.9419 44.0696 34.2274 43.8791 32.8304C43.6886 31.4969 43.4346 30.4809 42.9901 29.9094C42.2281 28.7663 40.7676 28.7028 38.6086 29.7189C36.4495 30.7349 35.0525 32.1954 34.2905 33.7829C33.9095 34.5449 33.592 35.5609 33.4015 36.7675C33.211 37.974 33.084 39.371 33.084 41.022C33.084 42.546 33.1475 43.8796 33.338 44.8956C33.5285 45.9116 33.7825 46.7371 34.1635 47.3086C34.9255 48.5151 36.386 49.1501 38.5451 49.0231C39.4976 48.9596 40.0691 48.8326 40.3866 48.5151C41.0851 49.4041 41.8471 50.3566 42.5456 51.3092C43.3076 50.4837 44.0061 49.7216 44.7681 48.8326C43.6886 47.3721 43.0536 46.6101 42.9901 46.5466C43.4346 45.7846 43.6886 44.7686 43.8791 43.3716ZM40.0056 44.4511C39.7516 45.4036 39.3071 45.8481 38.6721 45.9751C38.0371 46.0386 37.5925 45.6576 37.3385 44.8321C37.0845 44.0066 36.9575 42.3555 36.9575 39.8155C36.9575 38.5455 37.021 37.4025 37.021 36.5135C37.0845 35.6244 37.2115 34.9259 37.3385 34.4179C37.5925 33.5289 37.9736 32.8939 38.6721 32.6399C39.3706 32.3859 39.7516 32.6399 40.0056 33.4019C40.1326 33.7829 40.1961 34.4814 40.2596 35.3704C40.3231 36.2595 40.3866 37.466 40.3866 38.863C40.3231 41.657 40.1961 43.4986 40.0056 44.4511ZM53.4678 32.6399C53.4678 35.3704 53.4678 38.101 53.4678 40.8315C53.4678 42.2285 53.3408 43.2445 53.1503 43.7526C52.9598 44.3241 52.5788 44.5781 52.0072 44.6416C51.4357 44.7051 51.0547 44.4511 50.8642 44.0066C50.6102 43.4986 50.4832 42.546 50.4832 41.0855C50.4832 38.482 50.4832 35.8149 50.4832 33.2114C50.4832 30.6079 50.4832 27.9408 50.4832 25.3373C49.2132 25.7183 48.0067 26.0993 46.8002 26.6073C46.8002 28.9569 46.8002 31.3064 46.8002 33.6559C46.8002 36.0054 46.8002 38.355 46.8002 40.7045C46.8002 43.6256 47.2447 45.6576 48.0702 46.8006C48.8322 47.8801 50.1657 48.3881 52.0072 48.3246C53.7853 48.2611 55.1188 47.5626 55.9443 46.1656C56.7698 44.7686 57.2143 42.546 57.2143 39.4345C57.2143 36.7675 57.2143 34.1004 57.2143 31.4969C57.2143 28.8298 57.2143 26.1628 57.2143 23.5593C55.9443 23.8768 54.7378 24.1943 53.4678 24.4483C53.4678 27.1788 53.4678 29.9094 53.4678 32.6399ZM67.6285 21.9718C66.0409 22.1623 64.4534 22.2893 62.9294 22.4798C62.2309 26.7978 61.5959 31.0524 60.9609 35.2434C60.3259 39.4345 59.6274 43.5621 58.9923 47.6896C60.2624 47.6896 61.5324 47.6261 62.8024 47.6261C62.9929 46.0386 63.2469 44.4511 63.5009 42.8635C64.7074 42.8 65.8504 42.8 67.057 42.7365C67.311 44.3241 67.5015 45.9116 67.7555 47.4991C69.0255 47.4991 70.2955 47.4991 71.5655 47.4991C70.9305 43.2446 70.232 38.99 69.597 34.7354C68.962 30.4809 68.2635 26.2263 67.6285 21.9718ZM63.8819 38.228C64.1359 36.3865 64.3264 34.5449 64.5804 32.7034C64.8344 30.8619 65.0249 28.9569 65.2789 27.1153C65.4694 28.9569 65.7234 30.7984 65.9139 32.6399C66.1044 34.4814 66.3584 36.323 66.549 38.1645C65.6599 38.101 64.7709 38.1645 63.8819 38.228ZM77.1536 32.2589C77.1536 28.8298 77.1536 25.4008 77.1536 21.9083C75.8836 21.8448 74.6771 21.8448 73.407 21.7812C73.407 26.0358 73.407 30.3539 73.407 34.6084C73.407 38.863 73.407 43.181 73.407 47.4356C76.3916 47.4356 79.3761 47.4991 82.3607 47.4991C82.3607 45.8481 82.3607 44.2606 82.3607 42.6095C80.5826 42.546 78.8681 42.4825 77.0901 42.4825C77.1536 39.1805 77.1536 35.6879 77.1536 32.2589ZM84.5832 35.2434C84.5832 39.371 84.5832 43.4986 84.5832 47.6896C85.8532 47.6896 87.0597 47.7531 88.2662 47.7531C88.2662 43.6891 88.2662 39.6885 88.2662 35.6244C88.2662 31.5604 88.2662 27.5598 88.2662 23.4958C87.0597 23.2418 85.7897 23.0513 84.5832 22.7973C84.5832 26.9248 84.5832 31.0524 84.5832 35.2434ZM90.2348 28.7028C91.3143 28.8933 92.3938 29.1474 93.5368 29.4014C93.5368 32.5129 93.5368 35.5609 93.5368 38.6725C93.5368 41.784 93.5368 44.8321 93.5368 47.9436C94.7433 48.0071 96.0134 48.0706 97.2199 48.0706C97.2199 45.1496 97.2199 42.165 97.2199 39.244C97.2199 36.323 97.2199 33.3384 97.2199 30.4174C98.2994 30.7349 99.3789 31.0524 100.522 31.4334C100.522 30.0364 100.522 28.6393 100.522 27.2423C97.0929 25.9723 93.6638 24.8928 90.2348 24.0038C90.2348 25.5278 90.2348 27.1153 90.2348 28.7028ZM109.222 31.1159C108.904 32.0684 108.587 33.0844 108.269 34.0369C107.952 35.0529 107.634 36.1324 107.317 37.1485C107.317 37.1485 107.317 37.1485 107.253 37.1485C106.936 35.8784 106.682 34.6084 106.364 33.2749C106.046 31.9414 105.792 30.6079 105.475 29.2744C104.078 28.6393 102.744 28.0678 101.347 27.4963C102.046 29.8459 102.681 32.1319 103.379 34.3544C104.078 36.577 104.713 38.736 105.411 40.8315C105.411 42.1015 105.411 43.308 105.411 44.5781C105.411 45.8481 105.411 47.0546 105.411 48.3246C106.618 48.3881 107.888 48.4516 109.158 48.5151C109.158 47.3721 109.158 46.2291 109.158 45.0861C109.158 43.9431 109.158 42.8 109.158 41.657C109.793 40.0695 110.492 38.5455 111.19 37.085C111.825 35.6879 112.524 34.3544 113.222 33.0844C111.952 32.5129 110.555 31.8144 109.222 31.1159Z" fill="#C6C6C5"/>
<path d="M40.0057 69.5341L34.5446 70.4867L34.8621 72.2647L35.5606 72.1377L36.0686 74.9317L32.5126 75.5667L32.0046 72.7727L32.7031 72.6457L31.4966 65.6606L30.798 65.7876L30.29 63.0571L38.5452 61.5965C39.8787 61.3425 40.7042 62.1045 41.0217 63.8826L41.5297 66.9306C41.7837 68.4546 41.2757 69.3436 40.0057 69.5341ZM38.7992 65.0891C38.7357 64.6446 38.4182 64.5176 37.9101 64.5811L33.6556 65.3431L34.1001 67.8831L38.4182 67.1211C38.9262 67.0576 39.1167 66.7401 38.9897 66.2956L38.7992 65.0891ZM51.6263 67.8831L53.3409 69.7246L54.1029 69.6611L54.3569 72.3917L50.0388 72.8362L49.7213 70.1056L50.4198 70.0421L48.8323 68.3276L46.5463 68.5816L46.7368 70.3597L47.4353 70.2961L47.7528 73.1537L44.1332 73.5347L43.8157 70.6772L44.5777 70.6137L43.8157 63.5651L43.1172 63.6286L42.7997 60.8345L51.1183 59.9455C52.4518 59.8185 53.2139 60.644 53.4044 62.422L53.7219 65.5336C53.8489 67.0576 53.2774 67.8831 51.8168 68.0101L51.6263 67.8831ZM51.2453 63.3746C51.1818 62.93 50.9278 62.7395 50.4198 62.803L46.1018 63.2476L46.3558 65.8511L50.7373 65.4066C51.1818 65.3431 51.4358 65.0891 51.3723 64.6446L51.2453 63.3746ZM64.263 63.6921L64.136 61.787L58.9924 62.041L59.1194 64.4541L63.374 64.2636L63.501 67.0576L59.2464 67.2481L59.3734 69.0896L64.4535 68.8356L64.39 67.1211L66.676 66.9941L66.93 71.5027L56.5794 72.0742L56.4524 69.2801L57.2144 69.2166L56.8334 62.1045L56.0714 62.168L55.9444 59.374L66.295 58.8025L66.549 63.5016L64.263 63.6921ZM77.8522 71.6932V68.8991H78.4872V64.0731L75.5662 71.6932H74.2961L71.3116 63.8191V69.0896H72.0101V71.6932H68.4541V69.1531H69.0891V62.1045H68.5811V58.9295H71.9466L74.9947 66.9941L78.0427 58.866H81.3447V62.041H80.7097V68.7721H81.3447V71.6297H77.8522V71.6932ZM83.2498 71.8202L83.3768 68.9626L84.2023 69.0261L84.5833 61.914L83.7578 61.8505L83.8848 59.0565L87.6948 59.247L87.5678 62.1045L86.8058 62.041L86.4248 69.0896L87.1868 69.1531L87.0598 72.0107L83.2498 71.8202ZM99.633 63.3746L98.871 70.6137C98.6805 72.3282 98.0455 73.0902 96.966 72.9632L91.4414 72.3917C90.3619 72.2647 89.9174 71.3757 90.1079 69.6611L90.8699 62.295L90.1714 62.2315L90.4889 59.4375L94.1719 59.8185L93.8544 62.6125L93.0924 62.549L92.3939 68.8356C92.3304 69.3436 92.5209 69.5976 92.9019 69.5976L96.077 69.9151C96.458 69.9786 96.712 69.7881 96.7755 69.3436L97.474 62.93L96.6485 62.8665L96.966 60.009L100.84 60.39L100.522 63.3111L99.633 63.3746ZM110.238 74.8047L110.619 72.0742L111.254 72.1377L111.952 67.3116L108.015 74.4872L106.745 74.2967L104.904 66.1051L104.205 71.3122L104.904 71.4392L104.523 74.0427L100.967 73.5347L101.348 70.9947L101.983 71.0582L102.935 64.0731L102.491 64.0096L102.935 60.8345L106.237 61.3425L108.142 69.7881L112.27 62.168L115.572 62.6125L115.127 65.7876L114.492 65.7241L113.54 72.3917L114.175 72.4552L113.794 75.2492L110.238 74.8047Z" fill="white"/>
<path d="M58.039 86.9966C57.658 86.9966 57.277 87.0601 56.9595 87.1871C56.7055 87.2506 56.515 87.4411 56.3245 87.6316C56.134 87.8221 56.007 88.0761 55.88 88.3301C55.753 88.6476 55.6895 89.0921 55.6895 89.6002C55.6895 90.3622 55.88 90.9972 56.3245 91.4417C56.769 91.8862 57.3405 92.0767 58.039 92.0767C58.7375 92.0767 59.309 91.8862 59.7535 91.3782C60.198 90.9337 60.3885 90.2987 60.3885 89.5366C60.3885 88.7111 60.198 88.1396 59.7535 87.6316C59.309 87.1871 58.7375 86.9966 58.039 86.9966ZM58.9915 90.8067C58.7375 91.1242 58.42 91.2512 58.039 91.2512C57.658 91.2512 57.3405 91.1242 57.0865 90.8067C56.8325 90.5527 56.7055 90.1082 56.7055 89.5366C56.7055 88.9651 56.8325 88.5206 57.0865 88.2666C57.3405 88.0126 57.658 87.8221 58.1025 87.8221C58.4835 87.8221 58.8645 87.9491 59.1185 88.2666C59.3725 88.5206 59.4995 88.9651 59.4995 89.5366C59.3725 90.1082 59.2455 90.4892 58.9915 90.8067ZM64.8336 90.2352C64.7066 90.1082 64.5161 89.9812 64.3256 89.8541C64.7701 89.7906 65.0876 89.6636 65.2781 89.4096C65.4686 89.1556 65.5956 88.8381 65.5956 88.5206C65.5956 88.2031 65.5321 87.9491 65.4051 87.7586C65.2781 87.5681 65.0876 87.3776 64.8336 87.3141C64.5796 87.2506 64.1986 87.1871 63.6906 87.1871H61.595V92.0767H62.6111V90.0447H62.8016C63.0556 90.0447 63.1826 90.0446 63.3096 90.1081C63.4366 90.1717 63.5001 90.2352 63.6271 90.2987C63.6906 90.4257 63.8811 90.6162 64.1351 90.9972L64.8336 92.0767H66.0401L65.4686 91.1242C65.1511 90.6162 64.9606 90.3622 64.8336 90.2352ZM63.3096 89.1556H62.5476V87.8856H63.3096C63.6906 87.8856 63.9446 87.8856 64.0081 87.8856C64.1986 87.8856 64.2621 87.9491 64.3891 88.0761C64.4526 88.2031 64.5161 88.3301 64.5161 88.4571C64.5161 88.5841 64.4526 88.7111 64.3891 88.8381C64.3256 88.9651 64.1986 89.0286 64.1351 89.0286C64.0716 89.1556 63.7541 89.1556 63.3096 89.1556ZM66.8656 92.0132H67.8816V87.1236H66.8656V92.0132ZM71.5012 90.1717H72.6442V90.8067C72.5172 90.9337 72.3267 90.9972 72.1362 91.1242C71.9457 91.1877 71.6917 91.2512 71.5012 91.2512C71.0567 91.2512 70.7392 91.1242 70.4852 90.8067C70.2312 90.4892 70.1042 90.1081 70.1042 89.4731C70.1042 88.9016 70.2312 88.5206 70.4852 88.2666C70.7392 88.0126 71.0567 87.8221 71.5012 87.8221C71.8187 87.8221 72.0092 87.8856 72.1997 88.0126C72.3902 88.1396 72.5172 88.3301 72.5807 88.5841L73.5332 88.3936C73.4062 87.9491 73.2157 87.5681 72.8982 87.3141C72.5807 87.0601 72.0727 86.9331 71.4377 86.9331C70.9932 86.9331 70.5487 86.9966 70.2947 87.1871C69.8502 87.3776 69.5326 87.6951 69.3421 88.0761C69.1516 88.4571 69.0246 88.9016 69.0246 89.4096C69.0246 89.8542 69.0881 90.2987 69.3421 90.7432C69.5326 91.1242 69.8502 91.4417 70.1677 91.6957C70.5487 91.8862 70.9932 92.0132 71.5012 92.0132C71.8822 92.0132 72.3267 91.9497 72.7077 91.7592C73.0887 91.6322 73.4062 91.4417 73.5967 91.2512V89.2826H71.4377V90.1717H71.5012ZM74.8667 92.0132H75.8827V87.1236H74.8667V92.0132ZM80.2008 90.3622L78.1688 87.0601H77.2163V91.9497H78.1688V88.7746L80.1373 91.9497H81.1533V87.0601H80.2643V90.3622H80.2008ZM83.9473 87.0601L82.0423 91.9497H83.0583L83.4393 90.8067H85.4079L85.8524 91.9497H86.9319L84.9634 87.0601H83.9473ZM83.7568 90.0447L84.4554 88.2031L85.1539 90.0447H83.7568ZM88.9004 91.1242V87.0601H87.8844V91.9497H91.3769V91.1242H88.9004Z" fill="#C6C6C5"/>
</svg>
