<?xml version="1.0" encoding="utf-8"?>
<svg width="58" height="59" viewBox="0 0 58 59" fill="none" xmlns="http://www.w3.org/2000/svg">
<path d="M56.8669 3.17187H51.8826V2.1523C51.8826 1.52674 51.3754 1.01945 50.7498 1.01945C50.1241 1.01945 49.6169 1.52674 49.6169 2.1523V3.17187H44.6326C44.0069 3.17187 43.4997 3.67916 43.4997 4.30472C43.4997 4.93028 44.0069 5.43757 44.6326 5.43757H49.6169V6.79699H40.5544V5.55085C40.5544 5.30967 40.4774 5.07483 40.3348 4.88032L37.9727 1.66359C37.2079 0.621822 35.9797 0 34.6873 0H23.3125C22.0201 0 20.792 0.621822 20.027 1.66348L17.6649 4.88021C17.5221 5.07472 17.4452 5.30956 17.4452 5.55074V6.79687H8.38275V5.43745H13.3671C13.9927 5.43745 14.4999 4.93016 14.4999 4.3046C14.4999 3.67904 13.9927 3.17175 13.3671 3.17175H8.38275V2.15219C8.38275 1.52663 7.87557 1.01934 7.2499 1.01934C6.62423 1.01934 6.11705 1.52663 6.11705 2.15219V3.17175H1.13285C0.507177 3.17175 0 3.67904 0 4.3046C0 4.93016 0.507177 5.43745 1.13285 5.43745H6.11716V6.79687H4.75774C4.40565 6.79687 4.0735 6.96057 3.85905 7.23993C3.64461 7.51929 3.57233 7.88237 3.6633 8.22257L4.54499 11.5176C4.87216 12.74 5.98451 13.5937 7.2499 13.5937C8.51529 13.5937 9.62764 12.7399 9.95469 11.5176L10.6116 9.06258H17.4452V10.8735C17.4452 12.0869 18.0848 13.1531 19.044 13.7545L15.1905 15.8122C11.8298 17.6069 9.74217 21.0883 9.74217 24.8981V26.7455C9.74217 27.371 10.2493 27.8783 10.875 27.8783C11.5007 27.8783 12.0079 27.371 12.0079 26.7455V24.8981C12.0079 21.9264 13.6362 19.2106 16.2579 17.8108L21.5955 14.9605C23.1174 16.7991 25.3945 17.8954 27.8345 17.8954H30.1654C32.6054 17.8954 34.8825 16.7991 36.4044 14.9605L41.742 17.8108C44.3635 19.2106 45.992 21.9264 45.992 24.8981V26.7455C45.992 27.371 46.4992 27.8783 47.1249 27.8783C47.7505 27.8783 48.2577 27.371 48.2577 26.7455V24.8981C48.2577 21.0883 46.1701 17.6069 42.8094 15.8122L38.9558 13.7545C39.9151 13.1531 40.5547 12.0869 40.5547 10.8735V9.06246H47.3883L48.0452 11.5175C48.3724 12.7399 49.4847 13.5936 50.7501 13.5936C52.0156 13.5936 53.1278 12.7398 53.4549 11.5175L54.3366 8.22245C54.4276 7.88226 54.3553 7.51918 54.1408 7.23982C53.9264 6.96046 53.5945 6.79676 53.2423 6.79676H51.8828V5.43734H56.8671C57.4928 5.43734 58 4.93005 58 4.30449C58 3.67893 57.4926 3.17187 56.8669 3.17187ZM7.76614 10.9318C7.70372 11.1651 7.49142 11.328 7.2499 11.328C7.00838 11.328 6.79608 11.1651 6.73366 10.9318L6.23351 9.06246H8.26629L7.76614 10.9318ZM30.1654 15.6298H27.8345C26.4429 15.6298 25.1248 15.1353 24.0919 14.272H33.9079C32.8751 15.1352 31.557 15.6298 30.1654 15.6298ZM38.2889 10.8734C38.2889 11.4981 37.7807 12.0063 37.156 12.0063H20.8436C20.219 12.0063 19.7108 11.4981 19.7108 10.8734V6.68359H29.9817C30.6073 6.68359 31.1145 6.1763 31.1145 5.55074C31.1145 4.92518 30.6073 4.41789 29.9817 4.41789H20.8153L21.8532 3.00432C22.193 2.54166 22.7386 2.26547 23.3126 2.26547H34.6873C35.2613 2.26547 35.8069 2.54166 36.1466 3.00432L38.289 5.92186V10.8734H38.2889ZM51.266 10.9318C51.2036 11.1651 50.9913 11.328 50.7498 11.328C50.5082 11.328 50.2959 11.1651 50.2335 10.9318L49.7334 9.06246H51.7662L51.266 10.9318Z" fill="white"/>
<path d="M35.1629 4.74941C34.9511 4.5387 34.6599 4.41748 34.3609 4.41748C34.0629 4.41748 33.7707 4.53858 33.56 4.74941C33.3492 4.96125 33.228 5.25228 33.228 5.55033C33.228 5.8494 33.3492 6.14055 33.56 6.35239C33.7718 6.5631 34.0629 6.68431 34.3609 6.68431C34.6588 6.68431 34.9511 6.5631 35.1629 6.35239C35.3736 6.14168 35.4937 5.8494 35.4937 5.55033C35.4937 5.25228 35.3736 4.96012 35.1629 4.74941Z" fill="white"/>
<path d="M51.222 41.719C49.8544 40.155 47.6126 39.7332 45.7702 40.6933L32.796 47.4548L29.8294 46.0486C29.8756 45.8104 29.9007 45.5647 29.9007 45.3132C29.9007 43.1902 28.1734 41.4628 26.0502 41.4628H9.74217V40.1011C9.74217 39.4756 9.23499 38.9683 8.60932 38.9683H1.13285C0.507177 38.9683 0 39.4756 0 40.1011C0 40.7267 0.507177 41.234 1.13285 41.234H7.47658V55.7339H1.13285C0.507177 55.7339 0 56.2412 0 56.8667C0 57.4923 0.507177 57.9996 1.13285 57.9996H8.60943C9.23511 57.9996 9.74228 57.4923 9.74228 56.8667V53.3842L21.5127 57.082C23.4724 57.6978 25.5073 58.0016 27.5387 58.0016C30.8826 58.0016 34.2169 57.1778 37.1883 55.5644L39.0373 54.5604C39.5872 54.2617 39.7908 53.5741 39.4923 53.0242C39.1938 52.4743 38.506 52.2708 37.9561 52.5691L36.1071 53.5732C31.867 55.8755 26.7948 56.3666 22.1917 54.9205L9.74217 51.0097V43.7285H26.0503C26.9242 43.7285 27.6352 44.4395 27.6352 45.3134C27.6352 46.1872 26.9243 46.8982 26.0503 46.8982H19.3747C18.749 46.8982 18.2418 47.4055 18.2418 48.0311C18.2418 48.6566 18.749 49.1639 19.3747 49.1639H26.0503C27.1051 49.1639 28.0617 48.7374 28.7579 48.0481L32.3347 49.7436C32.6553 49.8956 33.0287 49.8886 33.3435 49.7246L46.8173 42.7026C47.7296 42.2272 48.8395 42.436 49.5165 43.2104C49.9631 43.7211 50.1506 44.3971 50.0308 45.0648C49.9111 45.7326 49.5004 46.3014 48.9042 46.6251L44.6602 48.9294C44.1103 49.228 43.9067 49.9157 44.2052 50.4656C44.4104 50.8437 44.7998 51.058 45.2017 51.058C45.3844 51.058 45.5696 51.0137 45.7413 50.9205L49.9854 48.6162C51.1898 47.9623 52.0191 46.8136 52.261 45.4647C52.5027 44.1158 52.124 42.7505 51.222 41.719Z" fill="white"/>
<path d="M42.6452 50.946C42.4345 50.7354 42.1422 50.6152 41.8443 50.6152C41.5463 50.6152 41.2541 50.7354 41.0434 50.946C40.8326 51.1579 40.7114 51.449 40.7114 51.7481C40.7114 52.046 40.8326 52.3383 41.0434 52.549C41.2541 52.7597 41.5463 52.8809 41.8443 52.8809C42.1422 52.8809 42.4345 52.7598 42.6452 52.549C42.8559 52.3383 42.9771 52.046 42.9771 51.7481C42.9771 51.449 42.8559 51.1567 42.6452 50.946Z" fill="white"/>
<path d="M37.7312 28.1988L29.8016 20.2692C29.3592 19.8269 28.6419 19.8269 28.1994 20.2692L20.2698 28.1988C19.9458 28.5228 19.8489 29.01 20.0243 29.4334C20.1997 29.8566 20.6127 30.1327 21.0709 30.1327H24.4694V33.9327C24.4694 34.5583 24.9765 35.0656 25.6022 35.0656C26.2279 35.0656 26.7351 34.5583 26.7351 33.9327V28.9997C26.7351 28.3742 26.2279 27.8669 25.6022 27.8669H23.8059L29.0004 22.6723L34.1951 27.867H32.3987C31.7731 27.867 31.2659 28.3743 31.2659 28.9998V41.318C31.2659 41.9436 31.7731 42.4509 32.3987 42.4509C33.0244 42.4509 33.5316 41.9436 33.5316 41.318V30.1326H36.93C37.3882 30.1326 37.8013 29.8565 37.9767 29.4333C38.152 29.01 38.0551 28.5228 37.7312 28.1988Z" fill="white"/>
<path d="M25.6022 36.6511H25.601C24.9754 36.6511 24.4688 37.1584 24.4688 37.784C24.4688 38.4095 24.9765 38.9168 25.6022 38.9168C26.2278 38.9168 26.735 38.4095 26.735 37.784C26.735 37.1584 26.2277 36.6511 25.6022 36.6511Z" fill="white"/>
</svg>
