<?xml version="1.0" encoding="utf-8"?>
<svg width="47" height="49" viewBox="0 0 47 49" fill="none" xmlns="http://www.w3.org/2000/svg">
<path d="M40.2634 18.6324V16.7485C40.2634 12.2397 38.6678 8.05 35.7752 4.94118C32.8105 1.75 28.734 0 24.2869 0H22.7325C18.2855 0 14.209 1.75 11.2443 4.94118C8.35164 8.05 6.75605 12.2397 6.75605 16.7485V18.6324C3.24576 18.8691 0.456055 21.7926 0.456055 25.3647V28.3088C0.456055 32.025 3.48253 35.0515 7.1987 35.0515H10.9972C11.6766 35.0515 12.2325 34.4956 12.2325 33.8162V19.8471C12.2325 19.1676 11.6766 18.6118 10.9972 18.6118H9.22664V16.7485C9.22664 8.60588 15.0325 2.47059 22.7222 2.47059H24.2766C31.9766 2.47059 37.7722 8.60588 37.7722 16.7485V18.6118H36.0016C35.3222 18.6118 34.7663 19.1676 34.7663 19.8471V33.8059C34.7663 34.4853 35.3222 35.0412 36.0016 35.0412H37.731C37.2266 41.4853 32.7899 42.9779 30.7311 43.3176C30.1649 41.5779 28.5281 40.3221 26.6031 40.3221H23.5149C21.1266 40.3221 19.1811 42.2676 19.1811 44.6559C19.1811 47.0441 21.1266 49 23.5149 49H26.6134C28.6105 49 30.2884 47.6412 30.7928 45.8088C31.8016 45.6647 33.3972 45.3044 34.9825 44.3779C37.2163 43.0706 39.8619 40.4044 40.2119 35.0309C43.7428 34.8147 46.5428 31.8809 46.5428 28.2985V25.3544C46.5531 21.7926 43.7737 18.8588 40.2634 18.6324ZM9.78252 32.5706H7.21929C4.86194 32.5706 2.94723 30.6559 2.94723 28.2985V25.3544C2.94723 22.9971 4.86194 21.0824 7.21929 21.0824H9.78252V32.5706ZM26.6134 46.5294H23.5149C22.4855 46.5294 21.6516 45.6956 21.6516 44.6662C21.6516 43.6368 22.4855 42.8029 23.5149 42.8029H26.6134C27.6428 42.8029 28.4766 43.6368 28.4766 44.6662C28.4766 45.6956 27.6428 46.5294 26.6134 46.5294ZM44.0825 28.2985C44.0825 30.6559 42.1678 32.5706 39.8105 32.5706H37.2472V21.0824H39.8105C42.1678 21.0824 44.0825 22.9971 44.0825 25.3544V28.2985Z" fill="#45A7EF"/>
</svg>
