<?xml version="1.0" encoding="utf-8"?>
<svg width="58" height="59" viewBox="0 0 58 59" fill="none" xmlns="http://www.w3.org/2000/svg">
<path d="M54.6471 52.6459L55.2013 51.26C55.7779 49.818 56.0704 48.3004 56.0704 46.7482V33.9006C56.0704 33.2689 56.0199 32.6316 55.9218 32.0064L55.0368 26.3994C54.7583 24.6313 53.9416 23.0296 52.6763 21.7642L48.1607 17.2487C47.4842 16.5721 46.5861 16.2002 45.631 16.2002C43.6574 16.2002 42.0528 17.8047 42.0528 19.7784C42.0528 20.7335 42.4248 21.6325 43.1013 22.3081L46.2917 25.4985C47.1739 26.3807 47.6598 27.5544 47.6598 28.802V33.5661C47.6598 34.2875 47.4888 35.0099 47.1664 35.6556L46.1572 37.6732L42.5528 34.0688C41.8771 33.3932 40.9791 33.0213 40.024 33.0213C38.0503 33.0213 36.4458 34.6258 36.4458 36.5995C36.4458 37.5545 36.8177 38.4535 37.4943 39.1292L43.8751 45.51C45.1105 46.7454 45.7908 48.3883 45.7908 50.1358V52.6459H42.9873V58.2529H57.9394V52.6459H54.6471ZM45.1965 44.1886L38.8157 37.8078C38.4924 37.4845 38.3148 37.0555 38.3148 36.5995C38.3148 35.6566 39.0811 34.8903 40.024 34.8903C40.4801 34.8903 40.909 35.0678 41.2323 35.3912L44.9703 39.1292C45.8525 40.0114 47.0253 40.4973 48.2738 40.4973H50.4634V38.6283H48.2738C48.1122 38.6283 47.9523 38.6077 47.7944 38.5806L48.8383 36.492C49.2906 35.5884 49.5289 34.5772 49.5289 33.5661V28.802C49.5289 27.0545 48.8485 25.4125 47.6131 24.1762L44.4227 20.9858C44.0994 20.6634 43.9218 20.2344 43.9218 19.7784C43.9218 18.8355 44.6881 18.0692 45.631 18.0692C46.0871 18.0692 46.516 18.2468 46.8394 18.5701L51.3549 23.0856C52.3389 24.0697 52.9734 25.3163 53.1902 26.6909L54.0752 32.298C54.1593 32.8269 54.2014 33.367 54.2014 33.9006V46.7482C54.2014 48.0612 53.9537 49.3461 53.4659 50.5656L52.6342 52.6459H47.6598V50.1348C47.6598 47.8892 46.7852 45.7763 45.1965 44.1886ZM56.0704 56.3839H44.8563V54.5149H56.0704V56.3839Z" fill="white"/>
<path d="M39.249 31.1522C41.5367 31.1522 43.5197 32.8586 43.8618 35.1211L45.7102 34.8407C45.2299 31.6727 42.4525 29.2832 39.249 29.2832C35.6419 29.2832 32.7075 32.2175 32.7075 35.8247C32.7075 39.0282 35.097 41.8056 38.265 42.2859L38.5454 40.4374C36.2829 40.0954 34.5765 38.1124 34.5765 35.8247C34.5765 33.2483 36.6726 31.1522 39.249 31.1522Z" fill="white"/>
<path d="M12.1486 50.1348C12.1486 48.3873 12.8289 46.7454 14.0643 45.509L20.4451 39.1283C21.1217 38.4526 21.4936 37.5545 21.4936 36.5995C21.4936 34.6258 19.889 33.0213 17.9154 33.0213C16.9603 33.0213 16.0613 33.3932 15.3857 34.0698L11.7813 37.6742L10.772 35.6575C10.4506 35.0108 10.2795 34.2875 10.2795 33.5661V28.802C10.2795 27.5544 10.7655 26.3807 11.6477 25.4976L14.8381 22.3072C15.5146 21.6315 15.8866 20.7335 15.8866 19.7784C15.8866 17.8047 14.282 16.2002 12.3084 16.2002C11.3533 16.2002 10.4543 16.5721 9.77865 17.2487L5.26313 21.7642C3.99781 23.0296 3.18105 24.6322 2.90257 26.3994L2.01759 32.0064C1.91947 32.6316 1.86901 33.2698 1.86901 33.9006V46.7482C1.86901 48.3004 2.16151 49.818 2.7381 51.26L3.29226 52.6459H0V58.2529H14.9521V52.6459H12.1486V50.1348ZM3.73802 33.9006C3.73802 33.3661 3.78007 32.8269 3.86417 32.297L4.74915 26.69C4.96595 25.3153 5.60142 24.0687 6.58452 23.0847L11.1 18.5692C11.4234 18.2468 11.8523 18.0692 12.3084 18.0692C13.2513 18.0692 14.0176 18.8355 14.0176 19.7784C14.0176 20.2344 13.84 20.6634 13.5167 20.9867L10.3263 24.1771C9.09086 25.4125 8.41054 27.0554 8.41054 28.8029V33.567C8.41054 34.5772 8.64884 35.5893 9.10114 36.493L10.145 38.5806C9.98704 38.6077 9.82724 38.6283 9.66558 38.6283H7.47603V40.4973H9.66558C10.9131 40.4973 12.0869 40.0114 12.969 39.1292L16.7071 35.3912C17.0304 35.0678 17.4593 34.8903 17.9154 34.8903C18.8583 34.8903 19.6246 35.6566 19.6246 36.5995C19.6246 37.0555 19.447 37.4845 19.1237 37.8078L12.7429 44.1886C11.1542 45.7772 10.2795 47.8892 10.2795 50.1358V52.6459H5.30518L4.47347 50.5656C3.98566 49.3461 3.73802 48.0612 3.73802 46.7482V33.9006ZM13.0831 54.5149V56.3839H1.86901V54.5149H13.0831Z" fill="white"/>
<path d="M19.3938 40.4374L19.6742 42.2859C22.8422 41.8056 25.2317 39.0282 25.2317 35.8247C25.2317 32.2175 22.2974 29.2832 18.6902 29.2832C15.4867 29.2832 12.7093 31.6727 12.229 34.8407L14.0775 35.1211C14.4195 32.8586 16.4025 31.1522 18.6902 31.1522C21.2666 31.1522 23.3627 33.2483 23.3627 35.8247C23.3627 38.1124 21.6563 40.0954 19.3938 40.4374Z" fill="white"/>
<path d="M29.9037 35.8247H28.0347V37.6937H29.9037V35.8247Z" fill="white"/>
<path d="M40.1835 19.0034H17.7554V20.8724H40.1835V19.0034Z" fill="white"/>
<path d="M42.9873 47.0388H35.5112V43.3008H22.4282V47.0388H14.9521V48.9078H42.9873V47.0388ZM33.6422 47.0388H24.2972V45.1698H33.6422V47.0388Z" fill="white"/>
<path d="M14.9521 25.5452C14.9521 27.0909 16.21 28.3487 17.7557 28.3487C19.3013 28.3487 20.5592 27.0909 20.5592 25.5452C20.5592 23.9995 19.3013 22.7417 17.7557 22.7417C16.21 22.7417 14.9521 23.9995 14.9521 25.5452ZM17.7557 24.6107C18.2706 24.6107 18.6902 25.0303 18.6902 25.5452C18.6902 26.0601 18.2706 26.4797 17.7557 26.4797C17.2407 26.4797 16.8212 26.0601 16.8212 25.5452C16.8212 25.0303 17.2407 24.6107 17.7557 24.6107Z" fill="white"/>
<path d="M40.1834 22.7417C38.6377 22.7417 37.3799 23.9995 37.3799 25.5452C37.3799 27.0909 38.6377 28.3487 40.1834 28.3487C41.7291 28.3487 42.9869 27.0909 42.9869 25.5452C42.9869 23.9995 41.7291 22.7417 40.1834 22.7417ZM40.1834 26.4797C39.6685 26.4797 39.2489 26.0601 39.2489 25.5452C39.2489 25.0303 39.6685 24.6107 40.1834 24.6107C40.6983 24.6107 41.1179 25.0303 41.1179 25.5452C41.1179 26.0601 40.6983 26.4797 40.1834 26.4797Z" fill="white"/>
<path d="M34.5764 22.7417H23.3623V30.2177H34.5764V22.7417ZM32.7073 28.3487H25.2313V24.6107H32.7073V28.3487Z" fill="white"/>
<path d="M27.0893 17.2766L28.8386 5.90742C28.8826 5.90929 28.9246 5.9205 28.9695 5.9205C29.0143 5.9205 29.0564 5.90929 29.1003 5.90742L30.8497 17.2766L32.6972 16.9925L30.8759 5.15981C31.4244 4.64771 31.773 3.9244 31.773 3.11699C31.773 1.57132 30.5151 0.313477 28.9695 0.313477C27.4238 0.313477 26.166 1.57132 26.166 3.11699C26.166 3.9244 26.5145 4.64771 27.0631 5.15981L25.2427 16.9925L27.0893 17.2766ZM28.9695 2.18248C29.4844 2.18248 29.904 2.60208 29.904 3.11699C29.904 3.6319 29.4844 4.05149 28.9695 4.05149C28.4546 4.05149 28.035 3.6319 28.035 3.11699C28.035 2.60208 28.4546 2.18248 28.9695 2.18248Z" fill="white"/>
</svg>
