<?xml version="1.0" encoding="utf-8"?>
<svg width="82" height="59" viewBox="0 0 82 59" fill="none" xmlns="http://www.w3.org/2000/svg">
<path d="M80.6333 0.133057H1.36667C0.611925 0.133057 0 0.750981 0 1.51312V56.7157C0 57.4779 0.611925 58.0958 1.36667 58.0958H80.6333C81.3881 58.0958 82 57.4779 82 56.7157V1.51312C82 0.750981 81.3881 0.133057 80.6333 0.133057ZM79.2667 55.3357H2.73333V2.89319H79.2667V55.3357Z" fill="white"/>
<path d="M12.2997 49.8154H9.56641V52.5756H12.2997V49.8154Z" fill="white"/>
<path d="M6.83343 49.8154H4.1001V52.5756H6.83343V49.8154Z" fill="white"/>
<path d="M17.767 49.8154H15.0337V52.5756H17.767V49.8154Z" fill="white"/>
<path d="M23.2333 49.8154H20.5V52.5756H23.2333V49.8154Z" fill="white"/>
<path d="M28.6996 49.8154H25.9663V52.5756H28.6996V49.8154Z" fill="white"/>
<path d="M34.1669 49.8154H31.4336V52.5756H34.1669V49.8154Z" fill="white"/>
<path d="M39.6332 49.8154H36.8999V52.5756H39.6332V49.8154Z" fill="white"/>
<path d="M45.1 49.8154H42.3667V52.5756H45.1V49.8154Z" fill="white"/>
<path d="M50.5668 49.8154H47.8335V52.5756H50.5668V49.8154Z" fill="white"/>
<path d="M56.0331 49.8154H53.2998V52.5756H56.0331V49.8154Z" fill="white"/>
<path d="M61.4999 49.8154H58.7666V52.5756H61.4999V49.8154Z" fill="white"/>
<path d="M66.9667 49.8154H64.2334V52.5756H66.9667V49.8154Z" fill="white"/>
<path d="M72.4335 49.8154H69.7002V52.5756H72.4335V49.8154Z" fill="white"/>
<path d="M77.8998 49.8154H75.1665V52.5756H77.8998V49.8154Z" fill="white"/>
<path d="M12.2997 5.65332H9.56641V8.41345H12.2997V5.65332Z" fill="white"/>
<path d="M6.83343 5.65332H4.1001V8.41345H6.83343V5.65332Z" fill="white"/>
<path d="M17.767 5.65332H15.0337V8.41345H17.767V5.65332Z" fill="white"/>
<path d="M23.2333 5.65332H20.5V8.41345H23.2333V5.65332Z" fill="white"/>
<path d="M28.6996 5.65332H25.9663V8.41345H28.6996V5.65332Z" fill="white"/>
<path d="M34.1669 5.65332H31.4336V8.41345H34.1669V5.65332Z" fill="white"/>
<path d="M39.6332 5.65332H36.8999V8.41345H39.6332V5.65332Z" fill="white"/>
<path d="M45.1 5.65332H42.3667V8.41345H45.1V5.65332Z" fill="white"/>
<path d="M50.5668 5.65332H47.8335V8.41345H50.5668V5.65332Z" fill="white"/>
<path d="M56.0331 5.65332H53.2998V8.41345H56.0331V5.65332Z" fill="white"/>
<path d="M61.4999 5.65332H58.7666V8.41345H61.4999V5.65332Z" fill="white"/>
<path d="M66.9667 5.65332H64.2334V8.41345H66.9667V5.65332Z" fill="white"/>
<path d="M72.4335 5.65332H69.7002V8.41345H72.4335V5.65332Z" fill="white"/>
<path d="M77.8998 5.65332H75.1665V8.41345H77.8998V5.65332Z" fill="white"/>
<path d="M5.46631 45.6752C5.46631 46.4374 6.07823 47.0553 6.83298 47.0553H75.1663C75.921 47.0553 76.533 46.4374 76.533 45.6752C76.533 44.9131 75.921 44.2952 75.1663 44.2952H6.83298C6.07823 44.2952 5.46631 44.9131 5.46631 45.6752Z" fill="white"/>
<path d="M5.46631 12.5536C5.46631 13.3158 6.07823 13.9337 6.83298 13.9337H75.1663C75.921 13.9337 76.533 13.3158 76.533 12.5536C76.533 11.7915 75.921 11.1736 75.1663 11.1736H6.83298C6.07823 11.1736 5.46631 11.7915 5.46631 12.5536Z" fill="white"/>
<path d="M35.5341 16.6938C35.059 16.6937 34.6178 16.9426 34.3691 17.3514L23.4357 35.2923C23.0402 35.9415 23.2408 36.7916 23.8836 37.1909C24.0991 37.3248 24.3471 37.3955 24.6001 37.3955H34.1668V40.1556C34.1668 40.9178 34.7787 41.5357 35.5335 41.5357C36.2882 41.5357 36.9001 40.9178 36.9001 40.1556V37.3955H39.6335C40.3882 37.3955 41.0001 36.7776 41.0001 36.0155C41.0001 35.2533 40.3882 34.6354 39.6335 34.6354H36.9001V18.0746C36.9005 17.3125 36.2889 16.6942 35.5341 16.6938ZM34.1668 34.6354H27.0465L34.1668 22.9504V34.6354Z" fill="white"/>
<path d="M43.7334 16.6914C42.9786 16.6914 42.3667 17.3093 42.3667 18.0715V40.1525C42.3667 40.9147 42.9786 41.5326 43.7334 41.5326C44.4881 41.5326 45.1 40.9147 45.1 40.1525V31.3615L53.6444 41.0689C54.1457 41.6406 55.0108 41.6937 55.5769 41.1876C56.143 40.6814 56.1957 39.8079 55.6944 39.2362H55.689L45.6727 27.8575L55.0945 19.5895C55.665 19.0891 55.726 18.2164 55.2304 17.6402C54.7349 17.064 53.8706 17.0024 53.3 17.5029L45.1 24.7027V18.0715C45.1 17.3093 44.4881 16.6914 43.7334 16.6914Z" fill="white"/>
</svg>
