<?xml version="1.0" encoding="utf-8"?>
<svg width="36" height="60" viewBox="0 0 36 60" fill="none" xmlns="http://www.w3.org/2000/svg">
<path d="M1.13743 28.6583C1.76569 28.6583 2.27487 28.1491 2.27487 27.5209V27.4902C2.27487 26.8624 1.76569 26.3528 1.13743 26.3528C0.509623 26.3528 0 26.8624 0 27.4902V27.5209C0 28.1491 0.509623 28.6583 1.13743 28.6583Z" fill="white"/>
<path d="M30.8795 20.3751C30.0927 20.3751 29.3538 20.5818 28.7122 20.9421V12.282C28.7122 9.83257 26.7195 7.83984 24.27 7.83984C23.4836 7.83984 22.7442 8.046 22.1026 8.40633V5.20686C22.1031 2.75738 20.1104 0.764648 17.6609 0.764648C15.2114 0.764648 13.2187 2.75738 13.2187 5.20686V7.31333C12.5771 6.953 11.8382 6.74684 11.0513 6.74684C8.60228 6.74684 6.60911 8.73956 6.60911 11.1886V15.6144C5.96753 15.254 5.22864 15.0474 4.44221 15.0474C1.99273 15.0474 0 17.0406 0 19.4896V22.9446C0 23.5728 0.509179 24.082 1.13743 24.082C1.76569 24.082 2.27487 23.5728 2.27487 22.9446V19.4896C2.27487 18.2949 3.24702 17.3223 4.44221 17.3223C5.63696 17.3223 6.60911 18.2949 6.60911 19.4896V29.6519H5.47745C4.8492 29.6519 4.34002 30.1611 4.34002 30.7893C4.34002 31.4171 4.8492 31.9268 5.47745 31.9268H23.1525C23.7808 31.9268 24.29 31.4171 24.29 30.7893C24.29 30.1611 23.7808 29.6519 23.1525 29.6519H22.1031V12.282C22.1031 11.0869 23.0752 10.1147 24.27 10.1147C25.4652 10.1147 26.4373 11.0869 26.4373 12.282V32.8305C20.4227 33.3072 15.2776 37.5317 13.7034 43.4308C13.5412 44.0378 13.902 44.6611 14.5089 44.8233C14.6071 44.8495 14.7058 44.8619 14.8031 44.8619C15.3056 44.8619 15.7654 44.5261 15.9014 44.0173C17.3085 38.7438 22.1089 35.0605 27.5748 35.0605C28.203 35.0605 28.7122 34.5509 28.7122 33.923V24.8174C28.7122 23.6222 29.6843 22.65 30.8795 22.65C32.0743 22.65 33.0469 23.6222 33.0469 24.8174V41.3408C33.0464 49.8244 26.1445 56.7264 17.6609 56.7264C9.17722 56.7264 2.27487 49.8244 2.27487 41.3408V30.7889C2.27487 30.1611 1.76569 29.6514 1.13743 29.6514C0.509623 29.6514 0 30.1611 0 30.7889V41.3408C0 46.0398 1.84211 50.4696 5.18687 53.8144C8.53208 57.1591 12.9619 59.0012 17.6609 59.0012C22.3599 59.0012 26.7897 57.1591 30.1344 53.8144C33.4796 50.4696 35.3213 46.0398 35.3213 41.3408V24.8174C35.3213 22.3679 33.3286 20.3751 30.8795 20.3751ZM8.88442 29.6519V11.1886C8.88442 9.99385 9.85657 9.0217 11.0513 9.0217C12.2465 9.0217 13.2187 9.99385 13.2187 11.1886V29.6519H8.88442ZM15.4935 29.6519V5.20686C15.4935 4.01166 16.4657 3.03951 17.6609 3.03951C18.8556 3.03951 19.8282 4.01166 19.8282 5.20686V29.6519H15.4935Z" fill="white"/>
<path d="M15.4936 47.135C15.4936 46.5072 14.9844 45.9976 14.3562 45.9976C13.7279 45.9976 13.2188 46.5072 13.2188 47.135V47.1417C13.2188 47.7699 13.7279 48.276 14.3562 48.276C14.9844 48.276 15.4936 47.7632 15.4936 47.135Z" fill="white"/>
</svg>
