<?xml version="1.0" encoding="utf-8"?>
<svg width="58" height="59" viewBox="0 0 58 59" fill="none" xmlns="http://www.w3.org/2000/svg">
<path d="M55.1356 30.2177H52.3321V26.4796H51.3976V21.8071H45.7906V26.4796H44.856V30.2177H42.0525C40.5069 30.2177 39.249 31.4755 39.249 33.0212V55.4493C39.249 56.9949 40.5069 58.2528 42.0525 58.2528H55.1356C56.6813 58.2528 57.9391 56.9949 57.9391 55.4493V33.0212C57.9391 31.4755 56.6813 30.2177 55.1356 30.2177ZM47.6596 23.6761H49.5286V26.4796H47.6596V23.6761ZM46.7251 28.3487H50.4631V30.2177H46.7251V28.3487ZM41.118 35.8247H50.4631V37.6937H41.118V35.8247ZM41.118 39.5627H50.4631V41.4317H41.118V39.5627ZM41.118 43.3007H50.4631V45.1697H41.118V43.3007ZM41.118 47.0387H50.4631V48.9077H41.118V47.0387ZM41.118 50.7768H50.4631V52.6458H41.118V50.7768ZM56.0701 55.4493C56.0701 55.9651 55.6514 56.3838 55.1356 56.3838H42.0525C41.5367 56.3838 41.118 55.9651 41.118 55.4493V54.5148H52.3321V33.9557H41.118V33.0212C41.118 32.5053 41.5367 32.0867 42.0525 32.0867H55.1356C55.6514 32.0867 56.0701 32.5053 56.0701 33.0212V55.4493Z" fill="white"/>
<path d="M47.6599 6.85514V19.9382H49.5289V6.85514C49.5289 4.27871 47.4328 2.18262 44.8564 2.18262H43.9219V4.05163H44.8564C46.402 4.05163 47.6599 5.30947 47.6599 6.85514Z" fill="white"/>
<path d="M28.035 6.85514C28.035 5.30947 29.2929 4.05163 30.8385 4.05163H32.7075V2.18262H30.8385C28.2621 2.18262 26.166 4.27871 26.166 6.85514V11.5277H28.035V6.85514Z" fill="white"/>
<path d="M42.0527 0.313477H34.5767V5.9205H42.0527V0.313477ZM40.1837 4.05149H36.4457V2.18248H40.1837V4.05149Z" fill="white"/>
<path d="M12.1487 23.676V19.9379H14.0177C15.5634 19.9379 16.8212 18.6801 16.8212 17.1344V12.4619H14.9522V17.1344C14.9522 17.6503 14.5335 18.0689 14.0177 18.0689H4.67265C4.15681 18.0689 3.73815 17.6503 3.73815 17.1344V12.4619H1.86914V17.1344C1.86914 18.6801 3.12698 19.9379 4.67265 19.9379H6.54166V23.676H12.1487ZM8.41067 19.9379H10.2797V21.807H8.41067V19.9379Z" fill="white"/>
<path d="M31.7731 17.135H29.9041V13.397H24.297V17.135H22.428C20.8824 17.135 19.6245 18.3928 19.6245 19.9385V36.7596C19.6245 38.3052 20.8824 39.5631 22.428 39.5631H24.297V43.3011H29.9041V39.5631H31.7731C33.3187 39.5631 34.5766 38.3052 34.5766 36.7596V19.9385C34.5766 18.3928 33.3187 17.135 31.7731 17.135ZM26.166 15.266H28.035V17.135H26.166V15.266ZM28.035 41.4321H26.166V39.5631H28.035V41.4321ZM32.7076 36.7596C32.7076 37.2754 32.2889 37.6941 31.7731 37.6941H22.428C21.9122 37.6941 21.4935 37.2754 21.4935 36.7596V19.9385C21.4935 19.4227 21.9122 19.004 22.428 19.004H31.7731C32.2889 19.004 32.7076 19.4227 32.7076 19.9385V36.7596Z" fill="white"/>
<path d="M29.8057 21.2905L28.1329 20.4551L23.7192 29.2833H27.4573L24.3949 35.4071L26.0676 36.2426L30.4813 27.4143H26.7433L29.8057 21.2905Z" fill="white"/>
<path d="M26.1662 48.4408C26.1662 52.8208 22.603 56.384 18.2229 56.384C13.8429 56.384 10.2797 52.8208 10.2797 48.4408V25.5454H8.41064V48.4408C8.41064 53.8515 12.8122 58.2531 18.2229 58.2531C23.6337 58.2531 28.0352 53.8515 28.0352 48.4408V45.17H26.1662V48.4408Z" fill="white"/>
<path d="M18.6901 4.98649H14.9521V0.313965H13.0831V4.98649H5.60702V0.313965H3.73802V4.98649H0V10.5935H18.6901V4.98649ZM16.8211 8.7245H1.86901V6.85549H16.8211V8.7245Z" fill="white"/>
</svg>
