<?xml version="1.0" encoding="utf-8"?>
<svg width="58" height="59" viewBox="0 0 58 59" fill="none" xmlns="http://www.w3.org/2000/svg">
<path d="M52.5042 22.7416C52.8911 23.8265 53.919 24.6106 55.1357 24.6106C56.6814 24.6106 57.9393 23.3527 57.9393 21.8071C57.9393 20.2614 56.6814 19.0036 55.1357 19.0036C53.919 19.0036 52.8911 19.7876 52.5042 20.8726H46.7252V15.2655H52.5042C52.8911 16.3505 53.919 17.1345 55.1357 17.1345C56.6814 17.1345 57.9393 15.8767 57.9393 14.331C57.9393 12.7854 56.6814 11.5275 55.1357 11.5275C53.919 11.5275 52.8911 12.3116 52.5042 13.3965H46.7252V11.5275H44.8562V5.74855C45.9412 5.36167 46.7252 4.33371 46.7252 3.11699C46.7252 1.57132 45.4674 0.313477 43.9217 0.313477C42.376 0.313477 41.1182 1.57132 41.1182 3.11699C41.1182 4.33371 41.9022 5.36167 42.9872 5.74855V11.5275H37.3802V5.74855C38.4651 5.36167 39.2492 4.33371 39.2492 3.11699C39.2492 1.57132 37.9913 0.313477 36.4457 0.313477C34.9 0.313477 33.6421 1.57132 33.6421 3.11699C33.6421 4.33371 34.4262 5.36167 35.5112 5.74855V11.5275H29.9041V5.74855C30.9891 5.36167 31.7731 4.33371 31.7731 3.11699C31.7731 1.57132 30.5153 0.313477 28.9696 0.313477C27.424 0.313477 26.1661 1.57132 26.1661 3.11699C26.1661 4.33371 26.9502 5.36167 28.0351 5.74855V11.5275H22.4281V5.74855C23.5131 5.36167 24.2971 4.33371 24.2971 3.11699C24.2971 1.57132 23.0393 0.313477 21.4936 0.313477C19.9479 0.313477 18.6901 1.57132 18.6901 3.11699C18.6901 4.33371 19.4741 5.36167 20.5591 5.74855V11.5275H14.9521V5.74855C16.037 5.36167 16.8211 4.33371 16.8211 3.11699C16.8211 1.57132 15.5632 0.313477 14.0176 0.313477C12.4719 0.313477 11.214 1.57132 11.214 3.11699C11.214 4.33371 11.9981 5.36167 13.0831 5.74855V11.5275H11.214V13.3965H5.43508C5.04819 12.3116 4.02024 11.5275 2.80351 11.5275C1.25784 11.5275 0 12.7854 0 14.331C0 15.8767 1.25784 17.1345 2.80351 17.1345C4.02024 17.1345 5.04819 16.3505 5.43508 15.2655H11.214V20.8726H5.43508C5.04819 19.7876 4.02024 19.0036 2.80351 19.0036C1.25784 19.0036 0 20.2614 0 21.8071C0 23.3527 1.25784 24.6106 2.80351 24.6106C4.02024 24.6106 5.04819 23.8265 5.43508 22.7416H11.214V28.3486H5.43508C5.04819 27.2636 4.02024 26.4796 2.80351 26.4796C1.25784 26.4796 0 27.7374 0 29.2831C0 30.8288 1.25784 32.0866 2.80351 32.0866C4.02024 32.0866 5.04819 31.3026 5.43508 30.2176H11.214V35.8246H5.43508C5.04819 34.7397 4.02024 33.9556 2.80351 33.9556C1.25784 33.9556 0 35.2135 0 36.7591C0 38.3048 1.25784 39.5626 2.80351 39.5626C4.02024 39.5626 5.04819 38.7786 5.43508 37.6936H11.214V43.3007H5.43508C5.04819 42.2157 4.02024 41.4317 2.80351 41.4317C1.25784 41.4317 0 42.6895 0 44.2352C0 45.7808 1.25784 47.0387 2.80351 47.0387C4.02024 47.0387 5.04819 46.2546 5.43508 45.1697H11.214V47.0387H13.0831V52.8176C11.9981 53.2045 11.214 54.2325 11.214 55.4492C11.214 56.9949 12.4719 58.2527 14.0176 58.2527C15.5632 58.2527 16.8211 56.9949 16.8211 55.4492C16.8211 54.2325 16.037 53.2045 14.9521 52.8176V47.0387H20.5591V52.8176C19.4741 53.2045 18.6901 54.2325 18.6901 55.4492C18.6901 56.9949 19.9479 58.2527 21.4936 58.2527C23.0393 58.2527 24.2971 56.9949 24.2971 55.4492C24.2971 54.2325 23.5131 53.2045 22.4281 52.8176V47.0387H28.0351V52.8176C26.9502 53.2045 26.1661 54.2325 26.1661 55.4492C26.1661 56.9949 27.424 58.2527 28.9696 58.2527C30.5153 58.2527 31.7731 56.9949 31.7731 55.4492C31.7731 54.2325 30.9891 53.2045 29.9041 52.8176V47.0387H35.5112V52.8176C34.4262 53.2045 33.6421 54.2325 33.6421 55.4492C33.6421 56.9949 34.9 58.2527 36.4457 58.2527C37.9913 58.2527 39.2492 56.9949 39.2492 55.4492C39.2492 54.2325 38.4651 53.2045 37.3802 52.8176V47.0387H42.9872V52.8176C41.9022 53.2045 41.1182 54.2325 41.1182 55.4492C41.1182 56.9949 42.376 58.2527 43.9217 58.2527C45.4674 58.2527 46.7252 56.9949 46.7252 55.4492C46.7252 54.2325 45.9412 53.2045 44.8562 52.8176V47.0387H46.7252V45.1697H52.5042C52.8911 46.2546 53.919 47.0387 55.1357 47.0387C56.6814 47.0387 57.9393 45.7808 57.9393 44.2352C57.9393 42.6895 56.6814 41.4317 55.1357 41.4317C53.919 41.4317 52.8911 42.2157 52.5042 43.3007H46.7252V37.6936H52.5042C52.8911 38.7786 53.919 39.5626 55.1357 39.5626C56.6814 39.5626 57.9393 38.3048 57.9393 36.7591C57.9393 35.2135 56.6814 33.9556 55.1357 33.9556C53.919 33.9556 52.8911 34.7397 52.5042 35.8246H46.7252V30.2176H52.5042C52.8911 31.3026 53.919 32.0866 55.1357 32.0866C56.6814 32.0866 57.9393 30.8288 57.9393 29.2831C57.9393 27.7374 56.6814 26.4796 55.1357 26.4796C53.919 26.4796 52.8911 27.2636 52.5042 28.3486H46.7252V22.7416H52.5042ZM55.1357 20.8726C55.6516 20.8726 56.0702 21.2912 56.0702 21.8071C56.0702 22.3229 55.6516 22.7416 55.1357 22.7416C54.6199 22.7416 54.2012 22.3229 54.2012 21.8071C54.2012 21.2912 54.6199 20.8726 55.1357 20.8726ZM55.1357 13.3965C55.6516 13.3965 56.0702 13.8152 56.0702 14.331C56.0702 14.8469 55.6516 15.2655 55.1357 15.2655C54.6199 15.2655 54.2012 14.8469 54.2012 14.331C54.2012 13.8152 54.6199 13.3965 55.1357 13.3965ZM2.80351 15.2655C2.28767 15.2655 1.86901 14.8469 1.86901 14.331C1.86901 13.8152 2.28767 13.3965 2.80351 13.3965C3.31936 13.3965 3.73802 13.8152 3.73802 14.331C3.73802 14.8469 3.31936 15.2655 2.80351 15.2655ZM2.80351 22.7416C2.28767 22.7416 1.86901 22.3229 1.86901 21.8071C1.86901 21.2912 2.28767 20.8726 2.80351 20.8726C3.31936 20.8726 3.73802 21.2912 3.73802 21.8071C3.73802 22.3229 3.31936 22.7416 2.80351 22.7416ZM2.80351 30.2176C2.28767 30.2176 1.86901 29.7989 1.86901 29.2831C1.86901 28.7673 2.28767 28.3486 2.80351 28.3486C3.31936 28.3486 3.73802 28.7673 3.73802 29.2831C3.73802 29.7989 3.31936 30.2176 2.80351 30.2176ZM2.80351 37.6936C2.28767 37.6936 1.86901 37.275 1.86901 36.7591C1.86901 36.2433 2.28767 35.8246 2.80351 35.8246C3.31936 35.8246 3.73802 36.2433 3.73802 36.7591C3.73802 37.275 3.31936 37.6936 2.80351 37.6936ZM2.80351 45.1697C2.28767 45.1697 1.86901 44.751 1.86901 44.2352C1.86901 43.7193 2.28767 43.3007 2.80351 43.3007C3.31936 43.3007 3.73802 43.7193 3.73802 44.2352C3.73802 44.751 3.31936 45.1697 2.80351 45.1697ZM43.9217 2.18248C44.4375 2.18248 44.8562 2.60114 44.8562 3.11699C44.8562 3.63283 44.4375 4.05149 43.9217 4.05149C43.4058 4.05149 42.9872 3.63283 42.9872 3.11699C42.9872 2.60114 43.4058 2.18248 43.9217 2.18248ZM36.4457 2.18248C36.9615 2.18248 37.3802 2.60114 37.3802 3.11699C37.3802 3.63283 36.9615 4.05149 36.4457 4.05149C35.9298 4.05149 35.5112 3.63283 35.5112 3.11699C35.5112 2.60114 35.9298 2.18248 36.4457 2.18248ZM28.9696 2.18248C29.4855 2.18248 29.9041 2.60114 29.9041 3.11699C29.9041 3.63283 29.4855 4.05149 28.9696 4.05149C28.4538 4.05149 28.0351 3.63283 28.0351 3.11699C28.0351 2.60114 28.4538 2.18248 28.9696 2.18248ZM39.2492 17.8644V32.0866C39.2492 36.2498 36.7662 39.9738 32.9226 41.5756L28.9696 43.2231L25.0167 41.5756C21.1731 39.9738 18.6901 36.2498 18.6901 32.0866V17.8644L28.9696 15.2945L39.2492 17.8644ZM21.4936 2.18248C22.0094 2.18248 22.4281 2.60114 22.4281 3.11699C22.4281 3.63283 22.0094 4.05149 21.4936 4.05149C20.9777 4.05149 20.5591 3.63283 20.5591 3.11699C20.5591 2.60114 20.9777 2.18248 21.4936 2.18248ZM14.0176 2.18248C14.5334 2.18248 14.9521 2.60114 14.9521 3.11699C14.9521 3.63283 14.5334 4.05149 14.0176 4.05149C13.5017 4.05149 13.0831 3.63283 13.0831 3.11699C13.0831 2.60114 13.5017 2.18248 14.0176 2.18248ZM14.0176 56.3837C13.5017 56.3837 13.0831 55.9651 13.0831 55.4492C13.0831 54.9334 13.5017 54.5147 14.0176 54.5147C14.5334 54.5147 14.9521 54.9334 14.9521 55.4492C14.9521 55.9651 14.5334 56.3837 14.0176 56.3837ZM21.4936 56.3837C20.9777 56.3837 20.5591 55.9651 20.5591 55.4492C20.5591 54.9334 20.9777 54.5147 21.4936 54.5147C22.0094 54.5147 22.4281 54.9334 22.4281 55.4492C22.4281 55.9651 22.0094 56.3837 21.4936 56.3837ZM13.0831 45.1697V13.3965H28.8528L16.8211 16.4047V32.0866C16.8211 37.0068 19.7563 41.4092 24.2971 43.3007L28.7837 45.1697H13.0831ZM28.9696 56.3837C28.4538 56.3837 28.0351 55.9651 28.0351 55.4492C28.0351 54.9334 28.4538 54.5147 28.9696 54.5147C29.4855 54.5147 29.9041 54.9334 29.9041 55.4492C29.9041 55.9651 29.4855 56.3837 28.9696 56.3837ZM36.4457 56.3837C35.9298 56.3837 35.5112 55.9651 35.5112 55.4492C35.5112 54.9334 35.9298 54.5147 36.4457 54.5147C36.9615 54.5147 37.3802 54.9334 37.3802 55.4492C37.3802 55.9651 36.9615 56.3837 36.4457 56.3837ZM43.9217 56.3837C43.4058 56.3837 42.9872 55.9651 42.9872 55.4492C42.9872 54.9334 43.4058 54.5147 43.9217 54.5147C44.4375 54.5147 44.8562 54.9334 44.8562 55.4492C44.8562 55.9651 44.4375 56.3837 43.9217 56.3837ZM44.8562 45.1697H29.1556L33.6421 43.3007C38.1829 41.4092 41.1182 37.0068 41.1182 32.0866V16.4047L29.0864 13.3965H44.8562V45.1697ZM55.1357 43.3007C55.6516 43.3007 56.0702 43.7193 56.0702 44.2352C56.0702 44.751 55.6516 45.1697 55.1357 45.1697C54.6199 45.1697 54.2012 44.751 54.2012 44.2352C54.2012 43.7193 54.6199 43.3007 55.1357 43.3007ZM55.1357 35.8246C55.6516 35.8246 56.0702 36.2433 56.0702 36.7591C56.0702 37.275 55.6516 37.6936 55.1357 37.6936C54.6199 37.6936 54.2012 37.275 54.2012 36.7591C54.2012 36.2433 54.6199 35.8246 55.1357 35.8246ZM55.1357 28.3486C55.6516 28.3486 56.0702 28.7673 56.0702 29.2831C56.0702 29.7989 55.6516 30.2176 55.1357 30.2176C54.6199 30.2176 54.2012 29.7989 54.2012 29.2831C54.2012 28.7673 54.6199 28.3486 55.1357 28.3486Z" fill="white"/>
<path d="M34.5768 19.0038H32.7078V17.1348H25.2318V19.0038H23.3628V39.5629H34.5768V19.0038ZM32.7078 22.7418H30.8388V24.6108H32.7078V26.4798H30.8388V28.3488H32.7078V30.2178H30.8388V32.0868H32.7078V33.9558H30.8388V35.8248H32.7078V37.6939H25.2318V35.8248H28.9698V33.9558H25.2318V32.0868H28.9698V30.2178H25.2318V28.3488H28.9698V26.4798H25.2318V24.6108H28.9698V22.7418H25.2318V20.8728H27.1008V19.0038H30.8388V20.8728H32.7078V22.7418Z" fill="white"/>
</svg>
