<?xml version="1.0" encoding="utf-8"?>
<svg width="67" height="50" viewBox="0 0 67 50" fill="none" xmlns="http://www.w3.org/2000/svg">
<path d="M54.2412 15.8921H50.023L51.2939 1.08229C51.2963 1.05547 51.2967 1.02904 51.2968 1.00261C51.2968 1.00035 51.2971 0.998223 51.2971 0.995965C51.2971 0.995566 51.2971 0.995301 51.2971 0.994903C51.2971 0.591815 51.0575 0.23654 50.7053 0.082079C50.7023 0.0807508 50.6994 0.0791574 50.6964 0.0778292C50.6746 0.0685323 50.6519 0.0605631 50.6292 0.0528599C50.6207 0.0500709 50.6126 0.0466175 50.604 0.0439613C50.5855 0.0382503 50.5664 0.0337347 50.5474 0.0290863C50.534 0.0258988 50.5212 0.0220475 50.5077 0.0193912C50.4911 0.0160709 50.4738 0.0139462 50.4568 0.0114227C50.4409 0.0090321 50.4252 0.00624263 50.4091 0.00478168C50.4063 0.00451606 50.4038 0.00398437 50.4011 0.00371875C50.3838 0.00212499 50.3668 0.0023907 50.3497 0.00172663C50.3381 0.0013282 50.3269 0 50.3154 0H50.3031C50.302 0 50.301 0 50.3001 0H30.2299C29.6882 0 29.2485 0.446252 29.2485 0.996098C29.2485 1.54462 29.6882 1.9922 30.2299 1.9922H49.2456L47.2924 24.753C47.2921 24.7548 47.2921 24.7565 47.2919 24.7582L46.799 30.5012H12.6958L13.2662 24.5249H19.7596C20.3017 24.5249 20.741 24.0789 20.741 23.5288C20.741 22.9786 20.3017 22.5327 19.7596 22.5327H13.4565L14.6609 9.91609H24.9955C25.5377 9.91609 25.977 9.4701 25.977 8.91999C25.977 8.36988 25.5377 7.92389 24.9955 7.92389H14.8512L15.4175 1.9922H26.3041C26.8446 1.9922 27.2856 1.54462 27.2856 0.996098C27.2856 0.446252 26.8446 0 26.3041 0H14.5268C14.5262 0 14.5258 0.00013274 14.5253 0.00013274C14.0643 -7.29627e-08 13.6644 0.329377 13.5677 0.785988C13.567 0.789309 13.5659 0.792496 13.5652 0.795816C13.5602 0.820652 13.557 0.84602 13.5537 0.87152C13.5528 0.879621 13.5511 0.887324 13.5503 0.895426C13.5501 0.89702 13.5498 0.89848 13.5496 0.900074L12.8791 7.92389H0.981449C0.439297 7.92389 0 8.36988 0 8.91999C0 9.4701 0.439297 9.91609 0.981449 9.91609H12.6888L11.4844 22.5327H7.98272C7.44056 22.5327 7.00127 22.9786 7.00127 23.5288C7.00127 24.0789 7.44056 24.5249 7.98272 24.5249H11.2943L10.6384 31.3941C10.6383 31.3951 10.6383 31.3962 10.6381 31.3971L9.62409 42.0194C9.62396 42.0206 9.62383 42.0219 9.6237 42.023L9.62331 42.0268C9.622 42.0406 9.62213 42.0542 9.62134 42.068C9.62043 42.0863 9.6186 42.1043 9.6186 42.1228C9.6186 42.1236 9.61873 42.1244 9.61873 42.1254C9.61873 42.151 9.62056 42.1762 9.62239 42.2015C9.62317 42.2096 9.62291 42.2178 9.62383 42.2258C9.62645 42.2515 9.63076 42.2769 9.63534 42.3021C9.63665 42.3096 9.63731 42.3172 9.63875 42.3245C9.64254 42.3436 9.64791 42.362 9.65288 42.3808C9.65628 42.3939 9.65903 42.4073 9.66296 42.4202C9.66413 42.4238 9.6657 42.4273 9.66675 42.431C9.71425 42.5792 9.79486 42.7123 9.90007 42.8209C9.90204 42.8229 9.90361 42.8252 9.90557 42.827C9.91604 42.8376 9.92742 42.8472 9.93842 42.8573C10.0061 42.9203 10.0825 42.9736 10.1661 43.0155C10.1835 43.0242 10.2007 43.0334 10.2185 43.041C10.2238 43.0434 10.2296 43.045 10.2351 43.0471C10.2597 43.057 10.2844 43.0666 10.3099 43.0747C10.3123 43.0754 10.3145 43.0758 10.3169 43.0766C10.3459 43.0853 10.3752 43.093 10.4052 43.0993C10.4091 43.1001 10.4132 43.1003 10.417 43.1011C10.4455 43.1066 10.4742 43.1112 10.5033 43.1142C10.504 43.1142 10.5045 43.1143 10.5052 43.1144C10.5374 43.1176 10.5693 43.1192 10.601 43.1192C10.6014 43.1192 10.6019 43.1191 10.6024 43.1191H14.9715C15.454 46.8316 18.5901 49.707 22.3778 49.707C26.1653 49.707 29.3014 46.8316 29.7838 43.1191H45.5262C46.0088 46.8316 49.1447 49.707 52.9323 49.707C56.7198 49.707 59.8561 46.8316 60.3387 43.1191H64.7089C64.7096 43.1191 64.7104 43.1192 64.711 43.1192C64.7437 43.1192 64.7759 43.1172 64.8078 43.114C64.8136 43.1135 64.8191 43.1123 64.8249 43.1116C64.8504 43.1086 64.8758 43.105 64.9006 43.0999C64.9113 43.0978 64.9217 43.0949 64.9323 43.0924C64.9515 43.0879 64.9709 43.0831 64.9897 43.0774C65.0026 43.0735 65.015 43.069 65.0275 43.0646C65.0436 43.059 65.0597 43.0532 65.0756 43.0467C65.0892 43.0412 65.1021 43.0353 65.1154 43.0293C65.1298 43.0225 65.1441 43.0156 65.1581 43.0083C65.1715 43.0014 65.1843 42.9942 65.1972 42.9868C65.2106 42.9788 65.224 42.9706 65.2372 42.9621C65.2495 42.9541 65.2618 42.946 65.2736 42.9375C65.2869 42.9281 65.2996 42.9181 65.3126 42.908C65.3233 42.8994 65.3342 42.8909 65.3446 42.8819C65.3581 42.8703 65.3708 42.8582 65.3836 42.8459C65.3925 42.8372 65.4018 42.8287 65.4105 42.8197C65.4241 42.8056 65.437 42.7908 65.45 42.7758C65.4569 42.7677 65.4641 42.7598 65.4708 42.7516C65.4852 42.7335 65.4983 42.7149 65.5113 42.6962C65.5158 42.6897 65.5208 42.6836 65.5251 42.6769C65.541 42.6526 65.5561 42.6277 65.57 42.6019C65.571 42.6003 65.5721 42.5988 65.5727 42.5971C65.5875 42.5695 65.6011 42.5412 65.6133 42.512C65.6167 42.5036 65.6193 42.495 65.6226 42.4866C65.6306 42.466 65.6384 42.4454 65.6451 42.4241C65.6494 42.4103 65.6525 42.396 65.6563 42.3821C65.6607 42.3655 65.6652 42.349 65.6689 42.3322C65.6722 42.3172 65.6743 42.3017 65.6768 42.2865C65.679 42.2731 65.6819 42.2599 65.6836 42.2462C65.7252 41.9078 66.4937 35.6498 66.837 31.6033C66.8373 31.5994 66.8375 31.5954 66.8379 31.5916C66.9367 30.4251 67 29.4428 67 28.8414C67 21.7012 61.2765 15.8921 54.2412 15.8921ZM49.852 17.8846H53.8672L53.3543 23.8607H49.3392L49.852 17.8846ZM22.3781 47.7147C19.3399 47.7147 16.8682 45.2061 16.8682 42.1227C16.8682 39.0393 19.34 36.5308 22.3781 36.5308C25.4161 36.5308 27.8878 39.0393 27.8878 42.1227C27.8878 45.2061 25.4161 47.7147 22.3781 47.7147ZM52.9323 47.7147C49.8943 47.7147 47.4227 45.2061 47.4227 42.1227C47.4227 39.0393 49.8944 36.5308 52.9323 36.5308C55.9705 36.5308 58.4422 39.0393 58.4422 42.1227C58.4422 45.2061 55.9705 47.7147 52.9323 47.7147ZM63.8417 41.1262H60.339C59.8566 37.4134 56.7204 34.5379 52.9326 34.5379C49.145 34.5379 46.0088 37.4136 45.5264 41.1262H29.7842C29.3019 37.4134 26.1658 34.5379 22.3781 34.5379C18.5903 34.5379 15.454 37.4136 14.9717 41.1262H11.6813L12.5056 32.4928H47.6984V32.4934C47.699 32.4934 47.6993 32.4934 47.6999 32.4934C47.7327 32.4934 47.7653 32.4915 47.7975 32.4882C47.8035 32.4877 47.8094 32.4863 47.8154 32.4855C47.8411 32.4825 47.8666 32.4788 47.8917 32.4737C47.9026 32.4715 47.9132 32.4684 47.9239 32.4657C47.9435 32.461 47.9632 32.4563 47.9823 32.4505C47.9954 32.4465 48.0078 32.4417 48.0205 32.4372C48.037 32.4313 48.0535 32.4256 48.0694 32.419C48.0832 32.4133 48.0964 32.4069 48.1097 32.4005C48.1243 32.3938 48.1388 32.387 48.1528 32.3796C48.1661 32.3724 48.1792 32.3647 48.1924 32.357C48.2059 32.349 48.2193 32.3409 48.2323 32.3324C48.245 32.324 48.2571 32.3153 48.2692 32.3065C48.2822 32.2972 48.2948 32.2876 48.3073 32.2777C48.3186 32.2685 48.3297 32.2591 48.3407 32.2494C48.3531 32.2385 48.3653 32.2273 48.3771 32.2158C48.387 32.2061 48.397 32.1961 48.4066 32.1859C48.4184 32.1734 48.4298 32.1605 48.4411 32.1474C48.4498 32.137 48.4585 32.1267 48.4668 32.116C48.4777 32.1021 48.488 32.0878 48.4982 32.0733C48.506 32.0624 48.5134 32.0515 48.5208 32.0403C48.5303 32.0253 48.5395 32.0099 48.5482 31.9943C48.5549 31.9826 48.5617 31.9709 48.5677 31.9589C48.576 31.9433 48.583 31.9273 48.5905 31.9113C48.5963 31.8984 48.6022 31.8857 48.6074 31.8725C48.6138 31.8568 48.6192 31.8407 48.6248 31.8247C48.6296 31.8104 48.6347 31.7962 48.6391 31.7816C48.6434 31.7662 48.6469 31.7504 48.6508 31.7347C48.6546 31.7189 48.6588 31.7033 48.6618 31.6872C48.6648 31.6715 48.6667 31.6556 48.669 31.6396C48.6714 31.6232 48.6741 31.607 48.6757 31.5902C48.676 31.5878 48.6765 31.5856 48.6766 31.5832L49.1685 25.8523H54.2409C57.2479 25.8523 58.6042 27.4336 60.0398 29.1078C61.2245 30.4892 62.5471 32.0305 64.7953 32.4065C64.5097 35.4705 64.0482 39.4039 63.8417 41.1262ZM64.963 30.4103C63.5046 30.1086 62.6073 29.068 61.5202 27.8004C60.1607 26.2153 58.501 24.2809 55.3195 23.9204L55.8272 18.0039C61.0307 18.7849 65.0371 23.3468 65.0371 28.8417C65.0371 29.215 65.0096 29.7574 64.963 30.4103Z" fill="#45A7EF"/>
<path d="M22.3779 38.4703C20.3937 38.4703 18.7793 40.1087 18.7793 42.1226C18.7793 44.1366 20.3937 45.775 22.3779 45.775C24.3622 45.775 25.9766 44.1366 25.9766 42.1226C25.9766 40.1088 24.3622 38.4703 22.3779 38.4703ZM22.3779 43.7828C21.4759 43.7828 20.7422 43.0381 20.7422 42.1226C20.7422 41.2072 21.4759 40.4625 22.3779 40.4625C23.28 40.4625 24.0137 41.2072 24.0137 42.1226C24.0137 43.0381 23.2798 43.7828 22.3779 43.7828Z" fill="#45A7EF"/>
<path d="M52.9326 38.4703C50.9484 38.4703 49.334 40.1087 49.334 42.1226C49.334 44.1366 50.9484 45.775 52.9326 45.775C54.9169 45.775 56.5313 44.1366 56.5313 42.1226C56.5313 40.1088 54.9169 38.4703 52.9326 38.4703ZM52.9326 43.7828C52.0306 43.7828 51.2969 43.0381 51.2969 42.1226C51.2969 41.2072 52.0306 40.4625 52.9326 40.4625C53.8347 40.4625 54.5684 41.2072 54.5684 42.1226C54.5684 43.0381 53.8347 43.7828 52.9326 43.7828Z" fill="#45A7EF"/>
<path d="M9.29128 15.8925H4.49317C3.95102 15.8925 3.51172 16.3384 3.51172 16.8886C3.51172 17.4387 3.95102 17.8846 4.49317 17.8846H9.29128C9.83343 17.8846 10.2727 17.4387 10.2727 16.8886C10.2727 16.3384 9.83343 15.8925 9.29128 15.8925Z" fill="#45A7EF"/>
</svg>
