<?xml version="1.0" encoding="utf-8"?>
<svg width="50" height="50" viewBox="0 0 50 50" fill="none" xmlns="http://www.w3.org/2000/svg">
<path d="M15.0005 5.00061H4.16699V6.66731H15.0005V5.00061Z" fill="#45A7EF"/>
<path d="M15.0005 8.33386H4.16699V10.0006H15.0005V8.33386Z" fill="#45A7EF"/>
<path d="M11.6671 11.6672H4.16699V13.3339H11.6671V11.6672Z" fill="#45A7EF"/>
<path d="M11.6671 15.0004H4.16699V16.6671H11.6671V15.0004Z" fill="#45A7EF"/>
<path d="M49.9984 48.334H-0.000976562V50.0007H49.9984V48.334Z" fill="#45A7EF"/>
<path d="M48.2445 7.12736L44.9112 0.460778C44.7057 0.0489077 44.2054 -0.118382 43.7935 0.0871364C43.7933 0.0872406 43.7931 0.0873448 43.7929 0.0874489L37.1263 3.42074C36.7144 3.62647 36.5472 4.12719 36.753 4.53906C36.9587 4.95093 37.4594 5.11812 37.8713 4.91239L42.6996 2.49992L41.3821 6.26154C35.5912 22.7538 20.6759 34.3241 3.26172 35.8329L3.40338 37.4995C21.4737 35.9341 36.9503 23.9262 42.9562 6.81153L44.3012 2.96825L46.7529 7.87235C46.9586 8.28422 47.4593 8.45141 47.8712 8.24568C48.2831 8.03996 48.4502 7.53934 48.2445 7.12736Z" fill="#45A7EF"/>
<path d="M10.0008 40.0002H4.16733C3.70712 40.0002 3.33398 40.3733 3.33398 40.8335V45.8336C3.33398 46.2938 3.70712 46.667 4.16733 46.667H10.0008C10.461 46.667 10.8341 46.2938 10.8341 45.8336V40.8335C10.8341 40.3733 10.461 40.0002 10.0008 40.0002ZM9.16741 45.0003H5.00068V41.6669H9.16741V45.0003Z" fill="#45A7EF"/>
<path d="M19.1658 37.5006H13.3324C12.8722 37.5006 12.499 37.8737 12.499 38.334V45.8341C12.499 46.2943 12.8722 46.6674 13.3324 46.6674H19.1658C19.626 46.6674 19.9992 46.2943 19.9992 45.8341V38.334C19.9992 37.8737 19.626 37.5006 19.1658 37.5006ZM18.3325 45.0007H14.1657V39.1673H18.3325V45.0007Z" fill="#45A7EF"/>
<path d="M28.3328 33.3339H22.4994C22.0391 33.3339 21.666 33.707 21.666 34.1672V45.8341C21.666 46.2943 22.0391 46.6674 22.4994 46.6674H28.3328C28.793 46.6674 29.1661 46.2943 29.1661 45.8341V34.1672C29.1661 33.707 28.793 33.3339 28.3328 33.3339ZM27.4994 45.0007H23.3327V35.0006H27.4994V45.0007Z" fill="#45A7EF"/>
<path d="M37.4998 27.5004H31.6664C31.2061 27.5004 30.833 27.8736 30.833 28.3338V45.8341C30.833 46.2943 31.2061 46.6674 31.6664 46.6674H37.4998C37.96 46.6674 38.3331 46.2943 38.3331 45.8341V28.3338C38.3331 27.8736 37.96 27.5004 37.4998 27.5004ZM36.6664 45.0007H32.4997V29.1671H36.6664V45.0007Z" fill="#45A7EF"/>
<path d="M46.6668 15.8336H40.8333C40.3731 15.8336 40 16.2067 40 16.6669V45.834C40 46.2943 40.3731 46.6674 40.8333 46.6674H46.6668C47.127 46.6674 47.5001 46.2943 47.5001 45.834V16.6669C47.5001 16.2067 47.127 15.8336 46.6668 15.8336ZM45.8334 45.0007H41.6667V17.5003H45.8334V45.0007Z" fill="#45A7EF"/>
</svg>
