<?xml version="1.0" encoding="utf-8"?>
<svg width="58" height="59" viewBox="0 0 58 59" fill="none" xmlns="http://www.w3.org/2000/svg">
<path d="M53.2667 20.8726H4.67252C2.09609 20.8726 0 22.9687 0 25.5451V53.5802C0 56.1566 2.09609 58.2527 4.67252 58.2527H53.2667C55.8432 58.2527 57.9393 56.1566 57.9393 53.5802V25.5451C57.9393 22.9687 55.8432 20.8726 53.2667 20.8726ZM56.0702 53.5802C56.0702 55.1259 54.8124 56.3837 53.2667 56.3837H4.67252C3.12685 56.3837 1.86901 55.1259 1.86901 53.5802V25.5451C1.86901 23.9994 3.12685 22.7416 4.67252 22.7416H53.2667C54.8124 22.7416 56.0702 23.9994 56.0702 25.5451V53.5802Z" fill="white"/>
<path d="M16.821 28.3486C10.6374 28.3486 5.60693 33.3791 5.60693 39.5627C5.60693 45.7463 10.6374 50.7767 16.821 50.7767C23.0046 50.7767 28.035 45.7463 28.035 39.5627C28.035 33.3791 23.0046 28.3486 16.821 28.3486ZM16.821 48.9077C11.6681 48.9077 7.47594 44.7155 7.47594 39.5627C7.47594 34.4098 11.6681 30.2176 16.821 30.2176C21.9738 30.2176 26.166 34.4098 26.166 39.5627C26.166 44.7155 21.9738 48.9077 16.821 48.9077Z" fill="white"/>
<path d="M16.8212 32.0869C12.6992 32.0869 9.34521 35.4408 9.34521 39.5629C9.34521 43.685 12.6992 47.039 16.8212 47.039C20.9433 47.039 24.2973 43.685 24.2973 39.5629C24.2973 35.4408 20.9433 32.0869 16.8212 32.0869ZM16.8212 45.17C13.729 45.17 11.2142 42.6552 11.2142 39.5629C11.2142 36.4707 13.729 33.9559 16.8212 33.9559C19.9135 33.9559 22.4283 36.4707 22.4283 39.5629C22.4283 42.6552 19.9135 45.17 16.8212 45.17Z" fill="white"/>
<path d="M16.821 35.8247C14.7595 35.8247 13.083 37.5012 13.083 39.5627C13.083 41.6242 14.7595 43.3007 16.821 43.3007C18.8825 43.3007 20.559 41.6242 20.559 39.5627C20.559 37.5012 18.8825 35.8247 16.821 35.8247ZM16.821 41.4317C15.7903 41.4317 14.952 40.5935 14.952 39.5627C14.952 38.532 15.7903 37.6937 16.821 37.6937C17.8518 37.6937 18.69 38.532 18.69 39.5627C18.69 40.5935 17.8518 41.4317 16.821 41.4317Z" fill="white"/>
<path d="M49.5287 33.021H43.9217C42.376 33.021 41.1182 34.2788 41.1182 35.8245V51.7111C41.1182 53.2567 42.376 54.5146 43.9217 54.5146H49.5287C51.0744 54.5146 52.3322 53.2567 52.3322 51.7111V35.8245C52.3322 34.2788 51.0744 33.021 49.5287 33.021ZM50.4632 51.7111C50.4632 52.2269 50.0436 52.6456 49.5287 52.6456H43.9217C43.4068 52.6456 42.9872 52.2269 42.9872 51.7111V47.9731H50.4632V51.7111ZM50.4632 46.1041H42.9872V41.4315H50.4632V46.1041ZM50.4632 39.5625H42.9872V35.8245C42.9872 35.3087 43.4068 34.89 43.9217 34.89H49.5287C50.0436 34.89 50.4632 35.3087 50.4632 35.8245V39.5625Z" fill="white"/>
<path d="M46.7253 32.0864C48.7868 32.0864 50.4633 30.4099 50.4633 28.3484C50.4633 26.2869 48.7868 24.6104 46.7253 24.6104C44.6638 24.6104 42.9873 26.2869 42.9873 28.3484C42.9873 30.4099 44.6638 32.0864 46.7253 32.0864ZM46.7253 26.4794C47.7561 26.4794 48.5943 27.3176 48.5943 28.3484C48.5943 29.3791 47.7561 30.2174 46.7253 30.2174C45.6946 30.2174 44.8563 29.3791 44.8563 28.3484C44.8563 27.3176 45.6946 26.4794 46.7253 26.4794Z" fill="white"/>
<path d="M33.6424 24.6108C32.0967 24.6108 30.8389 25.8687 30.8389 27.4144C30.8389 28.96 32.0967 30.2179 33.6424 30.2179C35.188 30.2179 36.4459 28.96 36.4459 27.4144C36.4459 25.8687 35.188 24.6108 33.6424 24.6108ZM33.6424 28.3489C33.1275 28.3489 32.7079 27.9293 32.7079 27.4144C32.7079 26.8994 33.1275 26.4798 33.6424 26.4798C34.1573 26.4798 34.5769 26.8994 34.5769 27.4144C34.5769 27.9293 34.1573 28.3489 33.6424 28.3489Z" fill="white"/>
<path d="M33.6424 32.0869C32.0967 32.0869 30.8389 33.3448 30.8389 34.8904C30.8389 36.4361 32.0967 37.6939 33.6424 37.6939C35.188 37.6939 36.4459 36.4361 36.4459 34.8904C36.4459 33.3448 35.188 32.0869 33.6424 32.0869ZM33.6424 35.8249C33.1275 35.8249 32.7079 35.4063 32.7079 34.8904C32.7079 34.3746 33.1275 33.9559 33.6424 33.9559C34.1573 33.9559 34.5769 34.3746 34.5769 34.8904C34.5769 35.4063 34.1573 35.8249 33.6424 35.8249Z" fill="white"/>
<path d="M47.66 19.004H49.529V13.397H44.8564V15.266H47.66V19.004Z" fill="white"/>
<path d="M22.4281 19.004V15.266H24.2971V13.397H20.5591V19.004H22.4281Z" fill="white"/>
<path d="M8.41051 13.3965H17.7556C18.7863 13.3965 19.6246 12.5583 19.6246 11.5275V10.593H25.2316V12.462C25.2316 14.0077 26.4894 15.2655 28.0351 15.2655H29.9041V19.0036H31.7731V15.2655H33.6421V19.0036H35.5111V15.2655H39.2491V19.0036H41.1182V15.2655C42.6638 15.2655 43.9217 14.0077 43.9217 12.462V3.11699C43.9217 1.57132 42.6638 0.313477 41.1182 0.313477H28.0351C26.4894 0.313477 25.2316 1.57132 25.2316 3.11699H19.6246V2.18248C19.6246 1.15173 18.7863 0.313477 17.7556 0.313477H8.41051C7.37975 0.313477 6.5415 1.15173 6.5415 2.18248V11.5275C6.5415 12.5583 7.37975 13.3965 8.41051 13.3965ZM37.3801 2.18248H38.3146V9.65852H37.3801V2.18248ZM30.8386 2.18248H31.7731V9.65852H30.8386V2.18248ZM27.1006 3.11699C27.1006 2.60208 27.5202 2.18248 28.0351 2.18248H28.9696V11.5275H33.6421V2.18248H35.5111V11.5275H40.1836V2.18248H41.1182C41.6331 2.18248 42.0527 2.60208 42.0527 3.11699V12.462C42.0527 12.9769 41.6331 13.3965 41.1182 13.3965H28.0351C27.5202 13.3965 27.1006 12.9769 27.1006 12.462V3.11699ZM19.6246 4.986H25.2316V8.72401H19.6246V4.986ZM8.41051 2.18248H17.7556L17.7565 11.5275H8.41051V2.18248Z" fill="white"/>
<path d="M51.398 3.11719H45.791V4.9862H49.529V8.72421H45.791V10.5932H51.398V3.11719Z" fill="white"/>
</svg>
