<?xml version="1.0" encoding="utf-8"?>
<svg width="58" height="59" viewBox="0 0 58 59" fill="none" xmlns="http://www.w3.org/2000/svg">
<path d="M28.9694 24.6104C26.393 24.6104 24.2969 26.7064 24.2969 29.2829C24.2969 31.8593 26.393 33.9554 28.9694 33.9554C31.5458 33.9554 33.6419 31.8593 33.6419 29.2829C33.6419 26.7064 31.5458 24.6104 28.9694 24.6104ZM28.9694 32.0864C27.4237 32.0864 26.1659 30.8285 26.1659 29.2829C26.1659 27.7372 27.4237 26.4794 28.9694 26.4794C30.5151 26.4794 31.7729 27.7372 31.7729 29.2829C31.7729 30.8285 30.5151 32.0864 28.9694 32.0864Z" fill="white"/>
<path d="M42.987 46.1044C42.987 47.3212 43.771 48.3491 44.856 48.736V52.5712C41.6908 52.1152 39.2489 49.393 39.2489 46.1044C39.2489 45.5493 39.3181 44.9989 39.4545 44.4691L37.6444 44.0027C37.4687 44.6849 37.3799 45.3923 37.3799 46.1044C37.3799 50.7415 41.1535 54.515 45.7905 54.515C50.4275 54.515 54.201 50.7415 54.201 46.1044C54.201 41.4674 50.4275 37.6939 45.7905 37.6939C45.4391 37.6939 45.0859 37.7154 44.7401 37.7593L44.856 38.6863V41.3188L37.2547 30.6767C37.3304 30.2225 37.3799 29.759 37.3799 29.2834C37.3799 28.8077 37.3304 28.3442 37.2547 27.8891L46.3091 15.2125C47.295 15.0275 48.0912 14.3229 48.422 13.3959H52.2572C51.8012 16.561 49.079 19.0029 45.7905 19.0029C45.5129 19.0029 45.2401 18.9851 44.9719 18.9524L44.7401 20.8065C45.0859 20.8513 45.4391 20.8728 45.7905 20.8728C50.4275 20.8728 54.201 17.0993 54.201 12.4623C54.201 7.82529 50.4275 4.05176 45.7905 4.05176C41.1535 4.05176 37.3799 7.82529 37.3799 12.4623C37.3799 13.1744 37.4687 13.8818 37.6453 14.5649L39.4555 14.0986C39.3966 13.8687 39.3555 13.6332 39.3218 13.3977H42.3898L31.9495 21.4289C31.0206 21.0747 30.0189 20.8728 28.9694 20.8728C27.92 20.8728 26.9182 21.0747 25.9902 21.4279L14.907 12.9024C14.9303 12.7585 14.9518 12.6128 14.9518 12.4623C14.9518 11.2456 14.1678 10.2176 13.0828 9.83073V5.99553C16.248 6.45156 18.6899 9.17377 18.6899 12.4623C18.6899 13.0174 18.6207 13.5678 18.4843 14.0977L20.2944 14.564C20.4701 13.8818 20.5589 13.1744 20.5589 12.4623C20.5589 7.82529 16.7853 4.05176 12.1483 4.05176C7.51132 4.05176 3.73779 7.82529 3.73779 12.4623C3.73779 17.0993 7.51132 20.8728 12.1483 20.8728C12.4997 20.8728 12.8529 20.8513 13.1987 20.8074L13.0828 19.8804V17.2479L20.6841 27.89C20.6084 28.3442 20.5589 28.8077 20.5589 29.2834C20.5589 29.759 20.6084 30.2225 20.6841 30.6776L11.6297 43.3542C10.6438 43.5392 9.84758 44.2438 9.51677 45.1709H5.68156C6.1376 42.0057 8.85981 39.5638 12.1483 39.5638C12.4259 39.5638 12.6988 39.5816 12.967 39.6143L13.1987 37.7603C12.8529 37.7154 12.4997 37.6939 12.1483 37.6939C7.51132 37.6939 3.73779 41.4674 3.73779 46.1044C3.73779 50.7415 7.51132 54.515 12.1483 54.515C16.7853 54.515 20.5589 50.7415 20.5589 46.1044C20.5589 45.3923 20.4701 44.6849 20.2935 44.0018L18.4843 44.4691C18.5431 44.6989 18.5843 44.9344 18.6179 45.1699H15.5499L25.9902 37.1388C26.9182 37.4921 27.92 37.6939 28.9694 37.6939C30.0189 37.6939 31.0206 37.4921 31.9486 37.1388L43.0318 45.6643C43.0085 45.8082 42.987 45.954 42.987 46.1044ZM46.725 39.6377C49.8901 40.0937 52.332 42.8159 52.332 46.1044C52.332 49.393 49.8901 52.1152 46.725 52.5712V48.736C47.8099 48.3491 48.594 47.3212 48.594 46.1044C48.594 44.8877 47.8099 43.8598 46.725 43.4729V39.6377ZM45.7905 45.1699C46.3054 45.1699 46.725 45.5895 46.725 46.1044C46.725 46.6194 46.3054 47.0389 45.7905 47.0389C45.2756 47.0389 44.856 46.6194 44.856 46.1044C44.856 45.5895 45.2756 45.1699 45.7905 45.1699ZM11.2138 18.9291C8.04866 18.473 5.6068 15.7508 5.6068 12.4623C5.6068 9.17377 8.04866 6.45156 11.2138 5.99553V9.83073C10.1289 10.2176 9.34482 11.2456 9.34482 12.4623C9.34482 13.679 10.1289 14.707 11.2138 15.0939V18.9291ZM12.1483 13.3968C11.6334 13.3968 11.2138 12.9772 11.2138 12.4623C11.2138 11.9474 11.6334 11.5278 12.1483 11.5278C12.6632 11.5278 13.0828 11.9474 13.0828 12.4623C13.0828 12.9772 12.6632 13.3968 12.1483 13.3968ZM45.7905 13.3968C45.2756 13.3968 44.856 12.9772 44.856 12.4623C44.856 11.9474 45.2756 11.5278 45.7905 11.5278C46.3054 11.5278 46.725 11.9474 46.725 12.4623C46.725 12.9772 46.3054 13.3968 45.7905 13.3968ZM39.3237 11.5278C39.7797 8.36263 42.502 5.92077 45.7905 5.92077C49.079 5.92077 51.8012 8.36263 52.2572 11.5278H48.422C48.0352 10.4428 47.0072 9.65878 45.7905 9.65878C44.5738 9.65878 43.5458 10.4428 43.1589 11.5278H39.3237ZM43.9458 14.5565C44.0551 14.6528 44.1672 14.7434 44.2906 14.8219L36.5482 25.6622C35.9165 24.3445 34.9568 23.2156 33.7681 22.3858L43.9458 14.5565ZM13.6482 14.8229C13.7716 14.7444 13.8837 14.6528 13.993 14.5575L24.1707 22.3867C22.982 23.2166 22.0223 24.3454 21.3906 25.6631L13.6482 14.8229ZM12.1483 45.1699C12.6632 45.1699 13.0828 45.5895 13.0828 46.1044C13.0828 46.6194 12.6632 47.0389 12.1483 47.0389C11.6334 47.0389 11.2138 46.6194 11.2138 46.1044C11.2138 45.5895 11.6334 45.1699 12.1483 45.1699ZM18.6151 47.0389C18.1591 50.2041 15.4368 52.646 12.1483 52.646C8.85981 52.646 6.1376 50.2041 5.68156 47.0389H9.51677C9.90365 48.1239 10.9316 48.908 12.1483 48.908C13.3651 48.908 14.393 48.1239 14.7799 47.0389H18.6151ZM13.993 44.0102C13.8837 43.914 13.7716 43.8233 13.6482 43.7448L21.3906 32.9055C22.0223 34.2232 22.982 35.352 24.1707 36.1819L13.993 44.0102ZM28.9694 35.8249C25.3622 35.8249 22.4279 32.8906 22.4279 29.2834C22.4279 25.6762 25.3622 22.7418 28.9694 22.7418C32.5766 22.7418 35.5109 25.6762 35.5109 29.2834C35.5109 32.8906 32.5766 35.8249 28.9694 35.8249ZM33.7681 36.18C34.9568 35.3502 35.9165 34.2213 36.5482 32.9036L44.2906 43.7439C44.1672 43.8224 44.0551 43.914 43.9458 44.0093L33.7681 36.18Z" fill="white"/>
<path d="M36.0952 15.8889C35.7073 14.7908 35.5111 13.6376 35.5111 12.462C35.5111 6.79426 40.1229 2.18248 45.7906 2.18248C51.4584 2.18248 56.0702 6.79426 56.0702 12.462C56.0702 18.1298 51.4584 22.7416 45.7906 22.7416C44.9197 22.7416 44.0553 22.6322 43.2198 22.4182L42.7544 24.2284C43.7422 24.4816 44.7636 24.6106 45.7906 24.6106C52.4892 24.6106 57.9392 19.1606 57.9392 12.462C57.9392 5.7635 52.4892 0.313477 45.7906 0.313477C39.0921 0.313477 33.6421 5.7635 33.6421 12.462C33.6421 13.8498 33.8748 15.2123 34.3336 16.5112L36.0952 15.8889Z" fill="white"/>
<path d="M21.844 42.6773C22.2319 43.7753 22.4281 44.9285 22.4281 46.1041C22.4281 51.7719 17.8163 56.3837 12.1486 56.3837C6.48079 56.3837 1.86901 51.7719 1.86901 46.1041C1.86901 40.4364 6.48079 35.8246 12.1486 35.8246C13.0195 35.8246 13.8839 35.9339 14.7194 36.1479L15.1848 34.3378C14.197 34.0845 13.1756 33.9556 12.1486 33.9556C5.45003 33.9556 0 39.4056 0 46.1041C0 52.8026 5.45003 58.2527 12.1486 58.2527C18.8471 58.2527 24.2971 52.8026 24.2971 46.1041C24.2971 44.7164 24.0644 43.3539 23.6056 42.0549L21.844 42.6773Z" fill="white"/>
<path d="M45.7906 33.9556C44.7636 33.9556 43.7422 34.0845 42.7544 34.3387L43.2198 36.1488C44.0553 35.9339 44.9197 35.8246 45.7906 35.8246C51.4584 35.8246 56.0702 40.4364 56.0702 46.1041C56.0702 51.7719 51.4584 56.3837 45.7906 56.3837C40.1229 56.3837 35.5111 51.7719 35.5111 46.1041C35.5111 44.9285 35.7073 43.7753 36.0952 42.6773L34.3327 42.0549C33.8748 43.3539 33.6421 44.7164 33.6421 46.1041C33.6421 52.8026 39.0921 58.2527 45.7906 58.2527C52.4892 58.2527 57.9392 52.8026 57.9392 46.1041C57.9392 39.4056 52.4892 33.9556 45.7906 33.9556Z" fill="white"/>
<path d="M12.149 24.6111C13.1761 24.6111 14.1975 24.4821 15.1852 24.2279L14.7199 22.4178C13.8844 22.6327 13.02 22.7421 12.149 22.7421C6.48127 22.7421 1.8695 18.1303 1.8695 12.4625C1.8695 6.79475 6.48127 2.18297 12.149 2.18297C17.8168 2.18297 22.4286 6.79475 22.4286 12.4625C22.4286 13.6381 22.2323 14.7913 21.8445 15.8893L23.607 16.5117C24.0649 15.2128 24.2976 13.8503 24.2976 12.4625C24.2976 5.76399 18.8476 0.313965 12.149 0.313965C5.45052 0.313965 0.000488281 5.76399 0.000488281 12.4625C0.000488281 19.161 5.45052 24.6111 12.149 24.6111Z" fill="white"/>
</svg>
