<?xml version="1.0" encoding="utf-8"?>
<svg width="27" height="59" viewBox="0 0 27 59" fill="none" xmlns="http://www.w3.org/2000/svg">
<path d="M4.67252 24.6104C2.09609 24.6104 0 26.7064 0 29.2829C0 31.8593 2.09609 33.9554 4.67252 33.9554C7.24895 33.9554 9.34504 31.8593 9.34504 29.2829C9.34504 26.7064 7.24895 24.6104 4.67252 24.6104ZM4.67252 32.0864C3.12685 32.0864 1.86901 30.8285 1.86901 29.2829C1.86901 27.7372 3.12685 26.4794 4.67252 26.4794C6.21819 26.4794 7.47603 27.7372 7.47603 29.2829C7.47603 30.8285 6.21819 32.0864 4.67252 32.0864Z" fill="white"/>
<path d="M5.77163 1.83765C5.56043 0.940529 4.76891 0.313477 3.84655 0.313477C2.75598 0.313477 1.86914 1.20032 1.86914 2.29089V22.7416H3.73815V2.29089C3.73815 2.18062 3.92692 2.15912 3.95215 2.26659L7.33973 16.6645C7.43037 17.0476 7.47616 17.442 7.47616 17.8373C7.47616 18.4924 7.35281 19.1325 7.10984 19.739L6.04731 22.3949L7.78268 23.0883L8.84428 20.4333C9.17696 19.6054 9.34517 18.7316 9.34517 17.8373C9.34517 17.2981 9.28256 16.7589 9.15921 16.2356L5.77163 1.83765Z" fill="white"/>
<path d="M5.60702 56.2754C5.60702 56.3857 5.41732 56.4072 5.39302 56.2997L2.00545 41.9018C1.9148 41.5187 1.86901 41.1243 1.86901 40.729C1.86901 40.0739 1.99236 39.4338 2.23533 38.8273L3.29786 36.1714L1.56249 35.478L0.500894 38.133C0.16821 38.9609 0 39.8347 0 40.729C0 41.2682 0.0626112 41.8074 0.185966 42.3307L3.57354 56.7286C3.78474 57.6258 4.57627 58.2528 5.49862 58.2528C6.58919 58.2528 7.47603 57.366 7.47603 56.2754V35.8247H5.60702V56.2754Z" fill="white"/>
<path d="M26.1658 29.2829C26.1658 26.7064 24.0697 24.6104 21.4933 24.6104C18.9169 24.6104 16.8208 26.7064 16.8208 29.2829C16.8208 31.8593 18.9169 33.9554 21.4933 33.9554C24.0697 33.9554 26.1658 31.8593 26.1658 29.2829ZM18.6898 29.2829C18.6898 27.7372 19.9477 26.4794 21.4933 26.4794C23.039 26.4794 24.2968 27.7372 24.2968 29.2829C24.2968 30.8285 23.039 32.0864 21.4933 32.0864C19.9477 32.0864 18.6898 30.8285 18.6898 29.2829Z" fill="white"/>
<path d="M18.3824 23.0892L20.1177 22.3958L19.0552 19.7381C18.8132 19.1325 18.6898 18.4924 18.6898 17.8373C18.6898 17.442 18.7356 17.0476 18.8262 16.6645L22.2138 2.26659C22.2381 2.16006 22.4278 2.18062 22.4278 2.29089V22.7416H24.2968V2.29089C24.2968 1.20032 23.41 0.313477 22.3194 0.313477C21.3971 0.313477 20.6065 0.940529 20.3943 1.83765L17.0068 16.2356C16.8834 16.7589 16.8208 17.2981 16.8208 17.8373C16.8208 18.7316 16.989 19.6054 17.3208 20.4324L18.3824 23.0892Z" fill="white"/>
<path d="M24.6044 35.4771L22.869 36.1705L23.9316 38.8282C24.1736 39.4337 24.297 40.0739 24.297 40.729C24.297 41.1243 24.2512 41.5186 24.1605 41.9018L20.773 56.2997C20.7468 56.4053 20.5589 56.3847 20.5589 56.2754V35.8247H18.6899V56.2754C18.6899 57.3659 19.5768 58.2528 20.6674 58.2528C21.5897 58.2528 22.3803 57.6257 22.5924 56.7286L25.98 42.3307C26.1034 41.8074 26.166 41.2682 26.166 40.729C26.166 39.8346 25.9978 38.9609 25.666 38.1338L24.6044 35.4771Z" fill="white"/>
</svg>
