<?xml version="1.0" standalone="no"?>
<!DOCTYPE svg PUBLIC "-//W3C//DTD SVG 20010904//EN"
 "http://www.w3.org/TR/2001/REC-SVG-20010904/DTD/svg10.dtd">
<svg version="1.0" xmlns="http://www.w3.org/2000/svg"
 width="141.000000pt" height="36.000000pt" viewBox="0 0 141.000000 36.000000"
 preserveAspectRatio="xMidYMid meet">
<metadata>
Created by potrace 1.16, written by Peter Selinger 2001-2019
</metadata>
<g transform="translate(0.000000,36.000000) scale(0.100000,-0.100000)"
fill="#000000" stroke="none">
<path d="M0 180 l0 -180 705 0 705 0 0 180 0 180 -705 0 -705 0 0 -180z m639
118 c8 -21 8 -35 1 -42 -5 -5 -10 -19 -10 -29 0 -16 -3 -17 -15 -7 -8 7 -15 9
-15 4 0 -5 14 -17 31 -27 29 -16 31 -21 26 -58 -5 -36 -4 -39 11 -27 13 11 14
11 7 -1 -6 -11 -4 -13 7 -9 13 5 14 3 4 -17 -6 -13 -15 -21 -19 -18 -5 3 -4
-4 3 -17 10 -20 9 -21 -12 -18 -16 2 -22 9 -21 23 1 18 0 17 -16 -4 -15 -20
-24 -23 -54 -17 -36 7 -63 29 -53 44 2 4 -8 7 -25 6 -34 -2 -35 -1 -12 17 9 8
14 9 10 3 -4 -7 9 -11 39 -11 l45 0 -30 20 c-33 20 -41 53 -18 76 10 11 9 12
-3 6 -12 -7 -13 -6 -3 6 7 9 26 15 43 14 34 -2 40 10 9 18 -17 5 -19 9 -9 27
6 11 15 18 21 15 5 -4 8 -3 7 2 -3 12 21 53 31 53 5 0 14 -14 20 -32z m577
-17 c8 -25 12 -29 17 -17 4 9 18 16 32 16 15 0 24 4 21 9 -3 4 -17 6 -32 3
-20 -4 -25 -1 -22 9 6 18 55 24 74 8 8 -7 14 -29 14 -55 l0 -44 -39 0 c-23 0
-44 6 -52 16 -11 14 -13 14 -21 0 -5 -9 -20 -16 -33 -16 -18 0 -25 -5 -25 -20
0 -11 -7 -20 -15 -20 -12 0 -15 15 -15 76 l0 75 43 -3 c38 -3 43 -6 53 -37z"/>
</g>
</svg>
