<?xml version="1.0" encoding="utf-8"?>
<svg width="141" height="36" viewBox="0 0 141 36" fill="none" xmlns="http://www.w3.org/2000/svg">
<rect x="39" width="102" height="36" fill="black" fill-opacity="0.8"/>
<rect x="-1" y="1" width="37" height="34" transform="matrix(-1 0 0 1 37 0)" stroke="black" stroke-opacity="0.8" stroke-width="2"/>
<path d="M64.293 9.86722V20.9532C64.293 22.9063 63.7031 24.4414 62.5234 25.5586C61.3438 26.6758 59.7227 27.2344 57.6602 27.2344C55.5977 27.2344 54 26.6719 52.8672 25.5469C51.7422 24.4219 51.1797 22.875 51.1797 20.9063V9.86722H53.1719V21.0469C53.1719 22.4766 53.5625 23.5742 54.3438 24.3399C55.125 25.1055 56.2734 25.4883 57.7891 25.4883C59.2344 25.4883 60.3477 25.1055 61.1289 24.3399C61.9102 23.5664 62.3008 22.461 62.3008 21.0235V9.86722H64.293ZM80.0894 27L77.9566 21.5508H71.0894L68.98 27H66.9644L73.7378 9.79691H75.4136L82.1519 27H80.0894ZM77.3355 19.7578L75.3433 14.4492C75.0855 13.7774 74.8198 12.9532 74.5464 11.9766C74.3745 12.7266 74.1284 13.5508 73.8081 14.4492L71.7925 19.7578H77.3355ZM98.6631 18.2696C98.6631 21.0977 97.8936 23.2617 96.3545 24.7617C94.8233 26.2539 92.6162 27 89.7334 27H84.9873V9.86722H90.2373C92.9014 9.86722 94.9717 10.6055 96.4483 12.0821C97.9248 13.5586 98.6631 15.6211 98.6631 18.2696ZM96.5537 18.3399C96.5537 16.1055 95.9912 14.4219 94.8662 13.2891C93.7491 12.1563 92.085 11.5899 89.8741 11.5899H86.9795V25.2774H89.4053C91.7803 25.2774 93.5655 24.6953 94.7608 23.5313C95.9561 22.3594 96.5537 20.6289 96.5537 18.3399ZM112.526 27H102.975V9.86722H112.526V11.6367H104.967V17.1563H112.069V18.9141H104.967V25.2188H112.526V27ZM128.217 27H125.955L121.35 19.4649L116.662 27H114.553L120.248 18.0469L114.94 9.86722H117.143L121.397 16.6524L125.686 9.86722H127.807L122.498 17.9766L128.217 27Z" fill="white"/>
<path d="M27.707 17.4102C27.707 19.4258 27.3477 21.1172 26.6289 22.4844C25.918 23.8438 24.8711 24.8399 23.4883 25.4727L27.6133 30.0782H22.9609L19.8203 26.2344H19.5508C16.9258 26.2344 14.9102 25.4727 13.5039 23.9492C12.0977 22.4258 11.3945 20.2383 11.3945 17.3867C11.3945 14.5352 12.0977 12.3594 13.5039 10.8594C14.918 9.35159 16.9414 8.59769 19.5742 8.59769C22.207 8.59769 24.2188 9.3555 25.6094 10.8711C27.0078 12.3867 27.707 14.5664 27.707 17.4102ZM15.2031 17.4102C15.2031 19.3242 15.5664 20.7657 16.293 21.7344C17.0195 22.7032 18.1055 23.1875 19.5508 23.1875C22.4492 23.1875 23.8984 21.2617 23.8984 17.4102C23.8984 13.5508 22.457 11.6211 19.5742 11.6211C18.1289 11.6211 17.0391 12.1094 16.3047 13.086C15.5703 14.0547 15.2031 15.4961 15.2031 17.4102Z" fill="#45A7EF"/>
</svg>
