<?xml version="1.0" standalone="no"?>
<!DOCTYPE svg PUBLIC "-//W3C//DTD SVG 20010904//EN"
 "http://www.w3.org/TR/2001/REC-SVG-20010904/DTD/svg10.dtd">
<svg version="1.0" xmlns="http://www.w3.org/2000/svg"
 width="141.000000pt" height="36.000000pt" viewBox="0 0 141.000000 36.000000"
 preserveAspectRatio="xMidYMid meet">

<g transform="translate(0.000000,36.000000) scale(0.100000,-0.100000)"
fill="#000000" stroke="none">
<path d="M0 180 l0 -180 705 0 705 0 0 180 0 180 -705 0 -705 0 0 -180z m150
135 c7 -9 9 -19 5 -23 -4 -4 -10 -1 -12 6 -3 6 -13 12 -24 12 -15 0 -19 -7
-19 -35 0 -27 4 -35 18 -35 10 0 24 6 31 13 11 10 13 9 9 -2 -7 -25 -36 -37
-55 -25 -22 13 -29 70 -12 90 15 18 43 18 59 -1z m101 -43 c19 -56 19 -58 -11
-40 -16 10 -24 10 -41 0 -12 -7 -22 -12 -24 -10 -7 8 39 108 48 105 6 -2 18
-27 28 -55z m388 26 c8 -21 8 -35 1 -42 -5 -5 -10 -19 -10 -29 0 -16 -3 -17
-15 -7 -8 7 -15 9 -15 4 0 -5 14 -17 31 -27 29 -16 31 -21 26 -58 -5 -36 -4
-39 11 -27 13 11 14 11 7 -1 -6 -11 -4 -13 7 -9 13 5 14 3 4 -17 -6 -13 -15
-21 -19 -18 -5 3 -4 -4 3 -17 10 -20 9 -21 -12 -18 -16 2 -22 9 -21 23 1 18 0
17 -16 -4 -15 -20 -24 -23 -54 -17 -36 7 -63 29 -53 44 2 4 -8 7 -25 6 -34 -2
-35 -1 -12 17 9 8 14 9 10 3 -4 -7 9 -11 39 -11 l45 0 -30 20 c-33 20 -41 53
-18 76 10 11 9 12 -3 6 -12 -7 -13 -6 -3 6 7 9 26 15 43 14 34 -2 40 10 9 18
-17 5 -19 9 -9 27 6 11 15 18 21 15 5 -4 8 -3 7 2 -3 12 21 53 31 53 5 0 14
-14 20 -32z m245 0 l16 -22 0 22 c0 30 30 29 31 0 l0 -23 16 23 c8 12 24 22
34 22 18 0 18 -2 4 -24 -15 -22 -15 -27 0 -55 15 -29 15 -31 -4 -31 -10 0 -26
10 -34 23 l-16 22 0 -22 c-1 -14 -7 -23 -16 -23 -9 0 -15 9 -16 23 l0 22 -16
-22 c-8 -13 -24 -23 -35 -23 -18 0 -19 1 -2 29 16 28 16 31 0 55 -16 25 -16
26 3 26 11 0 27 -10 35 -22z m210 6 c9 -8 16 -26 16 -39 0 -56 -71 -73 -99
-24 -13 24 -13 29 2 53 20 30 57 35 81 10z m122 -23 c8 -25 12 -29 17 -17 4 9
18 16 32 16 15 0 24 4 21 9 -3 4 -17 6 -32 3 -20 -4 -25 -1 -22 9 6 18 55 24
74 8 8 -7 14 -29 14 -55 l0 -44 -39 0 c-23 0 -44 6 -52 16 -11 14 -13 14 -21
0 -5 -9 -20 -16 -33 -16 -18 0 -25 -5 -25 -20 0 -11 -7 -20 -15 -20 -12 0 -15
15 -15 76 l0 75 43 -3 c38 -3 43 -6 53 -37z m-756 -32 c0 -11 -4 -17 -10 -14
-5 3 -10 13 -10 21 0 8 5 14 10 14 6 0 10 -9 10 -21z m50 -9 c0 -5 -8 -10 -17
-10 -15 0 -16 2 -3 10 19 12 20 12 20 0z m-80 -30 c0 -5 -4 -10 -10 -10 -5 0
-10 5 -10 10 0 6 5 10 10 10 6 0 10 -4 10 -10z m240 -12 c0 -13 -23 -5 -28 10
-2 7 2 10 12 6 9 -3 16 -11 16 -16z m627 -22 c-2 -6 -14 -11 -27 -11 -13 0
-25 5 -27 11 -2 6 10 11 27 11 17 0 29 -5 27 -11z m-1153 -7 c-6 -11 -31 -12
-37 -1 -3 4 6 8 19 8 13 1 21 -2 18 -7z m281 -19 c3 -5 1 -10 -4 -10 -6 0 -11
5 -11 10 0 6 2 10 4 10 3 0 8 -4 11 -10z m-325 -37 l0 -38 22 38 c12 20 26 37
30 37 4 0 8 -25 8 -56 0 -30 -4 -53 -9 -50 -4 3 -7 17 -6 31 4 33 -7 32 -28
-5 -26 -44 -37 -37 -37 25 0 30 5 55 10 55 6 0 10 -17 10 -37z m170 27 c0 -5
-7 -10 -15 -10 -11 0 -15 -12 -15 -45 0 -25 -4 -45 -10 -45 -5 0 -10 20 -10
45 0 33 -4 45 -14 45 -8 0 -18 5 -21 10 -4 6 12 10 39 10 25 0 46 -4 46 -10z
m640 -17 c0 -16 3 -45 6 -66 5 -30 4 -37 -10 -37 -9 0 -16 7 -16 15 0 9 -9 15
-25 15 -16 0 -25 -6 -25 -15 0 -8 -7 -15 -15 -15 -17 0 -21 45 -5 55 6 3 10
22 10 41 0 33 1 34 40 34 37 0 40 -2 40 -27z m99 5 c11 -30 6 -38 -25 -38 -15
0 -23 -4 -19 -10 4 -6 16 -8 27 -4 15 4 19 2 16 -7 -5 -17 -47 -23 -67 -10 -8
5 -14 24 -14 41 0 34 15 50 51 50 14 0 26 -8 31 -22z m111 -10 c0 -25 3 -29
12 -20 7 7 20 12 30 12 10 0 18 5 18 10 0 6 -11 8 -26 4 -20 -5 -25 -3 -22 7
6 18 45 24 64 9 8 -7 14 -30 14 -51 0 -37 -1 -39 -33 -39 -18 0 -38 5 -45 12
-9 9 -12 9 -12 0 0 -7 -9 -12 -20 -12 -17 0 -20 7 -21 43 l-1 42 -12 -40 c-7
-25 -19 -41 -30 -43 -15 -3 -17 0 -11 14 4 11 10 34 13 52 4 30 7 32 43 32 37
0 39 -1 39 -32z m141 10 l0 -23 11 23 c6 12 19 22 30 22 15 0 18 -8 18 -50 0
-43 -3 -50 -20 -50 -12 0 -20 7 -20 18 -1 16 -1 16 -11 -1 -21 -35 -39 -20
-39 33 0 38 4 50 15 50 9 0 15 -9 16 -22z m-803 0 c-2 -6 -10 -14 -16 -16 -7
-2 -10 2 -6 12 7 18 28 22 22 4z m45 -67 c4 -1 7 -5 7 -11 0 -5 -13 -10 -28
-10 -17 0 -29 5 -29 13 0 8 9 12 21 11 12 -1 24 -3 29 -3z"/>
<path d="M210 275 c0 -8 5 -15 10 -15 6 0 10 7 10 15 0 8 -4 15 -10 15 -5 0
-10 -7 -10 -15z"/>
<path d="M550 182 c0 -14 11 -21 26 -15 21 8 17 23 -6 23 -11 0 -20 -4 -20 -8z"/>
<path d="M1040 265 c0 -26 24 -35 32 -12 7 18 -2 37 -18 37 -8 0 -14 -10 -14
-25z"/>
<path d="M1150 265 c0 -16 6 -25 15 -25 9 0 15 9 15 25 0 16 -6 25 -15 25 -9
0 -15 -9 -15 -25z"/>
<path d="M1260 250 c0 -5 4 -10 9 -10 6 0 13 5 16 10 3 6 -1 10 -9 10 -9 0
-16 -4 -16 -10z"/>
<path d="M867 123 c-11 -10 -8 -53 3 -53 6 0 10 14 10 30 0 31 -2 35 -13 23z"/>
<path d="M960 120 c0 -5 5 -10 10 -10 6 0 10 5 10 10 0 6 -4 10 -10 10 -5 0
-10 -4 -10 -10z"/>
<path d="M1160 79 c0 -5 5 -7 10 -4 6 3 10 8 10 11 0 2 -4 4 -10 4 -5 0 -10
-5 -10 -11z"/>
</g>
</svg>
